%TF.GenerationSoftware,KiCad,Pcbnew,8.0.4*%
%TF.CreationDate,2024-08-29T11:46:15+07:00*%
%TF.ProjectId,ESP32,45535033-322e-46b6-9963-61645f706362,rev?*%
%TF.SameCoordinates,Original*%
%TF.FileFunction,Copper,L1,Top*%
%TF.FilePolarity,Positive*%
%FSLAX46Y46*%
G04 Gerber Fmt 4.6, Leading zero omitted, Abs format (unit mm)*
G04 Created by KiCad (PCBNEW 8.0.4) date 2024-08-29 11:46:15*
%MOMM*%
%LPD*%
G01*
G04 APERTURE LIST*
G04 Aperture macros list*
%AMRoundRect*
0 Rectangle with rounded corners*
0 $1 Rounding radius*
0 $2 $3 $4 $5 $6 $7 $8 $9 X,Y pos of 4 corners*
0 Add a 4 corners polygon primitive as box body*
4,1,4,$2,$3,$4,$5,$6,$7,$8,$9,$2,$3,0*
0 Add four circle primitives for the rounded corners*
1,1,$1+$1,$2,$3*
1,1,$1+$1,$4,$5*
1,1,$1+$1,$6,$7*
1,1,$1+$1,$8,$9*
0 Add four rect primitives between the rounded corners*
20,1,$1+$1,$2,$3,$4,$5,0*
20,1,$1+$1,$4,$5,$6,$7,0*
20,1,$1+$1,$6,$7,$8,$9,0*
20,1,$1+$1,$8,$9,$2,$3,0*%
G04 Aperture macros list end*
%TA.AperFunction,ComponentPad*%
%ADD10R,1.700000X1.700000*%
%TD*%
%TA.AperFunction,ComponentPad*%
%ADD11O,1.700000X1.700000*%
%TD*%
%TA.AperFunction,ComponentPad*%
%ADD12O,1.700000X2.000000*%
%TD*%
%TA.AperFunction,ComponentPad*%
%ADD13RoundRect,0.250000X0.600000X0.750000X-0.600000X0.750000X-0.600000X-0.750000X0.600000X-0.750000X0*%
%TD*%
%TA.AperFunction,ComponentPad*%
%ADD14RoundRect,0.250000X-0.600000X-0.725000X0.600000X-0.725000X0.600000X0.725000X-0.600000X0.725000X0*%
%TD*%
%TA.AperFunction,ComponentPad*%
%ADD15O,1.700000X1.950000*%
%TD*%
%TA.AperFunction,ComponentPad*%
%ADD16RoundRect,0.250000X0.750000X-0.600000X0.750000X0.600000X-0.750000X0.600000X-0.750000X-0.600000X0*%
%TD*%
%TA.AperFunction,ComponentPad*%
%ADD17O,2.000000X1.700000*%
%TD*%
%TA.AperFunction,ComponentPad*%
%ADD18C,4.400000*%
%TD*%
%TA.AperFunction,ComponentPad*%
%ADD19RoundRect,0.250000X-0.600000X-0.750000X0.600000X-0.750000X0.600000X0.750000X-0.600000X0.750000X0*%
%TD*%
%TA.AperFunction,ComponentPad*%
%ADD20RoundRect,0.250000X-0.725000X0.600000X-0.725000X-0.600000X0.725000X-0.600000X0.725000X0.600000X0*%
%TD*%
%TA.AperFunction,ComponentPad*%
%ADD21O,1.950000X1.700000*%
%TD*%
%TA.AperFunction,ComponentPad*%
%ADD22R,1.530000X1.530000*%
%TD*%
%TA.AperFunction,ComponentPad*%
%ADD23C,1.530000*%
%TD*%
%TA.AperFunction,ComponentPad*%
%ADD24RoundRect,0.250000X0.600000X0.725000X-0.600000X0.725000X-0.600000X-0.725000X0.600000X-0.725000X0*%
%TD*%
%TA.AperFunction,ComponentPad*%
%ADD25RoundRect,0.250000X0.725000X-0.600000X0.725000X0.600000X-0.725000X0.600000X-0.725000X-0.600000X0*%
%TD*%
%TA.AperFunction,Conductor*%
%ADD26C,0.400000*%
%TD*%
%TA.AperFunction,Conductor*%
%ADD27C,0.800000*%
%TD*%
G04 APERTURE END LIST*
D10*
%TO.P,J7,1,Pin_1*%
%TO.N,Net-(J17-Pin_1)*%
X81000000Y-100500000D03*
D11*
%TO.P,J7,2,Pin_2*%
%TO.N,unconnected-(J7-Pin_2-Pad2)*%
X78460000Y-100500000D03*
%TO.P,J7,3,Pin_3*%
%TO.N,unconnected-(J7-Pin_3-Pad3)*%
X75920000Y-100500000D03*
%TO.P,J7,4,Pin_4*%
%TO.N,GND*%
X73380000Y-100500000D03*
%TD*%
D12*
%TO.P,J17,2,Pin_2*%
%TO.N,+5V*%
X66100000Y-104575000D03*
D13*
%TO.P,J17,1,Pin_1*%
%TO.N,Net-(J17-Pin_1)*%
X68600000Y-104575000D03*
%TD*%
D14*
%TO.P,J2,1,Pin_1*%
%TO.N,/ana2*%
X71975000Y-67482500D03*
D15*
%TO.P,J2,2,Pin_2*%
%TO.N,GND*%
X74475000Y-67482500D03*
%TO.P,J2,3,Pin_3*%
%TO.N,+5V*%
X76975000Y-67482500D03*
%TD*%
D14*
%TO.P,J3,1,Pin_1*%
%TO.N,/dig1*%
X60975000Y-67482500D03*
D15*
%TO.P,J3,2,Pin_2*%
%TO.N,GND*%
X63475000Y-67482500D03*
%TO.P,J3,3,Pin_3*%
%TO.N,+5V*%
X65975000Y-67482500D03*
%TD*%
D16*
%TO.P,J13,1,Pin_1*%
%TO.N,Net-(J13-Pin_1)*%
X42900000Y-66857500D03*
D17*
%TO.P,J13,2,Pin_2*%
%TO.N,GND*%
X42900000Y-64357500D03*
%TD*%
D10*
%TO.P,J9,1,Pin_1*%
%TO.N,/HV4*%
X84555000Y-81225000D03*
D11*
%TO.P,J9,2,Pin_2*%
%TO.N,/HV3*%
X82015000Y-81225000D03*
%TO.P,J9,3,Pin_3*%
%TO.N,GND*%
X79475000Y-81225000D03*
%TO.P,J9,4,Pin_4*%
%TO.N,+5V*%
X76935000Y-81225000D03*
%TO.P,J9,5,Pin_5*%
%TO.N,/HV2*%
X74395000Y-81225000D03*
%TO.P,J9,6,Pin_6*%
%TO.N,/HV1*%
X71855000Y-81225000D03*
%TD*%
D18*
%TO.P,J21,1,Pin_1*%
%TO.N,unconnected-(J21-Pin_1-Pad1)*%
X97525000Y-105150000D03*
%TD*%
D19*
%TO.P,J12,1,Pin_1*%
%TO.N,Net-(J12-Pin_1)*%
X94525000Y-84050000D03*
D12*
%TO.P,J12,2,Pin_2*%
%TO.N,GND*%
X97025000Y-84050000D03*
%TD*%
D18*
%TO.P,J23,1,Pin_1*%
%TO.N,unconnected-(J23-Pin_1-Pad1)*%
X37050000Y-105150000D03*
%TD*%
D20*
%TO.P,J18,1,Pin_1*%
%TO.N,GND*%
X96200000Y-91350000D03*
D21*
%TO.P,J18,2,Pin_2*%
%TO.N,+5V*%
X96200000Y-93850000D03*
%TO.P,J18,3,Pin_3*%
%TO.N,/IO21*%
X96200000Y-96350000D03*
%TO.P,J18,4,Pin_4*%
%TO.N,/IO22*%
X96200000Y-98850000D03*
%TD*%
D13*
%TO.P,J20,1,Pin_1*%
%TO.N,/IO5*%
X60100000Y-104575000D03*
D12*
%TO.P,J20,2,Pin_2*%
%TO.N,GND*%
X57600000Y-104575000D03*
%TD*%
D19*
%TO.P,J11,1,Pin_1*%
%TO.N,Net-(J11-Pin_1)*%
X94525000Y-77050000D03*
D12*
%TO.P,J11,2,Pin_2*%
%TO.N,GND*%
X97025000Y-77050000D03*
%TD*%
D14*
%TO.P,J4,1,Pin_1*%
%TO.N,/dig2*%
X49975000Y-67507500D03*
D15*
%TO.P,J4,2,Pin_2*%
%TO.N,GND*%
X52475000Y-67507500D03*
%TO.P,J4,3,Pin_3*%
%TO.N,+5V*%
X54975000Y-67507500D03*
%TD*%
D10*
%TO.P,J10,1,Pin_1*%
%TO.N,/LV4*%
X84675000Y-91175000D03*
D11*
%TO.P,J10,2,Pin_2*%
%TO.N,/LV3*%
X82135000Y-91175000D03*
%TO.P,J10,3,Pin_3*%
%TO.N,GND*%
X79595000Y-91175000D03*
%TO.P,J10,4,Pin_4*%
%TO.N,/LV*%
X77055000Y-91175000D03*
%TO.P,J10,5,Pin_5*%
%TO.N,/LV2*%
X74515000Y-91175000D03*
%TO.P,J10,6,Pin_6*%
%TO.N,/LV1*%
X71975000Y-91175000D03*
%TD*%
D19*
%TO.P,J8,1,Pin_1*%
%TO.N,Net-(J8-Pin_1)*%
X94525000Y-69975000D03*
D12*
%TO.P,J8,2,Pin_2*%
%TO.N,GND*%
X97025000Y-69975000D03*
%TD*%
D16*
%TO.P,J14,1,Pin_1*%
%TO.N,Net-(J14-Pin_1)*%
X38000000Y-75950000D03*
D17*
%TO.P,J14,2,Pin_2*%
%TO.N,GND*%
X38000000Y-73450000D03*
%TD*%
D13*
%TO.P,J16,1,Pin_1*%
%TO.N,Net-(J16-Pin_1)*%
X89075000Y-104900000D03*
D12*
%TO.P,J16,2,Pin_2*%
%TO.N,GND*%
X86575000Y-104900000D03*
%TD*%
D22*
%TO.P,U1,1,3V3*%
%TO.N,/LV*%
X90140000Y-71505000D03*
D23*
%TO.P,U1,2,EN*%
%TO.N,unconnected-(U1-EN-Pad2)*%
X87600000Y-71505000D03*
%TO.P,U1,3,SENSOR_VP*%
%TO.N,unconnected-(U1-SENSOR_VP-Pad3)*%
X85060000Y-71505000D03*
%TO.P,U1,4,SENSOR_VN*%
%TO.N,unconnected-(U1-SENSOR_VN-Pad4)*%
X82520000Y-71505000D03*
%TO.P,U1,5,IO34*%
%TO.N,/ana1*%
X79980000Y-71505000D03*
%TO.P,U1,6,IO35*%
%TO.N,/ana2*%
X77440000Y-71505000D03*
%TO.P,U1,7,IO32*%
%TO.N,/dig1*%
X74900000Y-71505000D03*
%TO.P,U1,8,IO33*%
%TO.N,/dig2*%
X72360000Y-71505000D03*
%TO.P,U1,9,IO25*%
%TO.N,/IO25*%
X69820000Y-71505000D03*
%TO.P,U1,10,IO26*%
%TO.N,/IO26*%
X67280000Y-71505000D03*
%TO.P,U1,11,IO27*%
%TO.N,/IO27*%
X64740000Y-71505000D03*
%TO.P,U1,12,IO14*%
%TO.N,/IO14*%
X62200000Y-71505000D03*
%TO.P,U1,13,IO12*%
%TO.N,/IO12*%
X59660000Y-71505000D03*
%TO.P,U1,14,GND1*%
%TO.N,unconnected-(U1-GND1-Pad14)*%
X57120000Y-71505000D03*
%TO.P,U1,15,IO13*%
%TO.N,/IO13*%
X54580000Y-71505000D03*
%TO.P,U1,16,SD2*%
%TO.N,unconnected-(U1-SD2-Pad16)*%
X52040000Y-71505000D03*
%TO.P,U1,17,SD3*%
%TO.N,unconnected-(U1-SD3-Pad17)*%
X49500000Y-71505000D03*
%TO.P,U1,18,CMD*%
%TO.N,unconnected-(U1-CMD-Pad18)*%
X46960000Y-71505000D03*
%TO.P,U1,19,EXT_5V*%
%TO.N,+5V*%
X44420000Y-71505000D03*
%TO.P,U1,20,CLK*%
%TO.N,unconnected-(U1-CLK-Pad20)*%
X44420000Y-96905000D03*
%TO.P,U1,21,SD0*%
%TO.N,unconnected-(U1-SD0-Pad21)*%
X46960000Y-96905000D03*
%TO.P,U1,22,SD1*%
%TO.N,unconnected-(U1-SD1-Pad22)*%
X49500000Y-96905000D03*
%TO.P,U1,23,IO15*%
%TO.N,/IO15*%
X52040000Y-96905000D03*
%TO.P,U1,24,IO2*%
%TO.N,/IO2*%
X54580000Y-96905000D03*
%TO.P,U1,25,IO0*%
%TO.N,unconnected-(U1-IO0-Pad25)*%
X57120000Y-96905000D03*
%TO.P,U1,26,IO4*%
%TO.N,/LV2*%
X59660000Y-96905000D03*
%TO.P,U1,27,IO16*%
%TO.N,/LV3*%
X62200000Y-96905000D03*
%TO.P,U1,28,IO17*%
%TO.N,/LV1*%
X64740000Y-96905000D03*
%TO.P,U1,29,IO5*%
%TO.N,/IO5*%
X67280000Y-96905000D03*
%TO.P,U1,30,IO18*%
%TO.N,unconnected-(U1-IO18-Pad30)*%
X69820000Y-96905000D03*
%TO.P,U1,31,IO19*%
%TO.N,unconnected-(U1-IO19-Pad31)*%
X72360000Y-96905000D03*
%TO.P,U1,32,GND2*%
%TO.N,unconnected-(U1-GND2-Pad32)*%
X74900000Y-96905000D03*
%TO.P,U1,33,IO21*%
%TO.N,/IO21*%
X77440000Y-96905000D03*
%TO.P,U1,34,RXD0*%
%TO.N,unconnected-(U1-RXD0-Pad34)*%
X79980000Y-96905000D03*
%TO.P,U1,35,TXD0*%
%TO.N,unconnected-(U1-TXD0-Pad35)*%
X82520000Y-96905000D03*
%TO.P,U1,36,IO22*%
%TO.N,/IO22*%
X85060000Y-96905000D03*
%TO.P,U1,37,IO23*%
%TO.N,/IO23*%
X87600000Y-96905000D03*
%TO.P,U1,38,GND3*%
%TO.N,GND*%
X90140000Y-96905000D03*
%TD*%
D24*
%TO.P,J5,1,Pin_1*%
%TO.N,+5V*%
X51525000Y-102642500D03*
D15*
%TO.P,J5,2,Pin_2*%
%TO.N,/IO2*%
X49025000Y-102642500D03*
%TO.P,J5,3,Pin_3*%
%TO.N,/IO15*%
X46525000Y-102642500D03*
%TO.P,J5,4,Pin_4*%
%TO.N,GND*%
X44025000Y-102642500D03*
%TD*%
D25*
%TO.P,J6,1,Pin_1*%
%TO.N,GND*%
X39007500Y-98550000D03*
D21*
%TO.P,J6,2,Pin_2*%
%TO.N,/B*%
X39007500Y-96050000D03*
%TO.P,J6,3,Pin_3*%
%TO.N,/A*%
X39007500Y-93550000D03*
%TO.P,J6,4,Pin_4*%
%TO.N,+5V*%
X39007500Y-91050000D03*
%TD*%
D16*
%TO.P,J15,1,Pin_1*%
%TO.N,Net-(J15-Pin_1)*%
X38000000Y-84375000D03*
D17*
%TO.P,J15,2,Pin_2*%
%TO.N,GND*%
X38000000Y-81875000D03*
%TD*%
D22*
%TO.P,ESP32,1,GND*%
%TO.N,GND*%
X48203500Y-82490000D03*
D23*
%TO.P,ESP32,2,A*%
%TO.N,/A*%
X48203500Y-85030000D03*
%TO.P,ESP32,3,B*%
%TO.N,/B*%
X48203500Y-87570000D03*
%TO.P,ESP32,4,VCC*%
%TO.N,+5V*%
X48203500Y-90110000D03*
%TO.P,ESP32,5,RO*%
%TO.N,/HV1*%
X89423500Y-90110000D03*
%TO.P,ESP32,6,RE*%
%TO.N,/HV2*%
X89423500Y-87570000D03*
%TO.P,ESP32,7,DE*%
X89423500Y-85030000D03*
%TO.P,ESP32,8,DI*%
%TO.N,/HV3*%
X89423500Y-82490000D03*
%TD*%
D14*
%TO.P,J1,1,Pin_1*%
%TO.N,/ana1*%
X82975000Y-67482500D03*
D15*
%TO.P,J1,2,Pin_2*%
%TO.N,GND*%
X85475000Y-67482500D03*
%TO.P,J1,3,Pin_3*%
%TO.N,+5V*%
X87975000Y-67482500D03*
%TD*%
D18*
%TO.P,J19,1,Pin_1*%
%TO.N,unconnected-(J19-Pin_1-Pad1)*%
X97475000Y-64375000D03*
%TD*%
%TO.P,J22,1,Pin_1*%
%TO.N,unconnected-(J22-Pin_1-Pad1)*%
X37050000Y-64350000D03*
%TD*%
D26*
%TO.N,+5V*%
X48750000Y-66000000D02*
X54275000Y-66000000D01*
X47750000Y-67000000D02*
X48750000Y-66000000D01*
X47750000Y-68650000D02*
X47750000Y-67000000D01*
X44795000Y-71605000D02*
X47750000Y-68650000D01*
X44420000Y-71605000D02*
X44795000Y-71605000D01*
X54275000Y-66000000D02*
X54975000Y-66700000D01*
X56407500Y-66075000D02*
X64567500Y-66075000D01*
X54975000Y-67507500D02*
X56407500Y-66075000D01*
X64567500Y-66075000D02*
X65975000Y-67482500D01*
X86492500Y-66000000D02*
X87975000Y-67482500D01*
X78457500Y-66000000D02*
X86492500Y-66000000D01*
X76975000Y-67482500D02*
X78457500Y-66000000D01*
X75492500Y-66000000D02*
X76975000Y-67482500D01*
X67457500Y-66000000D02*
X75492500Y-66000000D01*
X65975000Y-67482500D02*
X67457500Y-66000000D01*
X51525000Y-102642500D02*
X49950000Y-104217500D01*
X49950000Y-104217500D02*
X46925000Y-104217500D01*
X48339390Y-104217500D02*
X47210610Y-104217500D01*
X47238500Y-91075000D02*
X48203500Y-90110000D01*
X39032500Y-91075000D02*
X47238500Y-91075000D01*
D27*
X39082500Y-90975000D02*
X39007500Y-91050000D01*
X39007500Y-91050000D02*
X39032500Y-91075000D01*
D26*
%TO.N,/LV3*%
X82000000Y-93700000D02*
X82000000Y-91310000D01*
X80150000Y-95550000D02*
X82000000Y-93700000D01*
X62800000Y-95550000D02*
X80150000Y-95550000D01*
X62200000Y-96150000D02*
X62800000Y-95550000D01*
X82000000Y-91310000D02*
X82135000Y-91175000D01*
X62200000Y-96905000D02*
X62200000Y-96150000D01*
%TO.N,/LV2*%
X73175000Y-94800000D02*
X74515000Y-93460000D01*
X74515000Y-93460000D02*
X74515000Y-91175000D01*
X62025000Y-94800000D02*
X73175000Y-94800000D01*
X59920000Y-96905000D02*
X62025000Y-94800000D01*
X59660000Y-96905000D02*
X59920000Y-96905000D01*
%TO.N,+5V*%
X88800000Y-72425000D02*
X88800000Y-68307500D01*
X82950000Y-78275000D02*
X88800000Y-72425000D01*
X79125000Y-78275000D02*
X82950000Y-78275000D01*
X76935000Y-80465000D02*
X79125000Y-78275000D01*
X88800000Y-68307500D02*
X87975000Y-67482500D01*
X76935000Y-81225000D02*
X76935000Y-80465000D01*
X89157500Y-67482500D02*
X87975000Y-67482500D01*
X92675000Y-71000000D02*
X89157500Y-67482500D01*
X92675000Y-84476166D02*
X92675000Y-71000000D01*
X94375000Y-86176166D02*
X92675000Y-84476166D01*
X94375000Y-92025000D02*
X94375000Y-86176166D01*
X96200000Y-93850000D02*
X94375000Y-92025000D01*
%TO.N,/dig2*%
X71425000Y-69925000D02*
X52392500Y-69925000D01*
X52392500Y-69925000D02*
X50042500Y-67575000D01*
X72360000Y-70860000D02*
X71425000Y-69925000D01*
X72360000Y-71505000D02*
X72360000Y-70860000D01*
%TO.N,/dig1*%
X72576472Y-69200000D02*
X62692500Y-69200000D01*
X74316472Y-70940000D02*
X72576472Y-69200000D01*
X74335000Y-70940000D02*
X74316472Y-70940000D01*
X74900000Y-71505000D02*
X74335000Y-70940000D01*
X62692500Y-69200000D02*
X60975000Y-67482500D01*
D27*
%TO.N,Net-(J17-Pin_1)*%
X81000000Y-101150000D02*
X81000000Y-100500000D01*
X80075000Y-102075000D02*
X81000000Y-101150000D01*
X70150000Y-102075000D02*
X80075000Y-102075000D01*
X68600000Y-103625000D02*
X70150000Y-102075000D01*
X68600000Y-104575000D02*
X68600000Y-103625000D01*
%TO.N,+5V*%
X64400000Y-102875000D02*
X66100000Y-104575000D01*
X51757500Y-102875000D02*
X64400000Y-102875000D01*
X51525000Y-102642500D02*
X51757500Y-102875000D01*
D26*
X41950000Y-73975000D02*
X44420000Y-71505000D01*
X43142500Y-104217500D02*
X41950000Y-103025000D01*
X47125610Y-104217500D02*
X43142500Y-104217500D01*
X41950000Y-103025000D02*
X41950000Y-73975000D01*
%TO.N,/IO15*%
X52040000Y-96905000D02*
X52055000Y-96905000D01*
%TO.N,+5V*%
X76935000Y-81225000D02*
X76750000Y-81225000D01*
D27*
X44420000Y-71920000D02*
X44420000Y-71605000D01*
X54975000Y-66700000D02*
X54975000Y-67507500D01*
D26*
%TO.N,/ana1*%
X79980000Y-71505000D02*
X79980000Y-70477500D01*
X79980000Y-70477500D02*
X82975000Y-67482500D01*
%TO.N,/LV*%
X79450000Y-79150000D02*
X78225000Y-80375000D01*
X90140000Y-72510000D02*
X83500000Y-79150000D01*
X77055000Y-90670000D02*
X77055000Y-91175000D01*
X90140000Y-72085000D02*
X90140000Y-72510000D01*
X77500000Y-91175000D02*
X77055000Y-91175000D01*
X78225000Y-80375000D02*
X78225000Y-90005000D01*
X78225000Y-90005000D02*
X77055000Y-91175000D01*
X83500000Y-79150000D02*
X79450000Y-79150000D01*
%TO.N,/ana2*%
X76275000Y-70340000D02*
X74565000Y-70340000D01*
X74565000Y-70340000D02*
X71775000Y-67550000D01*
X77440000Y-71505000D02*
X76275000Y-70340000D01*
%TO.N,/B*%
X48178500Y-87570000D02*
X48178500Y-88028500D01*
%TD*%
M02*
