%TF.GenerationSoftware,KiCad,Pcbnew,8.0.4*%
%TF.CreationDate,2024-08-29T11:46:15+07:00*%
%TF.ProjectId,ESP32,45535033-322e-46b6-9963-61645f706362,rev?*%
%TF.SameCoordinates,Original*%
%TF.FileFunction,Copper,L2,Bot*%
%TF.FilePolarity,Positive*%
%FSLAX46Y46*%
G04 Gerber Fmt 4.6, Leading zero omitted, Abs format (unit mm)*
G04 Created by KiCad (PCBNEW 8.0.4) date 2024-08-29 11:46:15*
%MOMM*%
%LPD*%
G01*
G04 APERTURE LIST*
G04 Aperture macros list*
%AMRoundRect*
0 Rectangle with rounded corners*
0 $1 Rounding radius*
0 $2 $3 $4 $5 $6 $7 $8 $9 X,Y pos of 4 corners*
0 Add a 4 corners polygon primitive as box body*
4,1,4,$2,$3,$4,$5,$6,$7,$8,$9,$2,$3,0*
0 Add four circle primitives for the rounded corners*
1,1,$1+$1,$2,$3*
1,1,$1+$1,$4,$5*
1,1,$1+$1,$6,$7*
1,1,$1+$1,$8,$9*
0 Add four rect primitives between the rounded corners*
20,1,$1+$1,$2,$3,$4,$5,0*
20,1,$1+$1,$4,$5,$6,$7,0*
20,1,$1+$1,$6,$7,$8,$9,0*
20,1,$1+$1,$8,$9,$2,$3,0*%
G04 Aperture macros list end*
%TA.AperFunction,ComponentPad*%
%ADD10R,1.700000X1.700000*%
%TD*%
%TA.AperFunction,ComponentPad*%
%ADD11O,1.700000X1.700000*%
%TD*%
%TA.AperFunction,ComponentPad*%
%ADD12O,1.700000X2.000000*%
%TD*%
%TA.AperFunction,ComponentPad*%
%ADD13RoundRect,0.250000X0.600000X0.750000X-0.600000X0.750000X-0.600000X-0.750000X0.600000X-0.750000X0*%
%TD*%
%TA.AperFunction,ComponentPad*%
%ADD14RoundRect,0.250000X-0.600000X-0.725000X0.600000X-0.725000X0.600000X0.725000X-0.600000X0.725000X0*%
%TD*%
%TA.AperFunction,ComponentPad*%
%ADD15O,1.700000X1.950000*%
%TD*%
%TA.AperFunction,ComponentPad*%
%ADD16RoundRect,0.250000X0.750000X-0.600000X0.750000X0.600000X-0.750000X0.600000X-0.750000X-0.600000X0*%
%TD*%
%TA.AperFunction,ComponentPad*%
%ADD17O,2.000000X1.700000*%
%TD*%
%TA.AperFunction,ComponentPad*%
%ADD18C,4.400000*%
%TD*%
%TA.AperFunction,ComponentPad*%
%ADD19RoundRect,0.250000X-0.600000X-0.750000X0.600000X-0.750000X0.600000X0.750000X-0.600000X0.750000X0*%
%TD*%
%TA.AperFunction,ComponentPad*%
%ADD20RoundRect,0.250000X-0.725000X0.600000X-0.725000X-0.600000X0.725000X-0.600000X0.725000X0.600000X0*%
%TD*%
%TA.AperFunction,ComponentPad*%
%ADD21O,1.950000X1.700000*%
%TD*%
%TA.AperFunction,ComponentPad*%
%ADD22R,1.530000X1.530000*%
%TD*%
%TA.AperFunction,ComponentPad*%
%ADD23C,1.530000*%
%TD*%
%TA.AperFunction,ComponentPad*%
%ADD24RoundRect,0.250000X0.600000X0.725000X-0.600000X0.725000X-0.600000X-0.725000X0.600000X-0.725000X0*%
%TD*%
%TA.AperFunction,ComponentPad*%
%ADD25RoundRect,0.250000X0.725000X-0.600000X0.725000X0.600000X-0.725000X0.600000X-0.725000X-0.600000X0*%
%TD*%
%TA.AperFunction,SMDPad,CuDef*%
%ADD26RoundRect,0.250000X0.450000X-0.262500X0.450000X0.262500X-0.450000X0.262500X-0.450000X-0.262500X0*%
%TD*%
%TA.AperFunction,SMDPad,CuDef*%
%ADD27RoundRect,0.250000X-0.262500X-0.450000X0.262500X-0.450000X0.262500X0.450000X-0.262500X0.450000X0*%
%TD*%
%TA.AperFunction,Conductor*%
%ADD28C,0.400000*%
%TD*%
G04 APERTURE END LIST*
D10*
%TO.P,J7,1,Pin_1*%
%TO.N,Net-(J17-Pin_1)*%
X81000000Y-100500000D03*
D11*
%TO.P,J7,2,Pin_2*%
%TO.N,unconnected-(J7-Pin_2-Pad2)*%
X78460000Y-100500000D03*
%TO.P,J7,3,Pin_3*%
%TO.N,unconnected-(J7-Pin_3-Pad3)*%
X75920000Y-100500000D03*
%TO.P,J7,4,Pin_4*%
%TO.N,GND*%
X73380000Y-100500000D03*
%TD*%
D12*
%TO.P,J17,2,Pin_2*%
%TO.N,+5V*%
X66100000Y-104575000D03*
D13*
%TO.P,J17,1,Pin_1*%
%TO.N,Net-(J17-Pin_1)*%
X68600000Y-104575000D03*
%TD*%
D14*
%TO.P,J2,1,Pin_1*%
%TO.N,/ana2*%
X71975000Y-67482500D03*
D15*
%TO.P,J2,2,Pin_2*%
%TO.N,GND*%
X74475000Y-67482500D03*
%TO.P,J2,3,Pin_3*%
%TO.N,+5V*%
X76975000Y-67482500D03*
%TD*%
D14*
%TO.P,J3,1,Pin_1*%
%TO.N,/dig1*%
X60975000Y-67482500D03*
D15*
%TO.P,J3,2,Pin_2*%
%TO.N,GND*%
X63475000Y-67482500D03*
%TO.P,J3,3,Pin_3*%
%TO.N,+5V*%
X65975000Y-67482500D03*
%TD*%
D16*
%TO.P,J13,1,Pin_1*%
%TO.N,Net-(J13-Pin_1)*%
X42900000Y-66857500D03*
D17*
%TO.P,J13,2,Pin_2*%
%TO.N,GND*%
X42900000Y-64357500D03*
%TD*%
D10*
%TO.P,J9,1,Pin_1*%
%TO.N,/HV4*%
X84555000Y-81225000D03*
D11*
%TO.P,J9,2,Pin_2*%
%TO.N,/HV3*%
X82015000Y-81225000D03*
%TO.P,J9,3,Pin_3*%
%TO.N,GND*%
X79475000Y-81225000D03*
%TO.P,J9,4,Pin_4*%
%TO.N,+5V*%
X76935000Y-81225000D03*
%TO.P,J9,5,Pin_5*%
%TO.N,/HV2*%
X74395000Y-81225000D03*
%TO.P,J9,6,Pin_6*%
%TO.N,/HV1*%
X71855000Y-81225000D03*
%TD*%
D18*
%TO.P,J21,1,Pin_1*%
%TO.N,unconnected-(J21-Pin_1-Pad1)*%
X97525000Y-105150000D03*
%TD*%
D19*
%TO.P,J12,1,Pin_1*%
%TO.N,Net-(J12-Pin_1)*%
X94525000Y-84050000D03*
D12*
%TO.P,J12,2,Pin_2*%
%TO.N,GND*%
X97025000Y-84050000D03*
%TD*%
D18*
%TO.P,J23,1,Pin_1*%
%TO.N,unconnected-(J23-Pin_1-Pad1)*%
X37050000Y-105150000D03*
%TD*%
D20*
%TO.P,J18,1,Pin_1*%
%TO.N,GND*%
X96200000Y-91350000D03*
D21*
%TO.P,J18,2,Pin_2*%
%TO.N,+5V*%
X96200000Y-93850000D03*
%TO.P,J18,3,Pin_3*%
%TO.N,/IO21*%
X96200000Y-96350000D03*
%TO.P,J18,4,Pin_4*%
%TO.N,/IO22*%
X96200000Y-98850000D03*
%TD*%
D13*
%TO.P,J20,1,Pin_1*%
%TO.N,/IO5*%
X60100000Y-104575000D03*
D12*
%TO.P,J20,2,Pin_2*%
%TO.N,GND*%
X57600000Y-104575000D03*
%TD*%
D19*
%TO.P,J11,1,Pin_1*%
%TO.N,Net-(J11-Pin_1)*%
X94525000Y-77050000D03*
D12*
%TO.P,J11,2,Pin_2*%
%TO.N,GND*%
X97025000Y-77050000D03*
%TD*%
D14*
%TO.P,J4,1,Pin_1*%
%TO.N,/dig2*%
X49975000Y-67507500D03*
D15*
%TO.P,J4,2,Pin_2*%
%TO.N,GND*%
X52475000Y-67507500D03*
%TO.P,J4,3,Pin_3*%
%TO.N,+5V*%
X54975000Y-67507500D03*
%TD*%
D10*
%TO.P,J10,1,Pin_1*%
%TO.N,/LV4*%
X84675000Y-91175000D03*
D11*
%TO.P,J10,2,Pin_2*%
%TO.N,/LV3*%
X82135000Y-91175000D03*
%TO.P,J10,3,Pin_3*%
%TO.N,GND*%
X79595000Y-91175000D03*
%TO.P,J10,4,Pin_4*%
%TO.N,/LV*%
X77055000Y-91175000D03*
%TO.P,J10,5,Pin_5*%
%TO.N,/LV2*%
X74515000Y-91175000D03*
%TO.P,J10,6,Pin_6*%
%TO.N,/LV1*%
X71975000Y-91175000D03*
%TD*%
D19*
%TO.P,J8,1,Pin_1*%
%TO.N,Net-(J8-Pin_1)*%
X94525000Y-69975000D03*
D12*
%TO.P,J8,2,Pin_2*%
%TO.N,GND*%
X97025000Y-69975000D03*
%TD*%
D16*
%TO.P,J14,1,Pin_1*%
%TO.N,Net-(J14-Pin_1)*%
X38000000Y-75950000D03*
D17*
%TO.P,J14,2,Pin_2*%
%TO.N,GND*%
X38000000Y-73450000D03*
%TD*%
D13*
%TO.P,J16,1,Pin_1*%
%TO.N,Net-(J16-Pin_1)*%
X89075000Y-104900000D03*
D12*
%TO.P,J16,2,Pin_2*%
%TO.N,GND*%
X86575000Y-104900000D03*
%TD*%
D22*
%TO.P,U1,1,3V3*%
%TO.N,/LV*%
X90140000Y-71505000D03*
D23*
%TO.P,U1,2,EN*%
%TO.N,unconnected-(U1-EN-Pad2)*%
X87600000Y-71505000D03*
%TO.P,U1,3,SENSOR_VP*%
%TO.N,unconnected-(U1-SENSOR_VP-Pad3)*%
X85060000Y-71505000D03*
%TO.P,U1,4,SENSOR_VN*%
%TO.N,unconnected-(U1-SENSOR_VN-Pad4)*%
X82520000Y-71505000D03*
%TO.P,U1,5,IO34*%
%TO.N,/ana1*%
X79980000Y-71505000D03*
%TO.P,U1,6,IO35*%
%TO.N,/ana2*%
X77440000Y-71505000D03*
%TO.P,U1,7,IO32*%
%TO.N,/dig1*%
X74900000Y-71505000D03*
%TO.P,U1,8,IO33*%
%TO.N,/dig2*%
X72360000Y-71505000D03*
%TO.P,U1,9,IO25*%
%TO.N,/IO25*%
X69820000Y-71505000D03*
%TO.P,U1,10,IO26*%
%TO.N,/IO26*%
X67280000Y-71505000D03*
%TO.P,U1,11,IO27*%
%TO.N,/IO27*%
X64740000Y-71505000D03*
%TO.P,U1,12,IO14*%
%TO.N,/IO14*%
X62200000Y-71505000D03*
%TO.P,U1,13,IO12*%
%TO.N,/IO12*%
X59660000Y-71505000D03*
%TO.P,U1,14,GND1*%
%TO.N,unconnected-(U1-GND1-Pad14)*%
X57120000Y-71505000D03*
%TO.P,U1,15,IO13*%
%TO.N,/IO13*%
X54580000Y-71505000D03*
%TO.P,U1,16,SD2*%
%TO.N,unconnected-(U1-SD2-Pad16)*%
X52040000Y-71505000D03*
%TO.P,U1,17,SD3*%
%TO.N,unconnected-(U1-SD3-Pad17)*%
X49500000Y-71505000D03*
%TO.P,U1,18,CMD*%
%TO.N,unconnected-(U1-CMD-Pad18)*%
X46960000Y-71505000D03*
%TO.P,U1,19,EXT_5V*%
%TO.N,+5V*%
X44420000Y-71505000D03*
%TO.P,U1,20,CLK*%
%TO.N,unconnected-(U1-CLK-Pad20)*%
X44420000Y-96905000D03*
%TO.P,U1,21,SD0*%
%TO.N,unconnected-(U1-SD0-Pad21)*%
X46960000Y-96905000D03*
%TO.P,U1,22,SD1*%
%TO.N,unconnected-(U1-SD1-Pad22)*%
X49500000Y-96905000D03*
%TO.P,U1,23,IO15*%
%TO.N,/IO15*%
X52040000Y-96905000D03*
%TO.P,U1,24,IO2*%
%TO.N,/IO2*%
X54580000Y-96905000D03*
%TO.P,U1,25,IO0*%
%TO.N,unconnected-(U1-IO0-Pad25)*%
X57120000Y-96905000D03*
%TO.P,U1,26,IO4*%
%TO.N,/LV2*%
X59660000Y-96905000D03*
%TO.P,U1,27,IO16*%
%TO.N,/LV3*%
X62200000Y-96905000D03*
%TO.P,U1,28,IO17*%
%TO.N,/LV1*%
X64740000Y-96905000D03*
%TO.P,U1,29,IO5*%
%TO.N,/IO5*%
X67280000Y-96905000D03*
%TO.P,U1,30,IO18*%
%TO.N,unconnected-(U1-IO18-Pad30)*%
X69820000Y-96905000D03*
%TO.P,U1,31,IO19*%
%TO.N,unconnected-(U1-IO19-Pad31)*%
X72360000Y-96905000D03*
%TO.P,U1,32,GND2*%
%TO.N,unconnected-(U1-GND2-Pad32)*%
X74900000Y-96905000D03*
%TO.P,U1,33,IO21*%
%TO.N,/IO21*%
X77440000Y-96905000D03*
%TO.P,U1,34,RXD0*%
%TO.N,unconnected-(U1-RXD0-Pad34)*%
X79980000Y-96905000D03*
%TO.P,U1,35,TXD0*%
%TO.N,unconnected-(U1-TXD0-Pad35)*%
X82520000Y-96905000D03*
%TO.P,U1,36,IO22*%
%TO.N,/IO22*%
X85060000Y-96905000D03*
%TO.P,U1,37,IO23*%
%TO.N,/IO23*%
X87600000Y-96905000D03*
%TO.P,U1,38,GND3*%
%TO.N,GND*%
X90140000Y-96905000D03*
%TD*%
D24*
%TO.P,J5,1,Pin_1*%
%TO.N,+5V*%
X51525000Y-102642500D03*
D15*
%TO.P,J5,2,Pin_2*%
%TO.N,/IO2*%
X49025000Y-102642500D03*
%TO.P,J5,3,Pin_3*%
%TO.N,/IO15*%
X46525000Y-102642500D03*
%TO.P,J5,4,Pin_4*%
%TO.N,GND*%
X44025000Y-102642500D03*
%TD*%
D25*
%TO.P,J6,1,Pin_1*%
%TO.N,GND*%
X39007500Y-98550000D03*
D21*
%TO.P,J6,2,Pin_2*%
%TO.N,/B*%
X39007500Y-96050000D03*
%TO.P,J6,3,Pin_3*%
%TO.N,/A*%
X39007500Y-93550000D03*
%TO.P,J6,4,Pin_4*%
%TO.N,+5V*%
X39007500Y-91050000D03*
%TD*%
D16*
%TO.P,J15,1,Pin_1*%
%TO.N,Net-(J15-Pin_1)*%
X38000000Y-84375000D03*
D17*
%TO.P,J15,2,Pin_2*%
%TO.N,GND*%
X38000000Y-81875000D03*
%TD*%
D22*
%TO.P,ESP32,1,GND*%
%TO.N,GND*%
X48203500Y-82490000D03*
D23*
%TO.P,ESP32,2,A*%
%TO.N,/A*%
X48203500Y-85030000D03*
%TO.P,ESP32,3,B*%
%TO.N,/B*%
X48203500Y-87570000D03*
%TO.P,ESP32,4,VCC*%
%TO.N,+5V*%
X48203500Y-90110000D03*
%TO.P,ESP32,5,RO*%
%TO.N,/HV1*%
X89423500Y-90110000D03*
%TO.P,ESP32,6,RE*%
%TO.N,/HV2*%
X89423500Y-87570000D03*
%TO.P,ESP32,7,DE*%
X89423500Y-85030000D03*
%TO.P,ESP32,8,DI*%
%TO.N,/HV3*%
X89423500Y-82490000D03*
%TD*%
D14*
%TO.P,J1,1,Pin_1*%
%TO.N,/ana1*%
X82975000Y-67482500D03*
D15*
%TO.P,J1,2,Pin_2*%
%TO.N,GND*%
X85475000Y-67482500D03*
%TO.P,J1,3,Pin_3*%
%TO.N,+5V*%
X87975000Y-67482500D03*
%TD*%
D18*
%TO.P,J19,1,Pin_1*%
%TO.N,unconnected-(J19-Pin_1-Pad1)*%
X97475000Y-64375000D03*
%TD*%
%TO.P,J22,1,Pin_1*%
%TO.N,unconnected-(J22-Pin_1-Pad1)*%
X37050000Y-64350000D03*
%TD*%
D26*
%TO.P,R4,1*%
%TO.N,Net-(J11-Pin_1)*%
X68146428Y-76325000D03*
%TO.P,R4,2*%
%TO.N,/IO26*%
X68146428Y-74500000D03*
%TD*%
D27*
%TO.P,R9,1*%
%TO.N,Net-(J16-Pin_1)*%
X85900000Y-99800000D03*
%TO.P,R9,2*%
%TO.N,/IO23*%
X87725000Y-99800000D03*
%TD*%
D26*
%TO.P,R2,1*%
%TO.N,GND*%
X73732142Y-76325000D03*
%TO.P,R2,2*%
%TO.N,/ana2*%
X73732142Y-74500000D03*
%TD*%
%TO.P,R1,1*%
%TO.N,GND*%
X76525000Y-76325000D03*
%TO.P,R1,2*%
%TO.N,/ana1*%
X76525000Y-74500000D03*
%TD*%
%TO.P,R5,1*%
%TO.N,Net-(J12-Pin_1)*%
X65353571Y-76325000D03*
%TO.P,R5,2*%
%TO.N,/IO27*%
X65353571Y-74500000D03*
%TD*%
%TO.P,R6,1*%
%TO.N,Net-(J13-Pin_1)*%
X62560714Y-76325000D03*
%TO.P,R6,2*%
%TO.N,/IO14*%
X62560714Y-74500000D03*
%TD*%
%TO.P,R3,1*%
%TO.N,Net-(J8-Pin_1)*%
X70939285Y-76325000D03*
%TO.P,R3,2*%
%TO.N,/IO25*%
X70939285Y-74500000D03*
%TD*%
%TO.P,R7,1*%
%TO.N,Net-(J14-Pin_1)*%
X56975000Y-76325000D03*
%TO.P,R7,2*%
%TO.N,/IO13*%
X56975000Y-74500000D03*
%TD*%
%TO.P,R8,1*%
%TO.N,Net-(J15-Pin_1)*%
X59767857Y-76325000D03*
%TO.P,R8,2*%
%TO.N,/IO12*%
X59767857Y-74500000D03*
%TD*%
D28*
%TO.N,Net-(J15-Pin_1)*%
X49200000Y-83800000D02*
X38575000Y-83800000D01*
X38575000Y-83800000D02*
X38000000Y-84375000D01*
X50325000Y-77550000D02*
X49650000Y-78225000D01*
X49650000Y-78225000D02*
X49650000Y-83350000D01*
X58542857Y-77550000D02*
X50325000Y-77550000D01*
X59767857Y-76325000D02*
X58542857Y-77550000D01*
X49650000Y-83350000D02*
X49200000Y-83800000D01*
%TO.N,/LV1*%
X66550000Y-95550000D02*
X70725000Y-95550000D01*
X65195000Y-96905000D02*
X66550000Y-95550000D01*
X71975000Y-94300000D02*
X71975000Y-91175000D01*
X64740000Y-96905000D02*
X65195000Y-96905000D01*
X70725000Y-95550000D02*
X71975000Y-94300000D01*
%TO.N,GND*%
X79575000Y-94650000D02*
X79225000Y-95000000D01*
X76125000Y-95600000D02*
X76125000Y-97755000D01*
X76125000Y-97755000D02*
X73380000Y-100500000D01*
X79575000Y-91195000D02*
X79575000Y-94650000D01*
X76725000Y-95000000D02*
X76125000Y-95600000D01*
X79595000Y-91175000D02*
X79575000Y-91195000D01*
X79225000Y-95000000D02*
X76725000Y-95000000D01*
X73625000Y-100255000D02*
X73380000Y-100500000D01*
%TO.N,Net-(J16-Pin_1)*%
X85850000Y-99850000D02*
X85850000Y-101975000D01*
X88775000Y-104900000D02*
X89075000Y-104900000D01*
X85900000Y-99800000D02*
X85850000Y-99850000D01*
X85850000Y-101975000D02*
X88775000Y-104900000D01*
%TO.N,GND*%
X84650000Y-98775000D02*
X83825000Y-98775000D01*
X84650000Y-102975000D02*
X84650000Y-98775000D01*
X86575000Y-104900000D02*
X84650000Y-102975000D01*
X86350000Y-96275000D02*
X86350000Y-97525000D01*
X85100000Y-98775000D02*
X83825000Y-98775000D01*
X86950000Y-95675000D02*
X86350000Y-96275000D01*
X86350000Y-97525000D02*
X85100000Y-98775000D01*
X89425000Y-95675000D02*
X86950000Y-95675000D01*
X90140000Y-96905000D02*
X90140000Y-96390000D01*
X90140000Y-96390000D02*
X89425000Y-95675000D01*
%TO.N,/IO21*%
X95125000Y-96350000D02*
X96200000Y-96350000D01*
X93200000Y-94425000D02*
X95125000Y-96350000D01*
X85175000Y-94425000D02*
X93200000Y-94425000D01*
X78670000Y-95675000D02*
X83925000Y-95675000D01*
X77440000Y-96905000D02*
X78670000Y-95675000D01*
X83925000Y-95675000D02*
X85175000Y-94425000D01*
%TO.N,/IO22*%
X86050000Y-95075000D02*
X92425000Y-95075000D01*
X85060000Y-96065000D02*
X86050000Y-95075000D01*
X85060000Y-96905000D02*
X85060000Y-96065000D01*
X92425000Y-95075000D02*
X96200000Y-98850000D01*
%TO.N,GND*%
X96975000Y-90575000D02*
X96200000Y-91350000D01*
X96975000Y-84100000D02*
X96975000Y-90575000D01*
X97025000Y-84050000D02*
X96975000Y-84100000D01*
X95425000Y-85650000D02*
X97025000Y-84050000D01*
X93600000Y-85650000D02*
X95425000Y-85650000D01*
X93025000Y-80675000D02*
X93025000Y-85075000D01*
X81250000Y-79450000D02*
X91800000Y-79450000D01*
X91800000Y-79450000D02*
X93025000Y-80675000D01*
X93025000Y-85075000D02*
X93600000Y-85650000D01*
X79475000Y-81225000D02*
X81250000Y-79450000D01*
X95525000Y-90675000D02*
X96200000Y-91350000D01*
X97025000Y-76575000D02*
X97025000Y-77050000D01*
X95950000Y-75500000D02*
X97025000Y-76575000D01*
X92950000Y-75500000D02*
X95950000Y-75500000D01*
X92125000Y-76325000D02*
X92950000Y-75500000D01*
X73732142Y-76325000D02*
X92125000Y-76325000D01*
%TO.N,/IO25*%
X70875000Y-74435715D02*
X70939285Y-74500000D01*
X70875000Y-72560000D02*
X70875000Y-74435715D01*
X69820000Y-71505000D02*
X70875000Y-72560000D01*
%TO.N,/IO26*%
X68100000Y-74453572D02*
X68146428Y-74500000D01*
X68100000Y-72325000D02*
X68100000Y-74453572D01*
X67280000Y-71505000D02*
X68100000Y-72325000D01*
%TO.N,/IO27*%
X65325000Y-74471429D02*
X65325000Y-72090000D01*
X65353571Y-74500000D02*
X65325000Y-74471429D01*
X65325000Y-72090000D02*
X64740000Y-71505000D01*
%TO.N,Net-(J11-Pin_1)*%
X93825000Y-77750000D02*
X94525000Y-77050000D01*
X69300000Y-77750000D02*
X93825000Y-77750000D01*
X68146428Y-76596428D02*
X69300000Y-77750000D01*
X68146428Y-76325000D02*
X68146428Y-76596428D01*
%TO.N,Net-(J12-Pin_1)*%
X94325000Y-83850000D02*
X94525000Y-84050000D01*
X92350000Y-78600000D02*
X94325000Y-80575000D01*
X65353571Y-76403571D02*
X67550000Y-78600000D01*
X94325000Y-80575000D02*
X94325000Y-83850000D01*
X65353571Y-76325000D02*
X65353571Y-76403571D01*
X67550000Y-78600000D02*
X92350000Y-78600000D01*
%TO.N,Net-(J14-Pin_1)*%
X56950000Y-76300000D02*
X38350000Y-76300000D01*
X38350000Y-76300000D02*
X38000000Y-75950000D01*
X56975000Y-76325000D02*
X56950000Y-76300000D01*
%TO.N,GND*%
X48168500Y-82525000D02*
X48203500Y-82490000D01*
X38650000Y-82525000D02*
X48168500Y-82525000D01*
X38000000Y-81875000D02*
X38650000Y-82525000D01*
X42917500Y-102642500D02*
X44025000Y-102642500D01*
X39007500Y-98550000D02*
X39007500Y-98732500D01*
X39007500Y-98732500D02*
X42917500Y-102642500D01*
X45575000Y-104725000D02*
X44025000Y-103175000D01*
X44025000Y-103175000D02*
X44025000Y-102642500D01*
X57450000Y-104725000D02*
X45575000Y-104725000D01*
X57600000Y-104575000D02*
X57450000Y-104725000D01*
%TO.N,/IO5*%
X67280000Y-97945000D02*
X67280000Y-96905000D01*
X60650000Y-104575000D02*
X67280000Y-97945000D01*
X60100000Y-104575000D02*
X60650000Y-104575000D01*
%TO.N,GND*%
X57600000Y-104575000D02*
X57600000Y-104975000D01*
X75105000Y-98775000D02*
X73380000Y-100500000D01*
X83825000Y-98775000D02*
X75105000Y-98775000D01*
%TO.N,Net-(J8-Pin_1)*%
X71851785Y-75412500D02*
X70939285Y-76325000D01*
X88787500Y-75412500D02*
X71851785Y-75412500D01*
X94225000Y-69975000D02*
X88787500Y-75412500D01*
X94525000Y-69975000D02*
X94225000Y-69975000D01*
%TO.N,/HV3*%
X82825000Y-83975000D02*
X82015000Y-83165000D01*
X82015000Y-83165000D02*
X82015000Y-81225000D01*
X88575000Y-83975000D02*
X82825000Y-83975000D01*
X89423500Y-82490000D02*
X89423500Y-83126500D01*
X89423500Y-83126500D02*
X88575000Y-83975000D01*
%TO.N,/HV2*%
X89143500Y-84750000D02*
X89423500Y-85030000D01*
X74395000Y-81920000D02*
X77225000Y-84750000D01*
X77225000Y-84750000D02*
X89143500Y-84750000D01*
X74395000Y-81225000D02*
X74395000Y-81920000D01*
%TO.N,/HV1*%
X88660000Y-90110000D02*
X89423500Y-90110000D01*
X88100000Y-86525000D02*
X88100000Y-89550000D01*
X88100000Y-89550000D02*
X88660000Y-90110000D01*
X76800000Y-85525000D02*
X87100000Y-85525000D01*
X87100000Y-85525000D02*
X88100000Y-86525000D01*
X71855000Y-81225000D02*
X72500000Y-81225000D01*
X72500000Y-81225000D02*
X76800000Y-85525000D01*
%TO.N,/IO15*%
X52040000Y-97435000D02*
X46832500Y-102642500D01*
X52040000Y-96905000D02*
X52040000Y-97435000D01*
X46832500Y-102642500D02*
X46525000Y-102642500D01*
X52060000Y-96990000D02*
X52125000Y-96990000D01*
%TO.N,/ana1*%
X77000000Y-74500000D02*
X76525000Y-74500000D01*
X79980000Y-71520000D02*
X77000000Y-74500000D01*
X79980000Y-71505000D02*
X79980000Y-71520000D01*
%TO.N,/IO14*%
X62400000Y-74339286D02*
X62560714Y-74500000D01*
X62200000Y-71505000D02*
X62400000Y-71705000D01*
X62400000Y-71705000D02*
X62400000Y-74339286D01*
%TO.N,/IO2*%
X49025000Y-102642500D02*
X49025000Y-102075000D01*
X54195000Y-96905000D02*
X54580000Y-96905000D01*
X54320000Y-96905000D02*
X54580000Y-96905000D01*
X49025000Y-102075000D02*
X54195000Y-96905000D01*
%TO.N,GND*%
X87000000Y-89925000D02*
X88425000Y-91350000D01*
X64850000Y-68857500D02*
X63475000Y-67482500D01*
X95325000Y-68275000D02*
X97025000Y-69975000D01*
X41150000Y-65875000D02*
X41150000Y-72025000D01*
X37632500Y-86682500D02*
X37632500Y-97175000D01*
X42667500Y-64357500D02*
X41150000Y-65875000D01*
X75850000Y-68857500D02*
X84100000Y-68857500D01*
X42900000Y-64357500D02*
X44567500Y-66025000D01*
X79595000Y-91175000D02*
X80845000Y-89925000D01*
X80845000Y-89925000D02*
X87000000Y-89925000D01*
X85475000Y-67482500D02*
X86967500Y-68975000D01*
X88425000Y-91350000D02*
X96200000Y-91350000D01*
X97025000Y-77050000D02*
X97025000Y-84050000D01*
X37632500Y-97175000D02*
X39007500Y-98550000D01*
X39725000Y-73450000D02*
X38000000Y-73450000D01*
X38000000Y-73450000D02*
X37575000Y-73450000D01*
X84100000Y-68857500D02*
X85475000Y-67482500D01*
X79595000Y-91175000D02*
X79595000Y-91255000D01*
X73100000Y-68857500D02*
X64850000Y-68857500D01*
X74475000Y-67482500D02*
X75850000Y-68857500D01*
X50992500Y-66025000D02*
X52475000Y-67507500D01*
X53850000Y-68882500D02*
X62075000Y-68882500D01*
X36550000Y-74475000D02*
X36550000Y-80425000D01*
X44567500Y-66025000D02*
X50992500Y-66025000D01*
X42900000Y-64357500D02*
X42667500Y-64357500D01*
X86967500Y-68975000D02*
X89575000Y-68975000D01*
X37625000Y-81875000D02*
X36450000Y-83050000D01*
X41150000Y-72025000D02*
X39725000Y-73450000D01*
X62075000Y-68882500D02*
X63475000Y-67482500D01*
X52475000Y-67507500D02*
X53850000Y-68882500D01*
X37575000Y-73450000D02*
X36550000Y-74475000D01*
X36550000Y-80425000D02*
X38000000Y-81875000D01*
X74475000Y-67482500D02*
X73100000Y-68857500D01*
X97025000Y-69975000D02*
X97025000Y-77050000D01*
X79595000Y-91175000D02*
X78925000Y-91175000D01*
X38000000Y-81875000D02*
X37625000Y-81875000D01*
X36450000Y-85500000D02*
X37632500Y-86682500D01*
X90275000Y-68275000D02*
X95325000Y-68275000D01*
X36450000Y-83050000D02*
X36450000Y-85500000D01*
X89575000Y-68975000D02*
X90275000Y-68275000D01*
%TO.N,/IO13*%
X54580000Y-72055000D02*
X56975000Y-74450000D01*
X56975000Y-74450000D02*
X56975000Y-74500000D01*
X54580000Y-71505000D02*
X54580000Y-72055000D01*
%TO.N,/IO21*%
X77450000Y-96915000D02*
X77440000Y-96905000D01*
%TO.N,/IO12*%
X59660000Y-71505000D02*
X59725000Y-71570000D01*
X59725000Y-71570000D02*
X59725000Y-74457143D01*
X59725000Y-74457143D02*
X59767857Y-74500000D01*
%TO.N,/ana2*%
X77440000Y-72635000D02*
X76700000Y-73375000D01*
X73732142Y-74292858D02*
X73732142Y-74500000D01*
X76700000Y-73375000D02*
X74650000Y-73375000D01*
X74650000Y-73375000D02*
X73732142Y-74292858D01*
X77440000Y-71505000D02*
X77440000Y-72635000D01*
%TO.N,/LV1*%
X71975000Y-90900000D02*
X71975000Y-91175000D01*
X64740000Y-96485000D02*
X64740000Y-96905000D01*
%TO.N,/IO23*%
X87725000Y-97030000D02*
X87600000Y-96905000D01*
X87725000Y-99800000D02*
X87725000Y-97030000D01*
%TO.N,/HV2*%
X89423500Y-87570000D02*
X89423500Y-85030000D01*
%TO.N,/B*%
X47080000Y-87570000D02*
X39007500Y-95642500D01*
X48203500Y-87570000D02*
X47080000Y-87570000D01*
X39007500Y-95642500D02*
X39007500Y-96050000D01*
%TO.N,/A*%
X48203500Y-85096500D02*
X39750000Y-93550000D01*
X39750000Y-93550000D02*
X39007500Y-93550000D01*
X48203500Y-85030000D02*
X48203500Y-85096500D01*
%TO.N,/HV1*%
X89423500Y-90110000D02*
X89163500Y-89850000D01*
%TO.N,Net-(J13-Pin_1)*%
X55875000Y-75025000D02*
X53275000Y-72425000D01*
X53275000Y-72425000D02*
X53275000Y-70325000D01*
X55875000Y-75038666D02*
X55875000Y-75025000D01*
X56248834Y-75412500D02*
X55875000Y-75038666D01*
X62560714Y-76325000D02*
X61648214Y-75412500D01*
X45267500Y-69225000D02*
X42900000Y-66857500D01*
X61648214Y-75412500D02*
X56248834Y-75412500D01*
X53275000Y-70325000D02*
X52175000Y-69225000D01*
X52175000Y-69225000D02*
X45267500Y-69225000D01*
%TD*%
M02*
