%TF.GenerationSoftware,KiCad,Pcbnew,8.0.4*%
%TF.CreationDate,2024-08-29T11:46:16+07:00*%
%TF.ProjectId,ESP32,45535033-322e-46b6-9963-61645f706362,rev?*%
%TF.SameCoordinates,Original*%
%TF.FileFunction,Legend,Top*%
%TF.FilePolarity,Positive*%
%FSLAX46Y46*%
G04 Gerber Fmt 4.6, Leading zero omitted, Abs format (unit mm)*
G04 Created by KiCad (PCBNEW 8.0.4) date 2024-08-29 11:46:16*
%MOMM*%
%LPD*%
G01*
G04 APERTURE LIST*
%ADD10C,0.100000*%
%ADD11C,0.250000*%
%ADD12C,0.150000*%
%ADD13C,0.120000*%
%ADD14C,0.127000*%
%ADD15C,0.200000*%
G04 APERTURE END LIST*
D10*
X34325000Y-61625000D02*
X34325000Y-107875000D01*
X100250000Y-61625000D02*
X100250000Y-107875000D01*
X34325000Y-107875000D02*
X100250000Y-107875000D01*
X34325000Y-61625000D02*
X100250000Y-61625000D01*
D11*
X89687238Y-95148622D02*
X89639619Y-95243860D01*
X89639619Y-95243860D02*
X89639619Y-95386717D01*
X89639619Y-95386717D02*
X89687238Y-95529574D01*
X89687238Y-95529574D02*
X89782476Y-95624812D01*
X89782476Y-95624812D02*
X89877714Y-95672431D01*
X89877714Y-95672431D02*
X90068190Y-95720050D01*
X90068190Y-95720050D02*
X90211047Y-95720050D01*
X90211047Y-95720050D02*
X90401523Y-95672431D01*
X90401523Y-95672431D02*
X90496761Y-95624812D01*
X90496761Y-95624812D02*
X90592000Y-95529574D01*
X90592000Y-95529574D02*
X90639619Y-95386717D01*
X90639619Y-95386717D02*
X90639619Y-95291479D01*
X90639619Y-95291479D02*
X90592000Y-95148622D01*
X90592000Y-95148622D02*
X90544380Y-95101003D01*
X90544380Y-95101003D02*
X90211047Y-95101003D01*
X90211047Y-95101003D02*
X90211047Y-95291479D01*
X90639619Y-94672431D02*
X89639619Y-94672431D01*
X89639619Y-94672431D02*
X90639619Y-94101003D01*
X90639619Y-94101003D02*
X89639619Y-94101003D01*
X90639619Y-93624812D02*
X89639619Y-93624812D01*
X89639619Y-93624812D02*
X89639619Y-93386717D01*
X89639619Y-93386717D02*
X89687238Y-93243860D01*
X89687238Y-93243860D02*
X89782476Y-93148622D01*
X89782476Y-93148622D02*
X89877714Y-93101003D01*
X89877714Y-93101003D02*
X90068190Y-93053384D01*
X90068190Y-93053384D02*
X90211047Y-93053384D01*
X90211047Y-93053384D02*
X90401523Y-93101003D01*
X90401523Y-93101003D02*
X90496761Y-93148622D01*
X90496761Y-93148622D02*
X90592000Y-93243860D01*
X90592000Y-93243860D02*
X90639619Y-93386717D01*
X90639619Y-93386717D02*
X90639619Y-93624812D01*
X45260380Y-72784711D02*
X44260380Y-73118044D01*
X44260380Y-73118044D02*
X45260380Y-73451377D01*
X44260380Y-73784711D02*
X45260380Y-73784711D01*
X45260380Y-73784711D02*
X45260380Y-74022806D01*
X45260380Y-74022806D02*
X45212761Y-74165663D01*
X45212761Y-74165663D02*
X45117523Y-74260901D01*
X45117523Y-74260901D02*
X45022285Y-74308520D01*
X45022285Y-74308520D02*
X44831809Y-74356139D01*
X44831809Y-74356139D02*
X44688952Y-74356139D01*
X44688952Y-74356139D02*
X44498476Y-74308520D01*
X44498476Y-74308520D02*
X44403238Y-74260901D01*
X44403238Y-74260901D02*
X44308000Y-74165663D01*
X44308000Y-74165663D02*
X44260380Y-74022806D01*
X44260380Y-74022806D02*
X44260380Y-73784711D01*
X44260380Y-74784711D02*
X45260380Y-74784711D01*
X45260380Y-74784711D02*
X45260380Y-75022806D01*
X45260380Y-75022806D02*
X45212761Y-75165663D01*
X45212761Y-75165663D02*
X45117523Y-75260901D01*
X45117523Y-75260901D02*
X45022285Y-75308520D01*
X45022285Y-75308520D02*
X44831809Y-75356139D01*
X44831809Y-75356139D02*
X44688952Y-75356139D01*
X44688952Y-75356139D02*
X44498476Y-75308520D01*
X44498476Y-75308520D02*
X44403238Y-75260901D01*
X44403238Y-75260901D02*
X44308000Y-75165663D01*
X44308000Y-75165663D02*
X44260380Y-75022806D01*
X44260380Y-75022806D02*
X44260380Y-74784711D01*
D12*
X82784819Y-100833333D02*
X83499104Y-100833333D01*
X83499104Y-100833333D02*
X83641961Y-100880952D01*
X83641961Y-100880952D02*
X83737200Y-100976190D01*
X83737200Y-100976190D02*
X83784819Y-101119047D01*
X83784819Y-101119047D02*
X83784819Y-101214285D01*
X82784819Y-100452380D02*
X82784819Y-99785714D01*
X82784819Y-99785714D02*
X83784819Y-100214285D01*
X75071428Y-104304819D02*
X75642856Y-104304819D01*
X75357142Y-105304819D02*
X75357142Y-104304819D01*
X75880952Y-104638152D02*
X76119047Y-105304819D01*
X76357142Y-104638152D02*
X76119047Y-105304819D01*
X76119047Y-105304819D02*
X76023809Y-105542914D01*
X76023809Y-105542914D02*
X75976190Y-105590533D01*
X75976190Y-105590533D02*
X75880952Y-105638152D01*
X76738095Y-104638152D02*
X76738095Y-105638152D01*
X76738095Y-104685771D02*
X76833333Y-104638152D01*
X76833333Y-104638152D02*
X77023809Y-104638152D01*
X77023809Y-104638152D02*
X77119047Y-104685771D01*
X77119047Y-104685771D02*
X77166666Y-104733390D01*
X77166666Y-104733390D02*
X77214285Y-104828628D01*
X77214285Y-104828628D02*
X77214285Y-105114342D01*
X77214285Y-105114342D02*
X77166666Y-105209580D01*
X77166666Y-105209580D02*
X77119047Y-105257200D01*
X77119047Y-105257200D02*
X77023809Y-105304819D01*
X77023809Y-105304819D02*
X76833333Y-105304819D01*
X76833333Y-105304819D02*
X76738095Y-105257200D01*
X78023809Y-105257200D02*
X77928571Y-105304819D01*
X77928571Y-105304819D02*
X77738095Y-105304819D01*
X77738095Y-105304819D02*
X77642857Y-105257200D01*
X77642857Y-105257200D02*
X77595238Y-105161961D01*
X77595238Y-105161961D02*
X77595238Y-104781009D01*
X77595238Y-104781009D02*
X77642857Y-104685771D01*
X77642857Y-104685771D02*
X77738095Y-104638152D01*
X77738095Y-104638152D02*
X77928571Y-104638152D01*
X77928571Y-104638152D02*
X78023809Y-104685771D01*
X78023809Y-104685771D02*
X78071428Y-104781009D01*
X78071428Y-104781009D02*
X78071428Y-104876247D01*
X78071428Y-104876247D02*
X77595238Y-104971485D01*
X79833333Y-105209580D02*
X79785714Y-105257200D01*
X79785714Y-105257200D02*
X79642857Y-105304819D01*
X79642857Y-105304819D02*
X79547619Y-105304819D01*
X79547619Y-105304819D02*
X79404762Y-105257200D01*
X79404762Y-105257200D02*
X79309524Y-105161961D01*
X79309524Y-105161961D02*
X79261905Y-105066723D01*
X79261905Y-105066723D02*
X79214286Y-104876247D01*
X79214286Y-104876247D02*
X79214286Y-104733390D01*
X79214286Y-104733390D02*
X79261905Y-104542914D01*
X79261905Y-104542914D02*
X79309524Y-104447676D01*
X79309524Y-104447676D02*
X79404762Y-104352438D01*
X79404762Y-104352438D02*
X79547619Y-104304819D01*
X79547619Y-104304819D02*
X79642857Y-104304819D01*
X79642857Y-104304819D02*
X79785714Y-104352438D01*
X79785714Y-104352438D02*
X79833333Y-104400057D01*
X66692857Y-100632200D02*
X66835714Y-100679819D01*
X66835714Y-100679819D02*
X67073809Y-100679819D01*
X67073809Y-100679819D02*
X67169047Y-100632200D01*
X67169047Y-100632200D02*
X67216666Y-100584580D01*
X67216666Y-100584580D02*
X67264285Y-100489342D01*
X67264285Y-100489342D02*
X67264285Y-100394104D01*
X67264285Y-100394104D02*
X67216666Y-100298866D01*
X67216666Y-100298866D02*
X67169047Y-100251247D01*
X67169047Y-100251247D02*
X67073809Y-100203628D01*
X67073809Y-100203628D02*
X66883333Y-100156009D01*
X66883333Y-100156009D02*
X66788095Y-100108390D01*
X66788095Y-100108390D02*
X66740476Y-100060771D01*
X66740476Y-100060771D02*
X66692857Y-99965533D01*
X66692857Y-99965533D02*
X66692857Y-99870295D01*
X66692857Y-99870295D02*
X66740476Y-99775057D01*
X66740476Y-99775057D02*
X66788095Y-99727438D01*
X66788095Y-99727438D02*
X66883333Y-99679819D01*
X66883333Y-99679819D02*
X67121428Y-99679819D01*
X67121428Y-99679819D02*
X67264285Y-99727438D01*
X67597619Y-99679819D02*
X67835714Y-100679819D01*
X67835714Y-100679819D02*
X68026190Y-99965533D01*
X68026190Y-99965533D02*
X68216666Y-100679819D01*
X68216666Y-100679819D02*
X68454762Y-99679819D01*
X73184524Y-69819104D02*
X73660714Y-69819104D01*
X73089286Y-70104819D02*
X73422619Y-69104819D01*
X73422619Y-69104819D02*
X73755952Y-70104819D01*
X74089286Y-70104819D02*
X74089286Y-69104819D01*
X74089286Y-69104819D02*
X74660714Y-70104819D01*
X74660714Y-70104819D02*
X74660714Y-69104819D01*
X75089286Y-69819104D02*
X75565476Y-69819104D01*
X74994048Y-70104819D02*
X75327381Y-69104819D01*
X75327381Y-69104819D02*
X75660714Y-70104819D01*
X61800000Y-70129819D02*
X61800000Y-69129819D01*
X61800000Y-69129819D02*
X62038095Y-69129819D01*
X62038095Y-69129819D02*
X62180952Y-69177438D01*
X62180952Y-69177438D02*
X62276190Y-69272676D01*
X62276190Y-69272676D02*
X62323809Y-69367914D01*
X62323809Y-69367914D02*
X62371428Y-69558390D01*
X62371428Y-69558390D02*
X62371428Y-69701247D01*
X62371428Y-69701247D02*
X62323809Y-69891723D01*
X62323809Y-69891723D02*
X62276190Y-69986961D01*
X62276190Y-69986961D02*
X62180952Y-70082200D01*
X62180952Y-70082200D02*
X62038095Y-70129819D01*
X62038095Y-70129819D02*
X61800000Y-70129819D01*
X62800000Y-70129819D02*
X62800000Y-69129819D01*
X63799999Y-69177438D02*
X63704761Y-69129819D01*
X63704761Y-69129819D02*
X63561904Y-69129819D01*
X63561904Y-69129819D02*
X63419047Y-69177438D01*
X63419047Y-69177438D02*
X63323809Y-69272676D01*
X63323809Y-69272676D02*
X63276190Y-69367914D01*
X63276190Y-69367914D02*
X63228571Y-69558390D01*
X63228571Y-69558390D02*
X63228571Y-69701247D01*
X63228571Y-69701247D02*
X63276190Y-69891723D01*
X63276190Y-69891723D02*
X63323809Y-69986961D01*
X63323809Y-69986961D02*
X63419047Y-70082200D01*
X63419047Y-70082200D02*
X63561904Y-70129819D01*
X63561904Y-70129819D02*
X63657142Y-70129819D01*
X63657142Y-70129819D02*
X63799999Y-70082200D01*
X63799999Y-70082200D02*
X63847618Y-70034580D01*
X63847618Y-70034580D02*
X63847618Y-69701247D01*
X63847618Y-69701247D02*
X63657142Y-69701247D01*
X42182142Y-70629819D02*
X41705952Y-70629819D01*
X41705952Y-70629819D02*
X41705952Y-69629819D01*
X42515476Y-70106009D02*
X42848809Y-70106009D01*
X42991666Y-70629819D02*
X42515476Y-70629819D01*
X42515476Y-70629819D02*
X42515476Y-69629819D01*
X42515476Y-69629819D02*
X42991666Y-69629819D01*
X43420238Y-70629819D02*
X43420238Y-69629819D01*
X43420238Y-69629819D02*
X43658333Y-69629819D01*
X43658333Y-69629819D02*
X43801190Y-69677438D01*
X43801190Y-69677438D02*
X43896428Y-69772676D01*
X43896428Y-69772676D02*
X43944047Y-69867914D01*
X43944047Y-69867914D02*
X43991666Y-70058390D01*
X43991666Y-70058390D02*
X43991666Y-70201247D01*
X43991666Y-70201247D02*
X43944047Y-70391723D01*
X43944047Y-70391723D02*
X43896428Y-70486961D01*
X43896428Y-70486961D02*
X43801190Y-70582200D01*
X43801190Y-70582200D02*
X43658333Y-70629819D01*
X43658333Y-70629819D02*
X43420238Y-70629819D01*
X96715476Y-101404819D02*
X96715476Y-102119104D01*
X96715476Y-102119104D02*
X96667857Y-102261961D01*
X96667857Y-102261961D02*
X96572619Y-102357200D01*
X96572619Y-102357200D02*
X96429762Y-102404819D01*
X96429762Y-102404819D02*
X96334524Y-102404819D01*
X97144048Y-101500057D02*
X97191667Y-101452438D01*
X97191667Y-101452438D02*
X97286905Y-101404819D01*
X97286905Y-101404819D02*
X97525000Y-101404819D01*
X97525000Y-101404819D02*
X97620238Y-101452438D01*
X97620238Y-101452438D02*
X97667857Y-101500057D01*
X97667857Y-101500057D02*
X97715476Y-101595295D01*
X97715476Y-101595295D02*
X97715476Y-101690533D01*
X97715476Y-101690533D02*
X97667857Y-101833390D01*
X97667857Y-101833390D02*
X97096429Y-102404819D01*
X97096429Y-102404819D02*
X97715476Y-102404819D01*
X98667857Y-102404819D02*
X98096429Y-102404819D01*
X98382143Y-102404819D02*
X98382143Y-101404819D01*
X98382143Y-101404819D02*
X98286905Y-101547676D01*
X98286905Y-101547676D02*
X98191667Y-101642914D01*
X98191667Y-101642914D02*
X98096429Y-101690533D01*
X87829819Y-86767857D02*
X87829819Y-87244047D01*
X87829819Y-87244047D02*
X86829819Y-87244047D01*
X87306009Y-86434523D02*
X87306009Y-86101190D01*
X87829819Y-85958333D02*
X87829819Y-86434523D01*
X87829819Y-86434523D02*
X86829819Y-86434523D01*
X86829819Y-86434523D02*
X86829819Y-85958333D01*
X87829819Y-85529761D02*
X86829819Y-85529761D01*
X86829819Y-85529761D02*
X86829819Y-85291666D01*
X86829819Y-85291666D02*
X86877438Y-85148809D01*
X86877438Y-85148809D02*
X86972676Y-85053571D01*
X86972676Y-85053571D02*
X87067914Y-85005952D01*
X87067914Y-85005952D02*
X87258390Y-84958333D01*
X87258390Y-84958333D02*
X87401247Y-84958333D01*
X87401247Y-84958333D02*
X87591723Y-85005952D01*
X87591723Y-85005952D02*
X87686961Y-85053571D01*
X87686961Y-85053571D02*
X87782200Y-85148809D01*
X87782200Y-85148809D02*
X87829819Y-85291666D01*
X87829819Y-85291666D02*
X87829819Y-85529761D01*
X36240476Y-101404819D02*
X36240476Y-102119104D01*
X36240476Y-102119104D02*
X36192857Y-102261961D01*
X36192857Y-102261961D02*
X36097619Y-102357200D01*
X36097619Y-102357200D02*
X35954762Y-102404819D01*
X35954762Y-102404819D02*
X35859524Y-102404819D01*
X36669048Y-101500057D02*
X36716667Y-101452438D01*
X36716667Y-101452438D02*
X36811905Y-101404819D01*
X36811905Y-101404819D02*
X37050000Y-101404819D01*
X37050000Y-101404819D02*
X37145238Y-101452438D01*
X37145238Y-101452438D02*
X37192857Y-101500057D01*
X37192857Y-101500057D02*
X37240476Y-101595295D01*
X37240476Y-101595295D02*
X37240476Y-101690533D01*
X37240476Y-101690533D02*
X37192857Y-101833390D01*
X37192857Y-101833390D02*
X36621429Y-102404819D01*
X36621429Y-102404819D02*
X37240476Y-102404819D01*
X37573810Y-101404819D02*
X38192857Y-101404819D01*
X38192857Y-101404819D02*
X37859524Y-101785771D01*
X37859524Y-101785771D02*
X38002381Y-101785771D01*
X38002381Y-101785771D02*
X38097619Y-101833390D01*
X38097619Y-101833390D02*
X38145238Y-101881009D01*
X38145238Y-101881009D02*
X38192857Y-101976247D01*
X38192857Y-101976247D02*
X38192857Y-102214342D01*
X38192857Y-102214342D02*
X38145238Y-102309580D01*
X38145238Y-102309580D02*
X38097619Y-102357200D01*
X38097619Y-102357200D02*
X38002381Y-102404819D01*
X38002381Y-102404819D02*
X37716667Y-102404819D01*
X37716667Y-102404819D02*
X37621429Y-102357200D01*
X37621429Y-102357200D02*
X37573810Y-102309580D01*
X58690476Y-104154819D02*
X58690476Y-104869104D01*
X58690476Y-104869104D02*
X58642857Y-105011961D01*
X58642857Y-105011961D02*
X58547619Y-105107200D01*
X58547619Y-105107200D02*
X58404762Y-105154819D01*
X58404762Y-105154819D02*
X58309524Y-105154819D01*
X59119048Y-104250057D02*
X59166667Y-104202438D01*
X59166667Y-104202438D02*
X59261905Y-104154819D01*
X59261905Y-104154819D02*
X59500000Y-104154819D01*
X59500000Y-104154819D02*
X59595238Y-104202438D01*
X59595238Y-104202438D02*
X59642857Y-104250057D01*
X59642857Y-104250057D02*
X59690476Y-104345295D01*
X59690476Y-104345295D02*
X59690476Y-104440533D01*
X59690476Y-104440533D02*
X59642857Y-104583390D01*
X59642857Y-104583390D02*
X59071429Y-105154819D01*
X59071429Y-105154819D02*
X59690476Y-105154819D01*
X60309524Y-104154819D02*
X60404762Y-104154819D01*
X60404762Y-104154819D02*
X60500000Y-104202438D01*
X60500000Y-104202438D02*
X60547619Y-104250057D01*
X60547619Y-104250057D02*
X60595238Y-104345295D01*
X60595238Y-104345295D02*
X60642857Y-104535771D01*
X60642857Y-104535771D02*
X60642857Y-104773866D01*
X60642857Y-104773866D02*
X60595238Y-104964342D01*
X60595238Y-104964342D02*
X60547619Y-105059580D01*
X60547619Y-105059580D02*
X60500000Y-105107200D01*
X60500000Y-105107200D02*
X60404762Y-105154819D01*
X60404762Y-105154819D02*
X60309524Y-105154819D01*
X60309524Y-105154819D02*
X60214286Y-105107200D01*
X60214286Y-105107200D02*
X60166667Y-105059580D01*
X60166667Y-105059580D02*
X60119048Y-104964342D01*
X60119048Y-104964342D02*
X60071429Y-104773866D01*
X60071429Y-104773866D02*
X60071429Y-104535771D01*
X60071429Y-104535771D02*
X60119048Y-104345295D01*
X60119048Y-104345295D02*
X60166667Y-104250057D01*
X60166667Y-104250057D02*
X60214286Y-104202438D01*
X60214286Y-104202438D02*
X60309524Y-104154819D01*
X58032142Y-100554819D02*
X57555952Y-100554819D01*
X57555952Y-100554819D02*
X57555952Y-99554819D01*
X58365476Y-100031009D02*
X58698809Y-100031009D01*
X58841666Y-100554819D02*
X58365476Y-100554819D01*
X58365476Y-100554819D02*
X58365476Y-99554819D01*
X58365476Y-99554819D02*
X58841666Y-99554819D01*
X59270238Y-100554819D02*
X59270238Y-99554819D01*
X59270238Y-99554819D02*
X59508333Y-99554819D01*
X59508333Y-99554819D02*
X59651190Y-99602438D01*
X59651190Y-99602438D02*
X59746428Y-99697676D01*
X59746428Y-99697676D02*
X59794047Y-99792914D01*
X59794047Y-99792914D02*
X59841666Y-99983390D01*
X59841666Y-99983390D02*
X59841666Y-100126247D01*
X59841666Y-100126247D02*
X59794047Y-100316723D01*
X59794047Y-100316723D02*
X59746428Y-100411961D01*
X59746428Y-100411961D02*
X59651190Y-100507200D01*
X59651190Y-100507200D02*
X59508333Y-100554819D01*
X59508333Y-100554819D02*
X59270238Y-100554819D01*
X91029819Y-77667857D02*
X91029819Y-78144047D01*
X91029819Y-78144047D02*
X90029819Y-78144047D01*
X90506009Y-77334523D02*
X90506009Y-77001190D01*
X91029819Y-76858333D02*
X91029819Y-77334523D01*
X91029819Y-77334523D02*
X90029819Y-77334523D01*
X90029819Y-77334523D02*
X90029819Y-76858333D01*
X91029819Y-76429761D02*
X90029819Y-76429761D01*
X90029819Y-76429761D02*
X90029819Y-76191666D01*
X90029819Y-76191666D02*
X90077438Y-76048809D01*
X90077438Y-76048809D02*
X90172676Y-75953571D01*
X90172676Y-75953571D02*
X90267914Y-75905952D01*
X90267914Y-75905952D02*
X90458390Y-75858333D01*
X90458390Y-75858333D02*
X90601247Y-75858333D01*
X90601247Y-75858333D02*
X90791723Y-75905952D01*
X90791723Y-75905952D02*
X90886961Y-75953571D01*
X90886961Y-75953571D02*
X90982200Y-76048809D01*
X90982200Y-76048809D02*
X91029819Y-76191666D01*
X91029819Y-76191666D02*
X91029819Y-76429761D01*
X51425000Y-70129819D02*
X51425000Y-69129819D01*
X51425000Y-69129819D02*
X51663095Y-69129819D01*
X51663095Y-69129819D02*
X51805952Y-69177438D01*
X51805952Y-69177438D02*
X51901190Y-69272676D01*
X51901190Y-69272676D02*
X51948809Y-69367914D01*
X51948809Y-69367914D02*
X51996428Y-69558390D01*
X51996428Y-69558390D02*
X51996428Y-69701247D01*
X51996428Y-69701247D02*
X51948809Y-69891723D01*
X51948809Y-69891723D02*
X51901190Y-69986961D01*
X51901190Y-69986961D02*
X51805952Y-70082200D01*
X51805952Y-70082200D02*
X51663095Y-70129819D01*
X51663095Y-70129819D02*
X51425000Y-70129819D01*
X52425000Y-70129819D02*
X52425000Y-69129819D01*
X53424999Y-69177438D02*
X53329761Y-69129819D01*
X53329761Y-69129819D02*
X53186904Y-69129819D01*
X53186904Y-69129819D02*
X53044047Y-69177438D01*
X53044047Y-69177438D02*
X52948809Y-69272676D01*
X52948809Y-69272676D02*
X52901190Y-69367914D01*
X52901190Y-69367914D02*
X52853571Y-69558390D01*
X52853571Y-69558390D02*
X52853571Y-69701247D01*
X52853571Y-69701247D02*
X52901190Y-69891723D01*
X52901190Y-69891723D02*
X52948809Y-69986961D01*
X52948809Y-69986961D02*
X53044047Y-70082200D01*
X53044047Y-70082200D02*
X53186904Y-70129819D01*
X53186904Y-70129819D02*
X53282142Y-70129819D01*
X53282142Y-70129819D02*
X53424999Y-70082200D01*
X53424999Y-70082200D02*
X53472618Y-70034580D01*
X53472618Y-70034580D02*
X53472618Y-69701247D01*
X53472618Y-69701247D02*
X53282142Y-69701247D01*
X92307142Y-66429819D02*
X91830952Y-66429819D01*
X91830952Y-66429819D02*
X91830952Y-65429819D01*
X92640476Y-65906009D02*
X92973809Y-65906009D01*
X93116666Y-66429819D02*
X92640476Y-66429819D01*
X92640476Y-66429819D02*
X92640476Y-65429819D01*
X92640476Y-65429819D02*
X93116666Y-65429819D01*
X93545238Y-66429819D02*
X93545238Y-65429819D01*
X93545238Y-65429819D02*
X93783333Y-65429819D01*
X93783333Y-65429819D02*
X93926190Y-65477438D01*
X93926190Y-65477438D02*
X94021428Y-65572676D01*
X94021428Y-65572676D02*
X94069047Y-65667914D01*
X94069047Y-65667914D02*
X94116666Y-65858390D01*
X94116666Y-65858390D02*
X94116666Y-66001247D01*
X94116666Y-66001247D02*
X94069047Y-66191723D01*
X94069047Y-66191723D02*
X94021428Y-66286961D01*
X94021428Y-66286961D02*
X93926190Y-66382200D01*
X93926190Y-66382200D02*
X93783333Y-66429819D01*
X93783333Y-66429819D02*
X93545238Y-66429819D01*
X42904819Y-75317857D02*
X42904819Y-75794047D01*
X42904819Y-75794047D02*
X41904819Y-75794047D01*
X42381009Y-74984523D02*
X42381009Y-74651190D01*
X42904819Y-74508333D02*
X42904819Y-74984523D01*
X42904819Y-74984523D02*
X41904819Y-74984523D01*
X41904819Y-74984523D02*
X41904819Y-74508333D01*
X42904819Y-74079761D02*
X41904819Y-74079761D01*
X41904819Y-74079761D02*
X41904819Y-73841666D01*
X41904819Y-73841666D02*
X41952438Y-73698809D01*
X41952438Y-73698809D02*
X42047676Y-73603571D01*
X42047676Y-73603571D02*
X42142914Y-73555952D01*
X42142914Y-73555952D02*
X42333390Y-73508333D01*
X42333390Y-73508333D02*
X42476247Y-73508333D01*
X42476247Y-73508333D02*
X42666723Y-73555952D01*
X42666723Y-73555952D02*
X42761961Y-73603571D01*
X42761961Y-73603571D02*
X42857200Y-73698809D01*
X42857200Y-73698809D02*
X42904819Y-73841666D01*
X42904819Y-73841666D02*
X42904819Y-74079761D01*
X87682142Y-100779819D02*
X87205952Y-100779819D01*
X87205952Y-100779819D02*
X87205952Y-99779819D01*
X88015476Y-100256009D02*
X88348809Y-100256009D01*
X88491666Y-100779819D02*
X88015476Y-100779819D01*
X88015476Y-100779819D02*
X88015476Y-99779819D01*
X88015476Y-99779819D02*
X88491666Y-99779819D01*
X88920238Y-100779819D02*
X88920238Y-99779819D01*
X88920238Y-99779819D02*
X89158333Y-99779819D01*
X89158333Y-99779819D02*
X89301190Y-99827438D01*
X89301190Y-99827438D02*
X89396428Y-99922676D01*
X89396428Y-99922676D02*
X89444047Y-100017914D01*
X89444047Y-100017914D02*
X89491666Y-100208390D01*
X89491666Y-100208390D02*
X89491666Y-100351247D01*
X89491666Y-100351247D02*
X89444047Y-100541723D01*
X89444047Y-100541723D02*
X89396428Y-100636961D01*
X89396428Y-100636961D02*
X89301190Y-100732200D01*
X89301190Y-100732200D02*
X89158333Y-100779819D01*
X89158333Y-100779819D02*
X88920238Y-100779819D01*
X57067857Y-86256009D02*
X57401190Y-86256009D01*
X57544047Y-86779819D02*
X57067857Y-86779819D01*
X57067857Y-86779819D02*
X57067857Y-85779819D01*
X57067857Y-85779819D02*
X57544047Y-85779819D01*
X57925000Y-86732200D02*
X58067857Y-86779819D01*
X58067857Y-86779819D02*
X58305952Y-86779819D01*
X58305952Y-86779819D02*
X58401190Y-86732200D01*
X58401190Y-86732200D02*
X58448809Y-86684580D01*
X58448809Y-86684580D02*
X58496428Y-86589342D01*
X58496428Y-86589342D02*
X58496428Y-86494104D01*
X58496428Y-86494104D02*
X58448809Y-86398866D01*
X58448809Y-86398866D02*
X58401190Y-86351247D01*
X58401190Y-86351247D02*
X58305952Y-86303628D01*
X58305952Y-86303628D02*
X58115476Y-86256009D01*
X58115476Y-86256009D02*
X58020238Y-86208390D01*
X58020238Y-86208390D02*
X57972619Y-86160771D01*
X57972619Y-86160771D02*
X57925000Y-86065533D01*
X57925000Y-86065533D02*
X57925000Y-85970295D01*
X57925000Y-85970295D02*
X57972619Y-85875057D01*
X57972619Y-85875057D02*
X58020238Y-85827438D01*
X58020238Y-85827438D02*
X58115476Y-85779819D01*
X58115476Y-85779819D02*
X58353571Y-85779819D01*
X58353571Y-85779819D02*
X58496428Y-85827438D01*
X58925000Y-86779819D02*
X58925000Y-85779819D01*
X58925000Y-85779819D02*
X59305952Y-85779819D01*
X59305952Y-85779819D02*
X59401190Y-85827438D01*
X59401190Y-85827438D02*
X59448809Y-85875057D01*
X59448809Y-85875057D02*
X59496428Y-85970295D01*
X59496428Y-85970295D02*
X59496428Y-86113152D01*
X59496428Y-86113152D02*
X59448809Y-86208390D01*
X59448809Y-86208390D02*
X59401190Y-86256009D01*
X59401190Y-86256009D02*
X59305952Y-86303628D01*
X59305952Y-86303628D02*
X58925000Y-86303628D01*
X59829762Y-85779819D02*
X60448809Y-85779819D01*
X60448809Y-85779819D02*
X60115476Y-86160771D01*
X60115476Y-86160771D02*
X60258333Y-86160771D01*
X60258333Y-86160771D02*
X60353571Y-86208390D01*
X60353571Y-86208390D02*
X60401190Y-86256009D01*
X60401190Y-86256009D02*
X60448809Y-86351247D01*
X60448809Y-86351247D02*
X60448809Y-86589342D01*
X60448809Y-86589342D02*
X60401190Y-86684580D01*
X60401190Y-86684580D02*
X60353571Y-86732200D01*
X60353571Y-86732200D02*
X60258333Y-86779819D01*
X60258333Y-86779819D02*
X59972619Y-86779819D01*
X59972619Y-86779819D02*
X59877381Y-86732200D01*
X59877381Y-86732200D02*
X59829762Y-86684580D01*
X60829762Y-85875057D02*
X60877381Y-85827438D01*
X60877381Y-85827438D02*
X60972619Y-85779819D01*
X60972619Y-85779819D02*
X61210714Y-85779819D01*
X61210714Y-85779819D02*
X61305952Y-85827438D01*
X61305952Y-85827438D02*
X61353571Y-85875057D01*
X61353571Y-85875057D02*
X61401190Y-85970295D01*
X61401190Y-85970295D02*
X61401190Y-86065533D01*
X61401190Y-86065533D02*
X61353571Y-86208390D01*
X61353571Y-86208390D02*
X60782143Y-86779819D01*
X60782143Y-86779819D02*
X61401190Y-86779819D01*
X61829762Y-86398866D02*
X62591667Y-86398866D01*
X63067857Y-86779819D02*
X63067857Y-85779819D01*
X63067857Y-85779819D02*
X63305952Y-85779819D01*
X63305952Y-85779819D02*
X63448809Y-85827438D01*
X63448809Y-85827438D02*
X63544047Y-85922676D01*
X63544047Y-85922676D02*
X63591666Y-86017914D01*
X63591666Y-86017914D02*
X63639285Y-86208390D01*
X63639285Y-86208390D02*
X63639285Y-86351247D01*
X63639285Y-86351247D02*
X63591666Y-86541723D01*
X63591666Y-86541723D02*
X63544047Y-86636961D01*
X63544047Y-86636961D02*
X63448809Y-86732200D01*
X63448809Y-86732200D02*
X63305952Y-86779819D01*
X63305952Y-86779819D02*
X63067857Y-86779819D01*
X64067857Y-86256009D02*
X64401190Y-86256009D01*
X64544047Y-86779819D02*
X64067857Y-86779819D01*
X64067857Y-86779819D02*
X64067857Y-85779819D01*
X64067857Y-85779819D02*
X64544047Y-85779819D01*
X64829762Y-85779819D02*
X65163095Y-86779819D01*
X65163095Y-86779819D02*
X65496428Y-85779819D01*
X65829762Y-86779819D02*
X65829762Y-85779819D01*
X66401190Y-86779819D02*
X65972619Y-86208390D01*
X66401190Y-85779819D02*
X65829762Y-86351247D01*
X66829762Y-86779819D02*
X66829762Y-85779819D01*
X67163095Y-85779819D02*
X67734523Y-85779819D01*
X67448809Y-86779819D02*
X67448809Y-85779819D01*
X68639285Y-86684580D02*
X68591666Y-86732200D01*
X68591666Y-86732200D02*
X68448809Y-86779819D01*
X68448809Y-86779819D02*
X68353571Y-86779819D01*
X68353571Y-86779819D02*
X68210714Y-86732200D01*
X68210714Y-86732200D02*
X68115476Y-86636961D01*
X68115476Y-86636961D02*
X68067857Y-86541723D01*
X68067857Y-86541723D02*
X68020238Y-86351247D01*
X68020238Y-86351247D02*
X68020238Y-86208390D01*
X68020238Y-86208390D02*
X68067857Y-86017914D01*
X68067857Y-86017914D02*
X68115476Y-85922676D01*
X68115476Y-85922676D02*
X68210714Y-85827438D01*
X68210714Y-85827438D02*
X68353571Y-85779819D01*
X68353571Y-85779819D02*
X68448809Y-85779819D01*
X68448809Y-85779819D02*
X68591666Y-85827438D01*
X68591666Y-85827438D02*
X68639285Y-85875057D01*
X69067857Y-86398866D02*
X69829762Y-86398866D01*
X70210714Y-85779819D02*
X70829761Y-85779819D01*
X70829761Y-85779819D02*
X70496428Y-86160771D01*
X70496428Y-86160771D02*
X70639285Y-86160771D01*
X70639285Y-86160771D02*
X70734523Y-86208390D01*
X70734523Y-86208390D02*
X70782142Y-86256009D01*
X70782142Y-86256009D02*
X70829761Y-86351247D01*
X70829761Y-86351247D02*
X70829761Y-86589342D01*
X70829761Y-86589342D02*
X70782142Y-86684580D01*
X70782142Y-86684580D02*
X70734523Y-86732200D01*
X70734523Y-86732200D02*
X70639285Y-86779819D01*
X70639285Y-86779819D02*
X70353571Y-86779819D01*
X70353571Y-86779819D02*
X70258333Y-86732200D01*
X70258333Y-86732200D02*
X70210714Y-86684580D01*
X71210714Y-85875057D02*
X71258333Y-85827438D01*
X71258333Y-85827438D02*
X71353571Y-85779819D01*
X71353571Y-85779819D02*
X71591666Y-85779819D01*
X71591666Y-85779819D02*
X71686904Y-85827438D01*
X71686904Y-85827438D02*
X71734523Y-85875057D01*
X71734523Y-85875057D02*
X71782142Y-85970295D01*
X71782142Y-85970295D02*
X71782142Y-86065533D01*
X71782142Y-86065533D02*
X71734523Y-86208390D01*
X71734523Y-86208390D02*
X71163095Y-86779819D01*
X71163095Y-86779819D02*
X71782142Y-86779819D01*
X72210714Y-85779819D02*
X72210714Y-86589342D01*
X72210714Y-86589342D02*
X72258333Y-86684580D01*
X72258333Y-86684580D02*
X72305952Y-86732200D01*
X72305952Y-86732200D02*
X72401190Y-86779819D01*
X72401190Y-86779819D02*
X72591666Y-86779819D01*
X72591666Y-86779819D02*
X72686904Y-86732200D01*
X72686904Y-86732200D02*
X72734523Y-86684580D01*
X72734523Y-86684580D02*
X72782142Y-86589342D01*
X72782142Y-86589342D02*
X72782142Y-85779819D01*
X45929761Y-101279819D02*
X45596428Y-100803628D01*
X45358333Y-101279819D02*
X45358333Y-100279819D01*
X45358333Y-100279819D02*
X45739285Y-100279819D01*
X45739285Y-100279819D02*
X45834523Y-100327438D01*
X45834523Y-100327438D02*
X45882142Y-100375057D01*
X45882142Y-100375057D02*
X45929761Y-100470295D01*
X45929761Y-100470295D02*
X45929761Y-100613152D01*
X45929761Y-100613152D02*
X45882142Y-100708390D01*
X45882142Y-100708390D02*
X45834523Y-100756009D01*
X45834523Y-100756009D02*
X45739285Y-100803628D01*
X45739285Y-100803628D02*
X45358333Y-100803628D01*
X46310714Y-101232200D02*
X46453571Y-101279819D01*
X46453571Y-101279819D02*
X46691666Y-101279819D01*
X46691666Y-101279819D02*
X46786904Y-101232200D01*
X46786904Y-101232200D02*
X46834523Y-101184580D01*
X46834523Y-101184580D02*
X46882142Y-101089342D01*
X46882142Y-101089342D02*
X46882142Y-100994104D01*
X46882142Y-100994104D02*
X46834523Y-100898866D01*
X46834523Y-100898866D02*
X46786904Y-100851247D01*
X46786904Y-100851247D02*
X46691666Y-100803628D01*
X46691666Y-100803628D02*
X46501190Y-100756009D01*
X46501190Y-100756009D02*
X46405952Y-100708390D01*
X46405952Y-100708390D02*
X46358333Y-100660771D01*
X46358333Y-100660771D02*
X46310714Y-100565533D01*
X46310714Y-100565533D02*
X46310714Y-100470295D01*
X46310714Y-100470295D02*
X46358333Y-100375057D01*
X46358333Y-100375057D02*
X46405952Y-100327438D01*
X46405952Y-100327438D02*
X46501190Y-100279819D01*
X46501190Y-100279819D02*
X46739285Y-100279819D01*
X46739285Y-100279819D02*
X46882142Y-100327438D01*
X47263095Y-100375057D02*
X47310714Y-100327438D01*
X47310714Y-100327438D02*
X47405952Y-100279819D01*
X47405952Y-100279819D02*
X47644047Y-100279819D01*
X47644047Y-100279819D02*
X47739285Y-100327438D01*
X47739285Y-100327438D02*
X47786904Y-100375057D01*
X47786904Y-100375057D02*
X47834523Y-100470295D01*
X47834523Y-100470295D02*
X47834523Y-100565533D01*
X47834523Y-100565533D02*
X47786904Y-100708390D01*
X47786904Y-100708390D02*
X47215476Y-101279819D01*
X47215476Y-101279819D02*
X47834523Y-101279819D01*
X48167857Y-100279819D02*
X48786904Y-100279819D01*
X48786904Y-100279819D02*
X48453571Y-100660771D01*
X48453571Y-100660771D02*
X48596428Y-100660771D01*
X48596428Y-100660771D02*
X48691666Y-100708390D01*
X48691666Y-100708390D02*
X48739285Y-100756009D01*
X48739285Y-100756009D02*
X48786904Y-100851247D01*
X48786904Y-100851247D02*
X48786904Y-101089342D01*
X48786904Y-101089342D02*
X48739285Y-101184580D01*
X48739285Y-101184580D02*
X48691666Y-101232200D01*
X48691666Y-101232200D02*
X48596428Y-101279819D01*
X48596428Y-101279819D02*
X48310714Y-101279819D01*
X48310714Y-101279819D02*
X48215476Y-101232200D01*
X48215476Y-101232200D02*
X48167857Y-101184580D01*
X49167857Y-100375057D02*
X49215476Y-100327438D01*
X49215476Y-100327438D02*
X49310714Y-100279819D01*
X49310714Y-100279819D02*
X49548809Y-100279819D01*
X49548809Y-100279819D02*
X49644047Y-100327438D01*
X49644047Y-100327438D02*
X49691666Y-100375057D01*
X49691666Y-100375057D02*
X49739285Y-100470295D01*
X49739285Y-100470295D02*
X49739285Y-100565533D01*
X49739285Y-100565533D02*
X49691666Y-100708390D01*
X49691666Y-100708390D02*
X49120238Y-101279819D01*
X49120238Y-101279819D02*
X49739285Y-101279819D01*
X41254819Y-96070238D02*
X40778628Y-96403571D01*
X41254819Y-96641666D02*
X40254819Y-96641666D01*
X40254819Y-96641666D02*
X40254819Y-96260714D01*
X40254819Y-96260714D02*
X40302438Y-96165476D01*
X40302438Y-96165476D02*
X40350057Y-96117857D01*
X40350057Y-96117857D02*
X40445295Y-96070238D01*
X40445295Y-96070238D02*
X40588152Y-96070238D01*
X40588152Y-96070238D02*
X40683390Y-96117857D01*
X40683390Y-96117857D02*
X40731009Y-96165476D01*
X40731009Y-96165476D02*
X40778628Y-96260714D01*
X40778628Y-96260714D02*
X40778628Y-96641666D01*
X41207200Y-95689285D02*
X41254819Y-95546428D01*
X41254819Y-95546428D02*
X41254819Y-95308333D01*
X41254819Y-95308333D02*
X41207200Y-95213095D01*
X41207200Y-95213095D02*
X41159580Y-95165476D01*
X41159580Y-95165476D02*
X41064342Y-95117857D01*
X41064342Y-95117857D02*
X40969104Y-95117857D01*
X40969104Y-95117857D02*
X40873866Y-95165476D01*
X40873866Y-95165476D02*
X40826247Y-95213095D01*
X40826247Y-95213095D02*
X40778628Y-95308333D01*
X40778628Y-95308333D02*
X40731009Y-95498809D01*
X40731009Y-95498809D02*
X40683390Y-95594047D01*
X40683390Y-95594047D02*
X40635771Y-95641666D01*
X40635771Y-95641666D02*
X40540533Y-95689285D01*
X40540533Y-95689285D02*
X40445295Y-95689285D01*
X40445295Y-95689285D02*
X40350057Y-95641666D01*
X40350057Y-95641666D02*
X40302438Y-95594047D01*
X40302438Y-95594047D02*
X40254819Y-95498809D01*
X40254819Y-95498809D02*
X40254819Y-95260714D01*
X40254819Y-95260714D02*
X40302438Y-95117857D01*
X40588152Y-94260714D02*
X41254819Y-94260714D01*
X40207200Y-94498809D02*
X40921485Y-94736904D01*
X40921485Y-94736904D02*
X40921485Y-94117857D01*
X40683390Y-93594047D02*
X40635771Y-93689285D01*
X40635771Y-93689285D02*
X40588152Y-93736904D01*
X40588152Y-93736904D02*
X40492914Y-93784523D01*
X40492914Y-93784523D02*
X40445295Y-93784523D01*
X40445295Y-93784523D02*
X40350057Y-93736904D01*
X40350057Y-93736904D02*
X40302438Y-93689285D01*
X40302438Y-93689285D02*
X40254819Y-93594047D01*
X40254819Y-93594047D02*
X40254819Y-93403571D01*
X40254819Y-93403571D02*
X40302438Y-93308333D01*
X40302438Y-93308333D02*
X40350057Y-93260714D01*
X40350057Y-93260714D02*
X40445295Y-93213095D01*
X40445295Y-93213095D02*
X40492914Y-93213095D01*
X40492914Y-93213095D02*
X40588152Y-93260714D01*
X40588152Y-93260714D02*
X40635771Y-93308333D01*
X40635771Y-93308333D02*
X40683390Y-93403571D01*
X40683390Y-93403571D02*
X40683390Y-93594047D01*
X40683390Y-93594047D02*
X40731009Y-93689285D01*
X40731009Y-93689285D02*
X40778628Y-93736904D01*
X40778628Y-93736904D02*
X40873866Y-93784523D01*
X40873866Y-93784523D02*
X41064342Y-93784523D01*
X41064342Y-93784523D02*
X41159580Y-93736904D01*
X41159580Y-93736904D02*
X41207200Y-93689285D01*
X41207200Y-93689285D02*
X41254819Y-93594047D01*
X41254819Y-93594047D02*
X41254819Y-93403571D01*
X41254819Y-93403571D02*
X41207200Y-93308333D01*
X41207200Y-93308333D02*
X41159580Y-93260714D01*
X41159580Y-93260714D02*
X41064342Y-93213095D01*
X41064342Y-93213095D02*
X40873866Y-93213095D01*
X40873866Y-93213095D02*
X40778628Y-93260714D01*
X40778628Y-93260714D02*
X40731009Y-93308333D01*
X40731009Y-93308333D02*
X40683390Y-93403571D01*
X40254819Y-92308333D02*
X40254819Y-92784523D01*
X40254819Y-92784523D02*
X40731009Y-92832142D01*
X40731009Y-92832142D02*
X40683390Y-92784523D01*
X40683390Y-92784523D02*
X40635771Y-92689285D01*
X40635771Y-92689285D02*
X40635771Y-92451190D01*
X40635771Y-92451190D02*
X40683390Y-92355952D01*
X40683390Y-92355952D02*
X40731009Y-92308333D01*
X40731009Y-92308333D02*
X40826247Y-92260714D01*
X40826247Y-92260714D02*
X41064342Y-92260714D01*
X41064342Y-92260714D02*
X41159580Y-92308333D01*
X41159580Y-92308333D02*
X41207200Y-92355952D01*
X41207200Y-92355952D02*
X41254819Y-92451190D01*
X41254819Y-92451190D02*
X41254819Y-92689285D01*
X41254819Y-92689285D02*
X41207200Y-92784523D01*
X41207200Y-92784523D02*
X41159580Y-92832142D01*
X37590476Y-88204819D02*
X37590476Y-88919104D01*
X37590476Y-88919104D02*
X37542857Y-89061961D01*
X37542857Y-89061961D02*
X37447619Y-89157200D01*
X37447619Y-89157200D02*
X37304762Y-89204819D01*
X37304762Y-89204819D02*
X37209524Y-89204819D01*
X38590476Y-89204819D02*
X38019048Y-89204819D01*
X38304762Y-89204819D02*
X38304762Y-88204819D01*
X38304762Y-88204819D02*
X38209524Y-88347676D01*
X38209524Y-88347676D02*
X38114286Y-88442914D01*
X38114286Y-88442914D02*
X38019048Y-88490533D01*
X39495238Y-88204819D02*
X39019048Y-88204819D01*
X39019048Y-88204819D02*
X38971429Y-88681009D01*
X38971429Y-88681009D02*
X39019048Y-88633390D01*
X39019048Y-88633390D02*
X39114286Y-88585771D01*
X39114286Y-88585771D02*
X39352381Y-88585771D01*
X39352381Y-88585771D02*
X39447619Y-88633390D01*
X39447619Y-88633390D02*
X39495238Y-88681009D01*
X39495238Y-88681009D02*
X39542857Y-88776247D01*
X39542857Y-88776247D02*
X39542857Y-89014342D01*
X39542857Y-89014342D02*
X39495238Y-89109580D01*
X39495238Y-89109580D02*
X39447619Y-89157200D01*
X39447619Y-89157200D02*
X39352381Y-89204819D01*
X39352381Y-89204819D02*
X39114286Y-89204819D01*
X39114286Y-89204819D02*
X39019048Y-89157200D01*
X39019048Y-89157200D02*
X38971429Y-89109580D01*
X42854819Y-83942857D02*
X42854819Y-84419047D01*
X42854819Y-84419047D02*
X41854819Y-84419047D01*
X42331009Y-83609523D02*
X42331009Y-83276190D01*
X42854819Y-83133333D02*
X42854819Y-83609523D01*
X42854819Y-83609523D02*
X41854819Y-83609523D01*
X41854819Y-83609523D02*
X41854819Y-83133333D01*
X42854819Y-82704761D02*
X41854819Y-82704761D01*
X41854819Y-82704761D02*
X41854819Y-82466666D01*
X41854819Y-82466666D02*
X41902438Y-82323809D01*
X41902438Y-82323809D02*
X41997676Y-82228571D01*
X41997676Y-82228571D02*
X42092914Y-82180952D01*
X42092914Y-82180952D02*
X42283390Y-82133333D01*
X42283390Y-82133333D02*
X42426247Y-82133333D01*
X42426247Y-82133333D02*
X42616723Y-82180952D01*
X42616723Y-82180952D02*
X42711961Y-82228571D01*
X42711961Y-82228571D02*
X42807200Y-82323809D01*
X42807200Y-82323809D02*
X42854819Y-82466666D01*
X42854819Y-82466666D02*
X42854819Y-82704761D01*
X52704819Y-89641666D02*
X51704819Y-89641666D01*
X51704819Y-89641666D02*
X52419104Y-89308333D01*
X52419104Y-89308333D02*
X51704819Y-88975000D01*
X51704819Y-88975000D02*
X52704819Y-88975000D01*
X52419104Y-88546428D02*
X52419104Y-88070238D01*
X52704819Y-88641666D02*
X51704819Y-88308333D01*
X51704819Y-88308333D02*
X52704819Y-87975000D01*
X51704819Y-87736904D02*
X52704819Y-87070238D01*
X51704819Y-87070238D02*
X52704819Y-87736904D01*
X52038152Y-86260714D02*
X52704819Y-86260714D01*
X51657200Y-86498809D02*
X52371485Y-86736904D01*
X52371485Y-86736904D02*
X52371485Y-86117857D01*
X52133390Y-85594047D02*
X52085771Y-85689285D01*
X52085771Y-85689285D02*
X52038152Y-85736904D01*
X52038152Y-85736904D02*
X51942914Y-85784523D01*
X51942914Y-85784523D02*
X51895295Y-85784523D01*
X51895295Y-85784523D02*
X51800057Y-85736904D01*
X51800057Y-85736904D02*
X51752438Y-85689285D01*
X51752438Y-85689285D02*
X51704819Y-85594047D01*
X51704819Y-85594047D02*
X51704819Y-85403571D01*
X51704819Y-85403571D02*
X51752438Y-85308333D01*
X51752438Y-85308333D02*
X51800057Y-85260714D01*
X51800057Y-85260714D02*
X51895295Y-85213095D01*
X51895295Y-85213095D02*
X51942914Y-85213095D01*
X51942914Y-85213095D02*
X52038152Y-85260714D01*
X52038152Y-85260714D02*
X52085771Y-85308333D01*
X52085771Y-85308333D02*
X52133390Y-85403571D01*
X52133390Y-85403571D02*
X52133390Y-85594047D01*
X52133390Y-85594047D02*
X52181009Y-85689285D01*
X52181009Y-85689285D02*
X52228628Y-85736904D01*
X52228628Y-85736904D02*
X52323866Y-85784523D01*
X52323866Y-85784523D02*
X52514342Y-85784523D01*
X52514342Y-85784523D02*
X52609580Y-85736904D01*
X52609580Y-85736904D02*
X52657200Y-85689285D01*
X52657200Y-85689285D02*
X52704819Y-85594047D01*
X52704819Y-85594047D02*
X52704819Y-85403571D01*
X52704819Y-85403571D02*
X52657200Y-85308333D01*
X52657200Y-85308333D02*
X52609580Y-85260714D01*
X52609580Y-85260714D02*
X52514342Y-85213095D01*
X52514342Y-85213095D02*
X52323866Y-85213095D01*
X52323866Y-85213095D02*
X52228628Y-85260714D01*
X52228628Y-85260714D02*
X52181009Y-85308333D01*
X52181009Y-85308333D02*
X52133390Y-85403571D01*
X51704819Y-84308333D02*
X51704819Y-84784523D01*
X51704819Y-84784523D02*
X52181009Y-84832142D01*
X52181009Y-84832142D02*
X52133390Y-84784523D01*
X52133390Y-84784523D02*
X52085771Y-84689285D01*
X52085771Y-84689285D02*
X52085771Y-84451190D01*
X52085771Y-84451190D02*
X52133390Y-84355952D01*
X52133390Y-84355952D02*
X52181009Y-84308333D01*
X52181009Y-84308333D02*
X52276247Y-84260714D01*
X52276247Y-84260714D02*
X52514342Y-84260714D01*
X52514342Y-84260714D02*
X52609580Y-84308333D01*
X52609580Y-84308333D02*
X52657200Y-84355952D01*
X52657200Y-84355952D02*
X52704819Y-84451190D01*
X52704819Y-84451190D02*
X52704819Y-84689285D01*
X52704819Y-84689285D02*
X52657200Y-84784523D01*
X52657200Y-84784523D02*
X52609580Y-84832142D01*
X84259524Y-69894104D02*
X84735714Y-69894104D01*
X84164286Y-70179819D02*
X84497619Y-69179819D01*
X84497619Y-69179819D02*
X84830952Y-70179819D01*
X85164286Y-70179819D02*
X85164286Y-69179819D01*
X85164286Y-69179819D02*
X85735714Y-70179819D01*
X85735714Y-70179819D02*
X85735714Y-69179819D01*
X86164286Y-69894104D02*
X86640476Y-69894104D01*
X86069048Y-70179819D02*
X86402381Y-69179819D01*
X86402381Y-69179819D02*
X86735714Y-70179819D01*
X96665476Y-60629819D02*
X96665476Y-61344104D01*
X96665476Y-61344104D02*
X96617857Y-61486961D01*
X96617857Y-61486961D02*
X96522619Y-61582200D01*
X96522619Y-61582200D02*
X96379762Y-61629819D01*
X96379762Y-61629819D02*
X96284524Y-61629819D01*
X97665476Y-61629819D02*
X97094048Y-61629819D01*
X97379762Y-61629819D02*
X97379762Y-60629819D01*
X97379762Y-60629819D02*
X97284524Y-60772676D01*
X97284524Y-60772676D02*
X97189286Y-60867914D01*
X97189286Y-60867914D02*
X97094048Y-60915533D01*
X98141667Y-61629819D02*
X98332143Y-61629819D01*
X98332143Y-61629819D02*
X98427381Y-61582200D01*
X98427381Y-61582200D02*
X98475000Y-61534580D01*
X98475000Y-61534580D02*
X98570238Y-61391723D01*
X98570238Y-61391723D02*
X98617857Y-61201247D01*
X98617857Y-61201247D02*
X98617857Y-60820295D01*
X98617857Y-60820295D02*
X98570238Y-60725057D01*
X98570238Y-60725057D02*
X98522619Y-60677438D01*
X98522619Y-60677438D02*
X98427381Y-60629819D01*
X98427381Y-60629819D02*
X98236905Y-60629819D01*
X98236905Y-60629819D02*
X98141667Y-60677438D01*
X98141667Y-60677438D02*
X98094048Y-60725057D01*
X98094048Y-60725057D02*
X98046429Y-60820295D01*
X98046429Y-60820295D02*
X98046429Y-61058390D01*
X98046429Y-61058390D02*
X98094048Y-61153628D01*
X98094048Y-61153628D02*
X98141667Y-61201247D01*
X98141667Y-61201247D02*
X98236905Y-61248866D01*
X98236905Y-61248866D02*
X98427381Y-61248866D01*
X98427381Y-61248866D02*
X98522619Y-61201247D01*
X98522619Y-61201247D02*
X98570238Y-61153628D01*
X98570238Y-61153628D02*
X98617857Y-61058390D01*
X36240476Y-60604819D02*
X36240476Y-61319104D01*
X36240476Y-61319104D02*
X36192857Y-61461961D01*
X36192857Y-61461961D02*
X36097619Y-61557200D01*
X36097619Y-61557200D02*
X35954762Y-61604819D01*
X35954762Y-61604819D02*
X35859524Y-61604819D01*
X36669048Y-60700057D02*
X36716667Y-60652438D01*
X36716667Y-60652438D02*
X36811905Y-60604819D01*
X36811905Y-60604819D02*
X37050000Y-60604819D01*
X37050000Y-60604819D02*
X37145238Y-60652438D01*
X37145238Y-60652438D02*
X37192857Y-60700057D01*
X37192857Y-60700057D02*
X37240476Y-60795295D01*
X37240476Y-60795295D02*
X37240476Y-60890533D01*
X37240476Y-60890533D02*
X37192857Y-61033390D01*
X37192857Y-61033390D02*
X36621429Y-61604819D01*
X36621429Y-61604819D02*
X37240476Y-61604819D01*
X37621429Y-60700057D02*
X37669048Y-60652438D01*
X37669048Y-60652438D02*
X37764286Y-60604819D01*
X37764286Y-60604819D02*
X38002381Y-60604819D01*
X38002381Y-60604819D02*
X38097619Y-60652438D01*
X38097619Y-60652438D02*
X38145238Y-60700057D01*
X38145238Y-60700057D02*
X38192857Y-60795295D01*
X38192857Y-60795295D02*
X38192857Y-60890533D01*
X38192857Y-60890533D02*
X38145238Y-61033390D01*
X38145238Y-61033390D02*
X37573810Y-61604819D01*
X37573810Y-61604819D02*
X38192857Y-61604819D01*
D13*
%TO.C,J7*%
X72050000Y-99170000D02*
X72050000Y-101830000D01*
X79730000Y-99170000D02*
X72050000Y-99170000D01*
X79730000Y-99170000D02*
X79730000Y-101830000D01*
X79730000Y-101830000D02*
X72050000Y-101830000D01*
X81000000Y-99170000D02*
X82330000Y-99170000D01*
X82330000Y-99170000D02*
X82330000Y-100500000D01*
%TO.C,J17*%
X71450000Y-107325000D02*
X71450000Y-106075000D01*
X71160000Y-107035000D02*
X71160000Y-101065000D01*
X71160000Y-101065000D02*
X63540000Y-101065000D01*
X71150000Y-107025000D02*
X71150000Y-106275000D01*
X71150000Y-106275000D02*
X69350000Y-106275000D01*
X71150000Y-104775000D02*
X70400000Y-104775000D01*
X70400000Y-104775000D02*
X70400000Y-101825000D01*
X70400000Y-101825000D02*
X67350000Y-101825000D01*
X70200000Y-107325000D02*
X71450000Y-107325000D01*
X69350000Y-107025000D02*
X71150000Y-107025000D01*
X69350000Y-106275000D02*
X69350000Y-107025000D01*
X67850000Y-107025000D02*
X67850000Y-106275000D01*
X67850000Y-106275000D02*
X66850000Y-106275000D01*
X66850000Y-107025000D02*
X67850000Y-107025000D01*
X66850000Y-106275000D02*
X66850000Y-107025000D01*
X65350000Y-107025000D02*
X65350000Y-106275000D01*
X65350000Y-106275000D02*
X63550000Y-106275000D01*
X64300000Y-104775000D02*
X64300000Y-101825000D01*
X64300000Y-101825000D02*
X67350000Y-101825000D01*
X63550000Y-107025000D02*
X65350000Y-107025000D01*
X63550000Y-106275000D02*
X63550000Y-107025000D01*
X63550000Y-104775000D02*
X64300000Y-104775000D01*
X63540000Y-107035000D02*
X71160000Y-107035000D01*
X63540000Y-101065000D02*
X63540000Y-107035000D01*
%TO.C,J2*%
X69365000Y-60672500D02*
X79585000Y-60672500D01*
X69365000Y-61892500D02*
X70585000Y-61892500D01*
X69365000Y-69092500D02*
X69365000Y-60672500D01*
X70585000Y-61892500D02*
X70585000Y-66892500D01*
X70585000Y-65892500D02*
X78365000Y-65892500D01*
X70585000Y-66892500D02*
X69365000Y-66892500D01*
X70585000Y-66892500D02*
X70585000Y-69092500D01*
X70585000Y-69092500D02*
X69365000Y-69092500D01*
X71655000Y-62472500D02*
X71975000Y-62392500D01*
X71655000Y-65892500D02*
X71655000Y-62472500D01*
X71675000Y-69582500D02*
X72275000Y-69582500D01*
X71975000Y-62392500D02*
X72295000Y-62472500D01*
X71975000Y-65892500D02*
X71655000Y-65892500D01*
X71975000Y-68982500D02*
X71675000Y-69582500D01*
X72275000Y-69582500D02*
X71975000Y-68982500D01*
X72295000Y-62472500D02*
X72295000Y-65892500D01*
X72295000Y-65892500D02*
X71975000Y-65892500D01*
X73145000Y-66892500D02*
X73305000Y-66892500D01*
X74155000Y-62472500D02*
X74475000Y-62392500D01*
X74155000Y-65892500D02*
X74155000Y-62472500D01*
X74475000Y-62392500D02*
X74795000Y-62472500D01*
X74475000Y-65892500D02*
X74155000Y-65892500D01*
X74795000Y-62472500D02*
X74795000Y-65892500D01*
X74795000Y-65892500D02*
X74475000Y-65892500D01*
X75645000Y-66892500D02*
X75805000Y-66892500D01*
X76655000Y-62472500D02*
X76975000Y-62392500D01*
X76655000Y-65892500D02*
X76655000Y-62472500D01*
X76975000Y-62392500D02*
X77295000Y-62472500D01*
X76975000Y-65892500D02*
X76655000Y-65892500D01*
X77295000Y-62472500D02*
X77295000Y-65892500D01*
X77295000Y-65892500D02*
X76975000Y-65892500D01*
X78365000Y-61892500D02*
X78365000Y-66892500D01*
X78365000Y-66892500D02*
X79585000Y-66892500D01*
X78365000Y-69092500D02*
X78365000Y-66892500D01*
X79585000Y-60672500D02*
X79585000Y-69092500D01*
X79585000Y-61892500D02*
X78365000Y-61892500D01*
X79585000Y-69092500D02*
X78365000Y-69092500D01*
%TO.C,J3*%
X58365000Y-60672500D02*
X68585000Y-60672500D01*
X58365000Y-61892500D02*
X59585000Y-61892500D01*
X58365000Y-69092500D02*
X58365000Y-60672500D01*
X59585000Y-61892500D02*
X59585000Y-66892500D01*
X59585000Y-65892500D02*
X67365000Y-65892500D01*
X59585000Y-66892500D02*
X58365000Y-66892500D01*
X59585000Y-66892500D02*
X59585000Y-69092500D01*
X59585000Y-69092500D02*
X58365000Y-69092500D01*
X60655000Y-62472500D02*
X60975000Y-62392500D01*
X60655000Y-65892500D02*
X60655000Y-62472500D01*
X60675000Y-69582500D02*
X61275000Y-69582500D01*
X60975000Y-62392500D02*
X61295000Y-62472500D01*
X60975000Y-65892500D02*
X60655000Y-65892500D01*
X60975000Y-68982500D02*
X60675000Y-69582500D01*
X61275000Y-69582500D02*
X60975000Y-68982500D01*
X61295000Y-62472500D02*
X61295000Y-65892500D01*
X61295000Y-65892500D02*
X60975000Y-65892500D01*
X62145000Y-66892500D02*
X62305000Y-66892500D01*
X63155000Y-62472500D02*
X63475000Y-62392500D01*
X63155000Y-65892500D02*
X63155000Y-62472500D01*
X63475000Y-62392500D02*
X63795000Y-62472500D01*
X63475000Y-65892500D02*
X63155000Y-65892500D01*
X63795000Y-62472500D02*
X63795000Y-65892500D01*
X63795000Y-65892500D02*
X63475000Y-65892500D01*
X64645000Y-66892500D02*
X64805000Y-66892500D01*
X65655000Y-62472500D02*
X65975000Y-62392500D01*
X65655000Y-65892500D02*
X65655000Y-62472500D01*
X65975000Y-62392500D02*
X66295000Y-62472500D01*
X65975000Y-65892500D02*
X65655000Y-65892500D01*
X66295000Y-62472500D02*
X66295000Y-65892500D01*
X66295000Y-65892500D02*
X65975000Y-65892500D01*
X67365000Y-61892500D02*
X67365000Y-66892500D01*
X67365000Y-66892500D02*
X68585000Y-66892500D01*
X67365000Y-69092500D02*
X67365000Y-66892500D01*
X68585000Y-60672500D02*
X68585000Y-69092500D01*
X68585000Y-61892500D02*
X67365000Y-61892500D01*
X68585000Y-69092500D02*
X67365000Y-69092500D01*
%TO.C,J13*%
X40150000Y-68457500D02*
X40150000Y-69707500D01*
X40150000Y-69707500D02*
X41400000Y-69707500D01*
X40440000Y-61797500D02*
X40440000Y-69417500D01*
X40440000Y-69417500D02*
X46410000Y-69417500D01*
X40450000Y-61807500D02*
X40450000Y-63607500D01*
X40450000Y-63607500D02*
X41200000Y-63607500D01*
X40450000Y-65107500D02*
X40450000Y-66107500D01*
X40450000Y-66107500D02*
X41200000Y-66107500D01*
X40450000Y-67607500D02*
X40450000Y-69407500D01*
X40450000Y-69407500D02*
X41200000Y-69407500D01*
X41200000Y-61807500D02*
X40450000Y-61807500D01*
X41200000Y-63607500D02*
X41200000Y-61807500D01*
X41200000Y-65107500D02*
X40450000Y-65107500D01*
X41200000Y-66107500D02*
X41200000Y-65107500D01*
X41200000Y-67607500D02*
X40450000Y-67607500D01*
X41200000Y-69407500D02*
X41200000Y-67607500D01*
X42700000Y-61807500D02*
X42700000Y-62557500D01*
X42700000Y-62557500D02*
X45650000Y-62557500D01*
X42700000Y-68657500D02*
X45650000Y-68657500D01*
X42700000Y-69407500D02*
X42700000Y-68657500D01*
X45650000Y-62557500D02*
X45650000Y-65607500D01*
X45650000Y-68657500D02*
X45650000Y-65607500D01*
X46410000Y-61797500D02*
X40440000Y-61797500D01*
X46410000Y-69417500D02*
X46410000Y-61797500D01*
%TO.C,J9*%
X70525000Y-79895000D02*
X70525000Y-82555000D01*
X83285000Y-79895000D02*
X70525000Y-79895000D01*
X83285000Y-79895000D02*
X83285000Y-82555000D01*
X83285000Y-82555000D02*
X70525000Y-82555000D01*
X84555000Y-79895000D02*
X85885000Y-79895000D01*
X85885000Y-79895000D02*
X85885000Y-81225000D01*
%TO.C,J12*%
X91675000Y-81300000D02*
X91675000Y-82550000D01*
X91965000Y-81590000D02*
X91965000Y-87560000D01*
X91965000Y-87560000D02*
X99585000Y-87560000D01*
X91975000Y-81600000D02*
X91975000Y-82350000D01*
X91975000Y-82350000D02*
X93775000Y-82350000D01*
X91975000Y-83850000D02*
X92725000Y-83850000D01*
X92725000Y-83850000D02*
X92725000Y-86800000D01*
X92725000Y-86800000D02*
X95775000Y-86800000D01*
X92925000Y-81300000D02*
X91675000Y-81300000D01*
X93775000Y-81600000D02*
X91975000Y-81600000D01*
X93775000Y-82350000D02*
X93775000Y-81600000D01*
X95275000Y-81600000D02*
X95275000Y-82350000D01*
X95275000Y-82350000D02*
X96275000Y-82350000D01*
X96275000Y-81600000D02*
X95275000Y-81600000D01*
X96275000Y-82350000D02*
X96275000Y-81600000D01*
X97775000Y-81600000D02*
X97775000Y-82350000D01*
X97775000Y-82350000D02*
X99575000Y-82350000D01*
X98825000Y-83850000D02*
X98825000Y-86800000D01*
X98825000Y-86800000D02*
X95775000Y-86800000D01*
X99575000Y-81600000D02*
X97775000Y-81600000D01*
X99575000Y-82350000D02*
X99575000Y-81600000D01*
X99575000Y-83850000D02*
X98825000Y-83850000D01*
X99585000Y-81590000D02*
X91965000Y-81590000D01*
X99585000Y-87560000D02*
X99585000Y-81590000D01*
%TO.C,J18*%
X92690000Y-88790000D02*
X92690000Y-101410000D01*
X92690000Y-101410000D02*
X98660000Y-101410000D01*
X93450000Y-89550000D02*
X93450000Y-95100000D01*
X93450000Y-100650000D02*
X93450000Y-95100000D01*
X96400000Y-88800000D02*
X96400000Y-89550000D01*
X96400000Y-89550000D02*
X93450000Y-89550000D01*
X96400000Y-100650000D02*
X93450000Y-100650000D01*
X96400000Y-101400000D02*
X96400000Y-100650000D01*
X97900000Y-88800000D02*
X97900000Y-90600000D01*
X97900000Y-90600000D02*
X98650000Y-90600000D01*
X97900000Y-92100000D02*
X97900000Y-98100000D01*
X97900000Y-98100000D02*
X98650000Y-98100000D01*
X97900000Y-99600000D02*
X97900000Y-101400000D01*
X97900000Y-101400000D02*
X98650000Y-101400000D01*
X98650000Y-88800000D02*
X97900000Y-88800000D01*
X98650000Y-90600000D02*
X98650000Y-88800000D01*
X98650000Y-92100000D02*
X97900000Y-92100000D01*
X98650000Y-98100000D02*
X98650000Y-92100000D01*
X98650000Y-99600000D02*
X97900000Y-99600000D01*
X98650000Y-101400000D02*
X98650000Y-99600000D01*
X98660000Y-88790000D02*
X92690000Y-88790000D01*
X98660000Y-101410000D02*
X98660000Y-88790000D01*
X98950000Y-88500000D02*
X97700000Y-88500000D01*
X98950000Y-89750000D02*
X98950000Y-88500000D01*
%TO.C,J20*%
X62950000Y-107325000D02*
X62950000Y-106075000D01*
X62660000Y-107035000D02*
X62660000Y-101065000D01*
X62660000Y-101065000D02*
X55040000Y-101065000D01*
X62650000Y-107025000D02*
X62650000Y-106275000D01*
X62650000Y-106275000D02*
X60850000Y-106275000D01*
X62650000Y-104775000D02*
X61900000Y-104775000D01*
X61900000Y-104775000D02*
X61900000Y-101825000D01*
X61900000Y-101825000D02*
X58850000Y-101825000D01*
X61700000Y-107325000D02*
X62950000Y-107325000D01*
X60850000Y-107025000D02*
X62650000Y-107025000D01*
X60850000Y-106275000D02*
X60850000Y-107025000D01*
X59350000Y-107025000D02*
X59350000Y-106275000D01*
X59350000Y-106275000D02*
X58350000Y-106275000D01*
X58350000Y-107025000D02*
X59350000Y-107025000D01*
X58350000Y-106275000D02*
X58350000Y-107025000D01*
X56850000Y-107025000D02*
X56850000Y-106275000D01*
X56850000Y-106275000D02*
X55050000Y-106275000D01*
X55800000Y-104775000D02*
X55800000Y-101825000D01*
X55800000Y-101825000D02*
X58850000Y-101825000D01*
X55050000Y-107025000D02*
X56850000Y-107025000D01*
X55050000Y-106275000D02*
X55050000Y-107025000D01*
X55050000Y-104775000D02*
X55800000Y-104775000D01*
X55040000Y-107035000D02*
X62660000Y-107035000D01*
X55040000Y-101065000D02*
X55040000Y-107035000D01*
%TO.C,J11*%
X91675000Y-74300000D02*
X91675000Y-75550000D01*
X91965000Y-74590000D02*
X91965000Y-80560000D01*
X91965000Y-80560000D02*
X99585000Y-80560000D01*
X91975000Y-74600000D02*
X91975000Y-75350000D01*
X91975000Y-75350000D02*
X93775000Y-75350000D01*
X91975000Y-76850000D02*
X92725000Y-76850000D01*
X92725000Y-76850000D02*
X92725000Y-79800000D01*
X92725000Y-79800000D02*
X95775000Y-79800000D01*
X92925000Y-74300000D02*
X91675000Y-74300000D01*
X93775000Y-74600000D02*
X91975000Y-74600000D01*
X93775000Y-75350000D02*
X93775000Y-74600000D01*
X95275000Y-74600000D02*
X95275000Y-75350000D01*
X95275000Y-75350000D02*
X96275000Y-75350000D01*
X96275000Y-74600000D02*
X95275000Y-74600000D01*
X96275000Y-75350000D02*
X96275000Y-74600000D01*
X97775000Y-74600000D02*
X97775000Y-75350000D01*
X97775000Y-75350000D02*
X99575000Y-75350000D01*
X98825000Y-76850000D02*
X98825000Y-79800000D01*
X98825000Y-79800000D02*
X95775000Y-79800000D01*
X99575000Y-74600000D02*
X97775000Y-74600000D01*
X99575000Y-75350000D02*
X99575000Y-74600000D01*
X99575000Y-76850000D02*
X98825000Y-76850000D01*
X99585000Y-74590000D02*
X91965000Y-74590000D01*
X99585000Y-80560000D02*
X99585000Y-74590000D01*
%TO.C,J4*%
X47365000Y-60697500D02*
X57585000Y-60697500D01*
X47365000Y-61917500D02*
X48585000Y-61917500D01*
X47365000Y-69117500D02*
X47365000Y-60697500D01*
X48585000Y-61917500D02*
X48585000Y-66917500D01*
X48585000Y-65917500D02*
X56365000Y-65917500D01*
X48585000Y-66917500D02*
X47365000Y-66917500D01*
X48585000Y-66917500D02*
X48585000Y-69117500D01*
X48585000Y-69117500D02*
X47365000Y-69117500D01*
X49655000Y-62497500D02*
X49975000Y-62417500D01*
X49655000Y-65917500D02*
X49655000Y-62497500D01*
X49675000Y-69607500D02*
X50275000Y-69607500D01*
X49975000Y-62417500D02*
X50295000Y-62497500D01*
X49975000Y-65917500D02*
X49655000Y-65917500D01*
X49975000Y-69007500D02*
X49675000Y-69607500D01*
X50275000Y-69607500D02*
X49975000Y-69007500D01*
X50295000Y-62497500D02*
X50295000Y-65917500D01*
X50295000Y-65917500D02*
X49975000Y-65917500D01*
X51145000Y-66917500D02*
X51305000Y-66917500D01*
X52155000Y-62497500D02*
X52475000Y-62417500D01*
X52155000Y-65917500D02*
X52155000Y-62497500D01*
X52475000Y-62417500D02*
X52795000Y-62497500D01*
X52475000Y-65917500D02*
X52155000Y-65917500D01*
X52795000Y-62497500D02*
X52795000Y-65917500D01*
X52795000Y-65917500D02*
X52475000Y-65917500D01*
X53645000Y-66917500D02*
X53805000Y-66917500D01*
X54655000Y-62497500D02*
X54975000Y-62417500D01*
X54655000Y-65917500D02*
X54655000Y-62497500D01*
X54975000Y-62417500D02*
X55295000Y-62497500D01*
X54975000Y-65917500D02*
X54655000Y-65917500D01*
X55295000Y-62497500D02*
X55295000Y-65917500D01*
X55295000Y-65917500D02*
X54975000Y-65917500D01*
X56365000Y-61917500D02*
X56365000Y-66917500D01*
X56365000Y-66917500D02*
X57585000Y-66917500D01*
X56365000Y-69117500D02*
X56365000Y-66917500D01*
X57585000Y-60697500D02*
X57585000Y-69117500D01*
X57585000Y-61917500D02*
X56365000Y-61917500D01*
X57585000Y-69117500D02*
X56365000Y-69117500D01*
%TO.C,J10*%
X70645000Y-89845000D02*
X70645000Y-92505000D01*
X83405000Y-89845000D02*
X70645000Y-89845000D01*
X83405000Y-89845000D02*
X83405000Y-92505000D01*
X83405000Y-92505000D02*
X70645000Y-92505000D01*
X84675000Y-89845000D02*
X86005000Y-89845000D01*
X86005000Y-89845000D02*
X86005000Y-91175000D01*
%TO.C,J8*%
X91675000Y-67225000D02*
X91675000Y-68475000D01*
X91965000Y-67515000D02*
X91965000Y-73485000D01*
X91965000Y-73485000D02*
X99585000Y-73485000D01*
X91975000Y-67525000D02*
X91975000Y-68275000D01*
X91975000Y-68275000D02*
X93775000Y-68275000D01*
X91975000Y-69775000D02*
X92725000Y-69775000D01*
X92725000Y-69775000D02*
X92725000Y-72725000D01*
X92725000Y-72725000D02*
X95775000Y-72725000D01*
X92925000Y-67225000D02*
X91675000Y-67225000D01*
X93775000Y-67525000D02*
X91975000Y-67525000D01*
X93775000Y-68275000D02*
X93775000Y-67525000D01*
X95275000Y-67525000D02*
X95275000Y-68275000D01*
X95275000Y-68275000D02*
X96275000Y-68275000D01*
X96275000Y-67525000D02*
X95275000Y-67525000D01*
X96275000Y-68275000D02*
X96275000Y-67525000D01*
X97775000Y-67525000D02*
X97775000Y-68275000D01*
X97775000Y-68275000D02*
X99575000Y-68275000D01*
X98825000Y-69775000D02*
X98825000Y-72725000D01*
X98825000Y-72725000D02*
X95775000Y-72725000D01*
X99575000Y-67525000D02*
X97775000Y-67525000D01*
X99575000Y-68275000D02*
X99575000Y-67525000D01*
X99575000Y-69775000D02*
X98825000Y-69775000D01*
X99585000Y-67515000D02*
X91965000Y-67515000D01*
X99585000Y-73485000D02*
X99585000Y-67515000D01*
%TO.C,J14*%
X35250000Y-77550000D02*
X35250000Y-78800000D01*
X35250000Y-78800000D02*
X36500000Y-78800000D01*
X35540000Y-70890000D02*
X35540000Y-78510000D01*
X35540000Y-78510000D02*
X41510000Y-78510000D01*
X35550000Y-70900000D02*
X35550000Y-72700000D01*
X35550000Y-72700000D02*
X36300000Y-72700000D01*
X35550000Y-74200000D02*
X35550000Y-75200000D01*
X35550000Y-75200000D02*
X36300000Y-75200000D01*
X35550000Y-76700000D02*
X35550000Y-78500000D01*
X35550000Y-78500000D02*
X36300000Y-78500000D01*
X36300000Y-70900000D02*
X35550000Y-70900000D01*
X36300000Y-72700000D02*
X36300000Y-70900000D01*
X36300000Y-74200000D02*
X35550000Y-74200000D01*
X36300000Y-75200000D02*
X36300000Y-74200000D01*
X36300000Y-76700000D02*
X35550000Y-76700000D01*
X36300000Y-78500000D02*
X36300000Y-76700000D01*
X37800000Y-70900000D02*
X37800000Y-71650000D01*
X37800000Y-71650000D02*
X40750000Y-71650000D01*
X37800000Y-77750000D02*
X40750000Y-77750000D01*
X37800000Y-78500000D02*
X37800000Y-77750000D01*
X40750000Y-71650000D02*
X40750000Y-74700000D01*
X40750000Y-77750000D02*
X40750000Y-74700000D01*
X41510000Y-70890000D02*
X35540000Y-70890000D01*
X41510000Y-78510000D02*
X41510000Y-70890000D01*
%TO.C,J16*%
X91925000Y-107650000D02*
X91925000Y-106400000D01*
X91635000Y-107360000D02*
X91635000Y-101390000D01*
X91635000Y-101390000D02*
X84015000Y-101390000D01*
X91625000Y-107350000D02*
X91625000Y-106600000D01*
X91625000Y-106600000D02*
X89825000Y-106600000D01*
X91625000Y-105100000D02*
X90875000Y-105100000D01*
X90875000Y-105100000D02*
X90875000Y-102150000D01*
X90875000Y-102150000D02*
X87825000Y-102150000D01*
X90675000Y-107650000D02*
X91925000Y-107650000D01*
X89825000Y-107350000D02*
X91625000Y-107350000D01*
X89825000Y-106600000D02*
X89825000Y-107350000D01*
X88325000Y-107350000D02*
X88325000Y-106600000D01*
X88325000Y-106600000D02*
X87325000Y-106600000D01*
X87325000Y-107350000D02*
X88325000Y-107350000D01*
X87325000Y-106600000D02*
X87325000Y-107350000D01*
X85825000Y-107350000D02*
X85825000Y-106600000D01*
X85825000Y-106600000D02*
X84025000Y-106600000D01*
X84775000Y-105100000D02*
X84775000Y-102150000D01*
X84775000Y-102150000D02*
X87825000Y-102150000D01*
X84025000Y-107350000D02*
X85825000Y-107350000D01*
X84025000Y-106600000D02*
X84025000Y-107350000D01*
X84025000Y-105100000D02*
X84775000Y-105100000D01*
X84015000Y-107360000D02*
X91635000Y-107360000D01*
X84015000Y-101390000D02*
X84015000Y-107360000D01*
D14*
%TO.C,U1*%
X43190000Y-70255000D02*
X43190000Y-80135000D01*
X43190000Y-80135000D02*
X43190000Y-88265000D01*
X43190000Y-88265000D02*
X43190000Y-98155000D01*
X43190000Y-98155000D02*
X91390000Y-98155000D01*
X91390000Y-70255000D02*
X43190000Y-70255000D01*
X91390000Y-98155000D02*
X91390000Y-70255000D01*
D15*
X90360000Y-69635000D02*
G75*
G02*
X90160000Y-69635000I-100000J0D01*
G01*
X90160000Y-69635000D02*
G75*
G02*
X90360000Y-69635000I100000J0D01*
G01*
D13*
%TO.C,J5*%
X41415000Y-101032500D02*
X42635000Y-101032500D01*
X41415000Y-108232500D02*
X42635000Y-108232500D01*
X41415000Y-109452500D02*
X41415000Y-101032500D01*
X42635000Y-101032500D02*
X42635000Y-103232500D01*
X42635000Y-103232500D02*
X41415000Y-103232500D01*
X42635000Y-108232500D02*
X42635000Y-103232500D01*
X43705000Y-104232500D02*
X44025000Y-104232500D01*
X43705000Y-107652500D02*
X43705000Y-104232500D01*
X44025000Y-104232500D02*
X44345000Y-104232500D01*
X44025000Y-107732500D02*
X43705000Y-107652500D01*
X44345000Y-104232500D02*
X44345000Y-107652500D01*
X44345000Y-107652500D02*
X44025000Y-107732500D01*
X45355000Y-103232500D02*
X45195000Y-103232500D01*
X46205000Y-104232500D02*
X46525000Y-104232500D01*
X46205000Y-107652500D02*
X46205000Y-104232500D01*
X46525000Y-104232500D02*
X46845000Y-104232500D01*
X46525000Y-107732500D02*
X46205000Y-107652500D01*
X46845000Y-104232500D02*
X46845000Y-107652500D01*
X46845000Y-107652500D02*
X46525000Y-107732500D01*
X47855000Y-103232500D02*
X47695000Y-103232500D01*
X48705000Y-104232500D02*
X49025000Y-104232500D01*
X48705000Y-107652500D02*
X48705000Y-104232500D01*
X49025000Y-104232500D02*
X49345000Y-104232500D01*
X49025000Y-107732500D02*
X48705000Y-107652500D01*
X49345000Y-104232500D02*
X49345000Y-107652500D01*
X49345000Y-107652500D02*
X49025000Y-107732500D01*
X50355000Y-103232500D02*
X50195000Y-103232500D01*
X51205000Y-104232500D02*
X51525000Y-104232500D01*
X51205000Y-107652500D02*
X51205000Y-104232500D01*
X51225000Y-100542500D02*
X51525000Y-101142500D01*
X51525000Y-101142500D02*
X51825000Y-100542500D01*
X51525000Y-104232500D02*
X51845000Y-104232500D01*
X51525000Y-107732500D02*
X51205000Y-107652500D01*
X51825000Y-100542500D02*
X51225000Y-100542500D01*
X51845000Y-104232500D02*
X51845000Y-107652500D01*
X51845000Y-107652500D02*
X51525000Y-107732500D01*
X52915000Y-101032500D02*
X54135000Y-101032500D01*
X52915000Y-103232500D02*
X52915000Y-101032500D01*
X52915000Y-103232500D02*
X54135000Y-103232500D01*
X52915000Y-104232500D02*
X42635000Y-104232500D01*
X52915000Y-108232500D02*
X52915000Y-103232500D01*
X54135000Y-101032500D02*
X54135000Y-109452500D01*
X54135000Y-108232500D02*
X52915000Y-108232500D01*
X54135000Y-109452500D02*
X41415000Y-109452500D01*
%TO.C,J6*%
X32197500Y-88440000D02*
X40617500Y-88440000D01*
X32197500Y-101160000D02*
X32197500Y-88440000D01*
X33417500Y-88440000D02*
X33417500Y-89660000D01*
X33417500Y-89660000D02*
X38417500Y-89660000D01*
X33417500Y-99940000D02*
X38417500Y-99940000D01*
X33417500Y-101160000D02*
X33417500Y-99940000D01*
X33917500Y-91050000D02*
X33997500Y-90730000D01*
X33917500Y-93550000D02*
X33997500Y-93230000D01*
X33917500Y-96050000D02*
X33997500Y-95730000D01*
X33917500Y-98550000D02*
X33997500Y-98230000D01*
X33997500Y-90730000D02*
X37417500Y-90730000D01*
X33997500Y-91370000D02*
X33917500Y-91050000D01*
X33997500Y-93230000D02*
X37417500Y-93230000D01*
X33997500Y-93870000D02*
X33917500Y-93550000D01*
X33997500Y-95730000D02*
X37417500Y-95730000D01*
X33997500Y-96370000D02*
X33917500Y-96050000D01*
X33997500Y-98230000D02*
X37417500Y-98230000D01*
X33997500Y-98870000D02*
X33917500Y-98550000D01*
X37417500Y-90730000D02*
X37417500Y-91050000D01*
X37417500Y-91050000D02*
X37417500Y-91370000D01*
X37417500Y-91370000D02*
X33997500Y-91370000D01*
X37417500Y-93230000D02*
X37417500Y-93550000D01*
X37417500Y-93550000D02*
X37417500Y-93870000D01*
X37417500Y-93870000D02*
X33997500Y-93870000D01*
X37417500Y-95730000D02*
X37417500Y-96050000D01*
X37417500Y-96050000D02*
X37417500Y-96370000D01*
X37417500Y-96370000D02*
X33997500Y-96370000D01*
X37417500Y-98230000D02*
X37417500Y-98550000D01*
X37417500Y-98550000D02*
X37417500Y-98870000D01*
X37417500Y-98870000D02*
X33997500Y-98870000D01*
X37417500Y-99940000D02*
X37417500Y-89660000D01*
X38417500Y-89660000D02*
X38417500Y-88440000D01*
X38417500Y-92380000D02*
X38417500Y-92220000D01*
X38417500Y-94880000D02*
X38417500Y-94720000D01*
X38417500Y-97380000D02*
X38417500Y-97220000D01*
X38417500Y-99940000D02*
X38417500Y-101160000D01*
X38417500Y-99940000D02*
X40617500Y-99940000D01*
X40507500Y-98550000D02*
X41107500Y-98850000D01*
X40617500Y-88440000D02*
X40617500Y-89660000D01*
X40617500Y-89660000D02*
X38417500Y-89660000D01*
X40617500Y-99940000D02*
X40617500Y-101160000D01*
X40617500Y-101160000D02*
X32197500Y-101160000D01*
X41107500Y-98250000D02*
X40507500Y-98550000D01*
X41107500Y-98850000D02*
X41107500Y-98250000D01*
%TO.C,J15*%
X35250000Y-85975000D02*
X35250000Y-87225000D01*
X35250000Y-87225000D02*
X36500000Y-87225000D01*
X35540000Y-79315000D02*
X35540000Y-86935000D01*
X35540000Y-86935000D02*
X41510000Y-86935000D01*
X35550000Y-79325000D02*
X35550000Y-81125000D01*
X35550000Y-81125000D02*
X36300000Y-81125000D01*
X35550000Y-82625000D02*
X35550000Y-83625000D01*
X35550000Y-83625000D02*
X36300000Y-83625000D01*
X35550000Y-85125000D02*
X35550000Y-86925000D01*
X35550000Y-86925000D02*
X36300000Y-86925000D01*
X36300000Y-79325000D02*
X35550000Y-79325000D01*
X36300000Y-81125000D02*
X36300000Y-79325000D01*
X36300000Y-82625000D02*
X35550000Y-82625000D01*
X36300000Y-83625000D02*
X36300000Y-82625000D01*
X36300000Y-85125000D02*
X35550000Y-85125000D01*
X36300000Y-86925000D02*
X36300000Y-85125000D01*
X37800000Y-79325000D02*
X37800000Y-80075000D01*
X37800000Y-80075000D02*
X40750000Y-80075000D01*
X37800000Y-86175000D02*
X40750000Y-86175000D01*
X37800000Y-86925000D02*
X37800000Y-86175000D01*
X40750000Y-80075000D02*
X40750000Y-83125000D01*
X40750000Y-86175000D02*
X40750000Y-83125000D01*
X41510000Y-79315000D02*
X35540000Y-79315000D01*
X41510000Y-86935000D02*
X41510000Y-79315000D01*
D14*
%TO.C,ESP32*%
X46803500Y-79300000D02*
X90803500Y-79300000D01*
X46803500Y-93300000D02*
X46803500Y-79300000D01*
X90803500Y-79300000D02*
X90803500Y-93300000D01*
X90803500Y-93300000D02*
X46803500Y-93300000D01*
D15*
X46271500Y-82360000D02*
G75*
G02*
X46071500Y-82360000I-100000J0D01*
G01*
X46071500Y-82360000D02*
G75*
G02*
X46271500Y-82360000I100000J0D01*
G01*
D13*
%TO.C,J1*%
X80365000Y-60672500D02*
X90585000Y-60672500D01*
X80365000Y-61892500D02*
X81585000Y-61892500D01*
X80365000Y-69092500D02*
X80365000Y-60672500D01*
X81585000Y-61892500D02*
X81585000Y-66892500D01*
X81585000Y-65892500D02*
X89365000Y-65892500D01*
X81585000Y-66892500D02*
X80365000Y-66892500D01*
X81585000Y-66892500D02*
X81585000Y-69092500D01*
X81585000Y-69092500D02*
X80365000Y-69092500D01*
X82655000Y-62472500D02*
X82975000Y-62392500D01*
X82655000Y-65892500D02*
X82655000Y-62472500D01*
X82675000Y-69582500D02*
X83275000Y-69582500D01*
X82975000Y-62392500D02*
X83295000Y-62472500D01*
X82975000Y-65892500D02*
X82655000Y-65892500D01*
X82975000Y-68982500D02*
X82675000Y-69582500D01*
X83275000Y-69582500D02*
X82975000Y-68982500D01*
X83295000Y-62472500D02*
X83295000Y-65892500D01*
X83295000Y-65892500D02*
X82975000Y-65892500D01*
X84145000Y-66892500D02*
X84305000Y-66892500D01*
X85155000Y-62472500D02*
X85475000Y-62392500D01*
X85155000Y-65892500D02*
X85155000Y-62472500D01*
X85475000Y-62392500D02*
X85795000Y-62472500D01*
X85475000Y-65892500D02*
X85155000Y-65892500D01*
X85795000Y-62472500D02*
X85795000Y-65892500D01*
X85795000Y-65892500D02*
X85475000Y-65892500D01*
X86645000Y-66892500D02*
X86805000Y-66892500D01*
X87655000Y-62472500D02*
X87975000Y-62392500D01*
X87655000Y-65892500D02*
X87655000Y-62472500D01*
X87975000Y-62392500D02*
X88295000Y-62472500D01*
X87975000Y-65892500D02*
X87655000Y-65892500D01*
X88295000Y-62472500D02*
X88295000Y-65892500D01*
X88295000Y-65892500D02*
X87975000Y-65892500D01*
X89365000Y-61892500D02*
X89365000Y-66892500D01*
X89365000Y-66892500D02*
X90585000Y-66892500D01*
X89365000Y-69092500D02*
X89365000Y-66892500D01*
X90585000Y-60672500D02*
X90585000Y-69092500D01*
X90585000Y-61892500D02*
X89365000Y-61892500D01*
X90585000Y-69092500D02*
X89365000Y-69092500D01*
%TD*%
M02*
