M48
; DRILL file {KiCad 8.0.4} date 2024-08-29T12:49:43+0700
; FORMAT={-:-/ absolute / inch / decimal}
; #@! TF.CreationDate,2024-08-29T12:49:43+07:00
; #@! TF.GenerationSoftware,Kicad,Pcbnew,8.0.4
; #@! TF.FileFunction,Plated,1,2,PTH
FMAT,2
INCH
; #@! TA.AperFunction,Plated,PTH,ComponentDrill
T1C0.0374
; #@! TA.AperFunction,Plated,PTH,ComponentDrill
T2C0.0394
; #@! TA.AperFunction,Plated,PTH,ComponentDrill
T3C0.0402
; #@! TA.AperFunction,Plated,PTH,ComponentDrill
T4C0.0866
%
G90
G05
T1
X1.5357Y-3.5846
X1.5357Y-3.6831
X1.5357Y-3.7815
X1.5357Y-3.8799
X1.7333Y-4.041
X1.8317Y-4.041
X1.9301Y-4.041
X1.9675Y-2.6578
X2.0285Y-4.041
X2.0659Y-2.6578
X2.1644Y-2.6578
X2.4006Y-2.6568
X2.499Y-2.6568
X2.5974Y-2.6568
X2.8337Y-2.6568
X2.9321Y-2.6568
X3.0305Y-2.6568
X3.2667Y-2.6568
X3.3652Y-2.6568
X3.4636Y-2.6568
X3.7874Y-3.5965
X3.7874Y-3.6949
X3.7874Y-3.7933
X3.7874Y-3.8917
T2
X1.4961Y-2.8917
X1.4961Y-2.9902
X1.4961Y-3.2234
X1.4961Y-3.3219
X1.689Y-2.5338
X1.689Y-2.6322
X2.2677Y-4.1171
X2.3661Y-4.1171
X2.6024Y-4.1171
X2.7008Y-4.1171
X2.8289Y-3.1978
X2.8337Y-3.5896
X2.889Y-3.9567
X2.9289Y-3.1978
X2.9337Y-3.5896
X2.989Y-3.9567
X3.0289Y-3.1978
X3.0337Y-3.5896
X3.089Y-3.9567
X3.1289Y-3.1978
X3.1337Y-3.5896
X3.189Y-3.9567
X3.2289Y-3.1978
X3.2337Y-3.5896
X3.3289Y-3.1978
X3.3337Y-3.5896
X3.4085Y-4.1299
X3.5069Y-4.1299
X3.7215Y-2.7549
X3.7215Y-3.0335
X3.7215Y-3.3091
X3.8199Y-2.7549
X3.8199Y-3.0335
X3.8199Y-3.3091
T3
X1.7488Y-2.8152
X1.7488Y-3.8152
X1.8488Y-2.8152
X1.8488Y-3.8152
X1.8978Y-3.2476
X1.8978Y-3.3476
X1.8978Y-3.4476
X1.8978Y-3.5476
X1.9488Y-2.8152
X1.9488Y-3.8152
X2.0488Y-2.8152
X2.0488Y-3.8152
X2.1488Y-2.8152
X2.1488Y-3.8152
X2.2488Y-2.8152
X2.2488Y-3.8152
X2.3488Y-2.8152
X2.3488Y-3.8152
X2.4488Y-2.8152
X2.4488Y-3.8152
X2.5488Y-2.8152
X2.5488Y-3.8152
X2.6488Y-2.8152
X2.6488Y-3.8152
X2.7488Y-2.8152
X2.7488Y-3.8152
X2.8488Y-2.8152
X2.8488Y-3.8152
X2.9488Y-2.8152
X2.9488Y-3.8152
X3.0488Y-2.8152
X3.0488Y-3.8152
X3.1488Y-2.8152
X3.1488Y-3.8152
X3.2488Y-2.8152
X3.2488Y-3.8152
X3.3488Y-2.8152
X3.3488Y-3.8152
X3.4488Y-2.8152
X3.4488Y-3.8152
X3.5206Y-3.2476
X3.5206Y-3.3476
X3.5206Y-3.4476
X3.5206Y-3.5476
X3.5488Y-2.8152
X3.5488Y-3.8152
T4
X1.4587Y-2.5335
X1.4587Y-4.1398
X3.8376Y-2.5344
X3.8396Y-4.1398
M30
