%TF.GenerationSoftware,KiCad,Pcbnew,8.0.4*%
%TF.CreationDate,2024-08-29T12:49:35+07:00*%
%TF.ProjectId,ESP32,45535033-322e-46b6-9963-61645f706362,rev?*%
%TF.SameCoordinates,Original*%
%TF.FileFunction,Drillmap*%
%TF.FilePolarity,Positive*%
%FSLAX45Y45*%
G04 Gerber Fmt 4.5, Leading zero omitted, Abs format (unit mm)*
G04 Created by KiCad (PCBNEW 8.0.4) date 2024-08-29 12:49:35*
%MOMM*%
%LPD*%
G01*
G04 APERTURE LIST*
%ADD10C,0.050000*%
%ADD11C,0.200000*%
%ADD12C,0.100000*%
%ADD13C,0.102000*%
%ADD14C,0.220000*%
G04 APERTURE END LIST*
D10*
X3430000Y-6161250D02*
X10025000Y-6161250D01*
X10025000Y-10788750D01*
X3430000Y-10788750D01*
X3430000Y-6161250D01*
D11*
D12*
X3853250Y-9057500D02*
X3948250Y-9152500D01*
X3948250Y-9057500D02*
X3853250Y-9152500D01*
X3853250Y-9307500D02*
X3948250Y-9402500D01*
X3948250Y-9307500D02*
X3853250Y-9402500D01*
X3853250Y-9557500D02*
X3948250Y-9652500D01*
X3948250Y-9557500D02*
X3853250Y-9652500D01*
X3853250Y-9807500D02*
X3948250Y-9902500D01*
X3948250Y-9807500D02*
X3853250Y-9902500D01*
X4355000Y-10216750D02*
X4450000Y-10311750D01*
X4450000Y-10216750D02*
X4355000Y-10311750D01*
X4605000Y-10216750D02*
X4700000Y-10311750D01*
X4700000Y-10216750D02*
X4605000Y-10311750D01*
X4855000Y-10216750D02*
X4950000Y-10311750D01*
X4950000Y-10216750D02*
X4855000Y-10311750D01*
X4950000Y-6703250D02*
X5045000Y-6798250D01*
X5045000Y-6703250D02*
X4950000Y-6798250D01*
X5105000Y-10216750D02*
X5200000Y-10311750D01*
X5200000Y-10216750D02*
X5105000Y-10311750D01*
X5200000Y-6703250D02*
X5295000Y-6798250D01*
X5295000Y-6703250D02*
X5200000Y-6798250D01*
X5450000Y-6703250D02*
X5545000Y-6798250D01*
X5545000Y-6703250D02*
X5450000Y-6798250D01*
X6050000Y-6700750D02*
X6145000Y-6795750D01*
X6145000Y-6700750D02*
X6050000Y-6795750D01*
X6300000Y-6700750D02*
X6395000Y-6795750D01*
X6395000Y-6700750D02*
X6300000Y-6795750D01*
X6550000Y-6700750D02*
X6645000Y-6795750D01*
X6645000Y-6700750D02*
X6550000Y-6795750D01*
X7150000Y-6700750D02*
X7245000Y-6795750D01*
X7245000Y-6700750D02*
X7150000Y-6795750D01*
X7400000Y-6700750D02*
X7495000Y-6795750D01*
X7495000Y-6700750D02*
X7400000Y-6795750D01*
X7650000Y-6700750D02*
X7745000Y-6795750D01*
X7745000Y-6700750D02*
X7650000Y-6795750D01*
X8250000Y-6700750D02*
X8345000Y-6795750D01*
X8345000Y-6700750D02*
X8250000Y-6795750D01*
X8500000Y-6700750D02*
X8595000Y-6795750D01*
X8595000Y-6700750D02*
X8500000Y-6795750D01*
X8750000Y-6700750D02*
X8845000Y-6795750D01*
X8845000Y-6700750D02*
X8750000Y-6795750D01*
X9572500Y-9087500D02*
X9667500Y-9182500D01*
X9667500Y-9087500D02*
X9572500Y-9182500D01*
X9572500Y-9337500D02*
X9667500Y-9432500D01*
X9667500Y-9337500D02*
X9572500Y-9432500D01*
X9572500Y-9587500D02*
X9667500Y-9682500D01*
X9667500Y-9587500D02*
X9572500Y-9682500D01*
X9572500Y-9837500D02*
X9667500Y-9932500D01*
X9667500Y-9837500D02*
X9572500Y-9932500D01*
X3850000Y-7345000D02*
G75*
G02*
X3750000Y-7345000I-50000J0D01*
G01*
X3750000Y-7345000D02*
G75*
G02*
X3850000Y-7345000I50000J0D01*
G01*
X3850000Y-7595000D02*
G75*
G02*
X3750000Y-7595000I-50000J0D01*
G01*
X3750000Y-7595000D02*
G75*
G02*
X3850000Y-7595000I50000J0D01*
G01*
X3850000Y-8187500D02*
G75*
G02*
X3750000Y-8187500I-50000J0D01*
G01*
X3750000Y-8187500D02*
G75*
G02*
X3850000Y-8187500I50000J0D01*
G01*
X3850000Y-8437500D02*
G75*
G02*
X3750000Y-8437500I-50000J0D01*
G01*
X3750000Y-8437500D02*
G75*
G02*
X3850000Y-8437500I50000J0D01*
G01*
X4340000Y-6435750D02*
G75*
G02*
X4240000Y-6435750I-50000J0D01*
G01*
X4240000Y-6435750D02*
G75*
G02*
X4340000Y-6435750I50000J0D01*
G01*
X4340000Y-6685750D02*
G75*
G02*
X4240000Y-6685750I-50000J0D01*
G01*
X4240000Y-6685750D02*
G75*
G02*
X4340000Y-6685750I50000J0D01*
G01*
X5810000Y-10457500D02*
G75*
G02*
X5710000Y-10457500I-50000J0D01*
G01*
X5710000Y-10457500D02*
G75*
G02*
X5810000Y-10457500I50000J0D01*
G01*
X6060000Y-10457500D02*
G75*
G02*
X5960000Y-10457500I-50000J0D01*
G01*
X5960000Y-10457500D02*
G75*
G02*
X6060000Y-10457500I50000J0D01*
G01*
X6660000Y-10457500D02*
G75*
G02*
X6560000Y-10457500I-50000J0D01*
G01*
X6560000Y-10457500D02*
G75*
G02*
X6660000Y-10457500I50000J0D01*
G01*
X6910000Y-10457500D02*
G75*
G02*
X6810000Y-10457500I-50000J0D01*
G01*
X6810000Y-10457500D02*
G75*
G02*
X6910000Y-10457500I50000J0D01*
G01*
X7235500Y-8122500D02*
G75*
G02*
X7135500Y-8122500I-50000J0D01*
G01*
X7135500Y-8122500D02*
G75*
G02*
X7235500Y-8122500I50000J0D01*
G01*
X7247500Y-9117500D02*
G75*
G02*
X7147500Y-9117500I-50000J0D01*
G01*
X7147500Y-9117500D02*
G75*
G02*
X7247500Y-9117500I50000J0D01*
G01*
X7388000Y-10050000D02*
G75*
G02*
X7288000Y-10050000I-50000J0D01*
G01*
X7288000Y-10050000D02*
G75*
G02*
X7388000Y-10050000I50000J0D01*
G01*
X7489500Y-8122500D02*
G75*
G02*
X7389500Y-8122500I-50000J0D01*
G01*
X7389500Y-8122500D02*
G75*
G02*
X7489500Y-8122500I50000J0D01*
G01*
X7501500Y-9117500D02*
G75*
G02*
X7401500Y-9117500I-50000J0D01*
G01*
X7401500Y-9117500D02*
G75*
G02*
X7501500Y-9117500I50000J0D01*
G01*
X7642000Y-10050000D02*
G75*
G02*
X7542000Y-10050000I-50000J0D01*
G01*
X7542000Y-10050000D02*
G75*
G02*
X7642000Y-10050000I50000J0D01*
G01*
X7743500Y-8122500D02*
G75*
G02*
X7643500Y-8122500I-50000J0D01*
G01*
X7643500Y-8122500D02*
G75*
G02*
X7743500Y-8122500I50000J0D01*
G01*
X7755500Y-9117500D02*
G75*
G02*
X7655500Y-9117500I-50000J0D01*
G01*
X7655500Y-9117500D02*
G75*
G02*
X7755500Y-9117500I50000J0D01*
G01*
X7896000Y-10050000D02*
G75*
G02*
X7796000Y-10050000I-50000J0D01*
G01*
X7796000Y-10050000D02*
G75*
G02*
X7896000Y-10050000I50000J0D01*
G01*
X7997500Y-8122500D02*
G75*
G02*
X7897500Y-8122500I-50000J0D01*
G01*
X7897500Y-8122500D02*
G75*
G02*
X7997500Y-8122500I50000J0D01*
G01*
X8009500Y-9117500D02*
G75*
G02*
X7909500Y-9117500I-50000J0D01*
G01*
X7909500Y-9117500D02*
G75*
G02*
X8009500Y-9117500I50000J0D01*
G01*
X8150000Y-10050000D02*
G75*
G02*
X8050000Y-10050000I-50000J0D01*
G01*
X8050000Y-10050000D02*
G75*
G02*
X8150000Y-10050000I50000J0D01*
G01*
X8251500Y-8122500D02*
G75*
G02*
X8151500Y-8122500I-50000J0D01*
G01*
X8151500Y-8122500D02*
G75*
G02*
X8251500Y-8122500I50000J0D01*
G01*
X8263500Y-9117500D02*
G75*
G02*
X8163500Y-9117500I-50000J0D01*
G01*
X8163500Y-9117500D02*
G75*
G02*
X8263500Y-9117500I50000J0D01*
G01*
X8505500Y-8122500D02*
G75*
G02*
X8405500Y-8122500I-50000J0D01*
G01*
X8405500Y-8122500D02*
G75*
G02*
X8505500Y-8122500I50000J0D01*
G01*
X8517500Y-9117500D02*
G75*
G02*
X8417500Y-9117500I-50000J0D01*
G01*
X8417500Y-9117500D02*
G75*
G02*
X8517500Y-9117500I50000J0D01*
G01*
X8707500Y-10490000D02*
G75*
G02*
X8607500Y-10490000I-50000J0D01*
G01*
X8607500Y-10490000D02*
G75*
G02*
X8707500Y-10490000I50000J0D01*
G01*
X8957500Y-10490000D02*
G75*
G02*
X8857500Y-10490000I-50000J0D01*
G01*
X8857500Y-10490000D02*
G75*
G02*
X8957500Y-10490000I50000J0D01*
G01*
X9502500Y-6997500D02*
G75*
G02*
X9402500Y-6997500I-50000J0D01*
G01*
X9402500Y-6997500D02*
G75*
G02*
X9502500Y-6997500I50000J0D01*
G01*
X9502500Y-7705000D02*
G75*
G02*
X9402500Y-7705000I-50000J0D01*
G01*
X9402500Y-7705000D02*
G75*
G02*
X9502500Y-7705000I50000J0D01*
G01*
X9502500Y-8405000D02*
G75*
G02*
X9402500Y-8405000I-50000J0D01*
G01*
X9402500Y-8405000D02*
G75*
G02*
X9502500Y-8405000I50000J0D01*
G01*
X9752500Y-6997500D02*
G75*
G02*
X9652500Y-6997500I-50000J0D01*
G01*
X9652500Y-6997500D02*
G75*
G02*
X9752500Y-6997500I50000J0D01*
G01*
X9752500Y-7705000D02*
G75*
G02*
X9652500Y-7705000I-50000J0D01*
G01*
X9652500Y-7705000D02*
G75*
G02*
X9752500Y-7705000I50000J0D01*
G01*
X9752500Y-8405000D02*
G75*
G02*
X9652500Y-8405000I-50000J0D01*
G01*
X9652500Y-8405000D02*
G75*
G02*
X9752500Y-8405000I50000J0D01*
G01*
D13*
X4442000Y-7099500D02*
X4442000Y-7201500D01*
X4391000Y-7150500D02*
X4493000Y-7150500D01*
X4442000Y-9639500D02*
X4442000Y-9741500D01*
X4391000Y-9690500D02*
X4493000Y-9690500D01*
X4696000Y-7099500D02*
X4696000Y-7201500D01*
X4645000Y-7150500D02*
X4747000Y-7150500D01*
X4696000Y-9639500D02*
X4696000Y-9741500D01*
X4645000Y-9690500D02*
X4747000Y-9690500D01*
X4820350Y-8198000D02*
X4820350Y-8300000D01*
X4769350Y-8249000D02*
X4871350Y-8249000D01*
X4820350Y-8452000D02*
X4820350Y-8554000D01*
X4769350Y-8503000D02*
X4871350Y-8503000D01*
X4820350Y-8706000D02*
X4820350Y-8808000D01*
X4769350Y-8757000D02*
X4871350Y-8757000D01*
X4820350Y-8960000D02*
X4820350Y-9062000D01*
X4769350Y-9011000D02*
X4871350Y-9011000D01*
X4950000Y-7099500D02*
X4950000Y-7201500D01*
X4899000Y-7150500D02*
X5001000Y-7150500D01*
X4950000Y-9639500D02*
X4950000Y-9741500D01*
X4899000Y-9690500D02*
X5001000Y-9690500D01*
X5204000Y-7099500D02*
X5204000Y-7201500D01*
X5153000Y-7150500D02*
X5255000Y-7150500D01*
X5204000Y-9639500D02*
X5204000Y-9741500D01*
X5153000Y-9690500D02*
X5255000Y-9690500D01*
X5458000Y-7099500D02*
X5458000Y-7201500D01*
X5407000Y-7150500D02*
X5509000Y-7150500D01*
X5458000Y-9639500D02*
X5458000Y-9741500D01*
X5407000Y-9690500D02*
X5509000Y-9690500D01*
X5712000Y-7099500D02*
X5712000Y-7201500D01*
X5661000Y-7150500D02*
X5763000Y-7150500D01*
X5712000Y-9639500D02*
X5712000Y-9741500D01*
X5661000Y-9690500D02*
X5763000Y-9690500D01*
X5966000Y-7099500D02*
X5966000Y-7201500D01*
X5915000Y-7150500D02*
X6017000Y-7150500D01*
X5966000Y-9639500D02*
X5966000Y-9741500D01*
X5915000Y-9690500D02*
X6017000Y-9690500D01*
X6220000Y-7099500D02*
X6220000Y-7201500D01*
X6169000Y-7150500D02*
X6271000Y-7150500D01*
X6220000Y-9639500D02*
X6220000Y-9741500D01*
X6169000Y-9690500D02*
X6271000Y-9690500D01*
X6474000Y-7099500D02*
X6474000Y-7201500D01*
X6423000Y-7150500D02*
X6525000Y-7150500D01*
X6474000Y-9639500D02*
X6474000Y-9741500D01*
X6423000Y-9690500D02*
X6525000Y-9690500D01*
X6728000Y-7099500D02*
X6728000Y-7201500D01*
X6677000Y-7150500D02*
X6779000Y-7150500D01*
X6728000Y-9639500D02*
X6728000Y-9741500D01*
X6677000Y-9690500D02*
X6779000Y-9690500D01*
X6982000Y-7099500D02*
X6982000Y-7201500D01*
X6931000Y-7150500D02*
X7033000Y-7150500D01*
X6982000Y-9639500D02*
X6982000Y-9741500D01*
X6931000Y-9690500D02*
X7033000Y-9690500D01*
X7236000Y-7099500D02*
X7236000Y-7201500D01*
X7185000Y-7150500D02*
X7287000Y-7150500D01*
X7236000Y-9639500D02*
X7236000Y-9741500D01*
X7185000Y-9690500D02*
X7287000Y-9690500D01*
X7490000Y-7099500D02*
X7490000Y-7201500D01*
X7439000Y-7150500D02*
X7541000Y-7150500D01*
X7490000Y-9639500D02*
X7490000Y-9741500D01*
X7439000Y-9690500D02*
X7541000Y-9690500D01*
X7744000Y-7099500D02*
X7744000Y-7201500D01*
X7693000Y-7150500D02*
X7795000Y-7150500D01*
X7744000Y-9639500D02*
X7744000Y-9741500D01*
X7693000Y-9690500D02*
X7795000Y-9690500D01*
X7998000Y-7099500D02*
X7998000Y-7201500D01*
X7947000Y-7150500D02*
X8049000Y-7150500D01*
X7998000Y-9639500D02*
X7998000Y-9741500D01*
X7947000Y-9690500D02*
X8049000Y-9690500D01*
X8252000Y-7099500D02*
X8252000Y-7201500D01*
X8201000Y-7150500D02*
X8303000Y-7150500D01*
X8252000Y-9639500D02*
X8252000Y-9741500D01*
X8201000Y-9690500D02*
X8303000Y-9690500D01*
X8506000Y-7099500D02*
X8506000Y-7201500D01*
X8455000Y-7150500D02*
X8557000Y-7150500D01*
X8506000Y-9639500D02*
X8506000Y-9741500D01*
X8455000Y-9690500D02*
X8557000Y-9690500D01*
X8760000Y-7099500D02*
X8760000Y-7201500D01*
X8709000Y-7150500D02*
X8811000Y-7150500D01*
X8760000Y-9639500D02*
X8760000Y-9741500D01*
X8709000Y-9690500D02*
X8811000Y-9690500D01*
X8942350Y-8198000D02*
X8942350Y-8300000D01*
X8891350Y-8249000D02*
X8993350Y-8249000D01*
X8942350Y-8452000D02*
X8942350Y-8554000D01*
X8891350Y-8503000D02*
X8993350Y-8503000D01*
X8942350Y-8706000D02*
X8942350Y-8808000D01*
X8891350Y-8757000D02*
X8993350Y-8757000D01*
X8942350Y-8960000D02*
X8942350Y-9062000D01*
X8891350Y-9011000D02*
X8993350Y-9011000D01*
X9014000Y-7099500D02*
X9014000Y-7201500D01*
X8963000Y-7150500D02*
X9065000Y-7150500D01*
X9014000Y-9639500D02*
X9014000Y-9741500D01*
X8963000Y-9690500D02*
X9065000Y-9690500D01*
D14*
X3782782Y-6512782D02*
X3782782Y-6357217D01*
X3627217Y-6357217D01*
X3627217Y-6512782D01*
X3782782Y-6512782D01*
X3782782Y-10592783D02*
X3782782Y-10437218D01*
X3627217Y-10437218D01*
X3627217Y-10592783D01*
X3782782Y-10592783D01*
X9825283Y-6515282D02*
X9825283Y-6359717D01*
X9669718Y-6359717D01*
X9669718Y-6515282D01*
X9825283Y-6515282D01*
X9830283Y-10592783D02*
X9830283Y-10437218D01*
X9674718Y-10437218D01*
X9674718Y-10592783D01*
X9830283Y-10592783D01*
D11*
X3688277Y-11102734D02*
X3688277Y-10902734D01*
X3688277Y-10902734D02*
X3735896Y-10902734D01*
X3735896Y-10902734D02*
X3764467Y-10912258D01*
X3764467Y-10912258D02*
X3783515Y-10931305D01*
X3783515Y-10931305D02*
X3793039Y-10950353D01*
X3793039Y-10950353D02*
X3802562Y-10988448D01*
X3802562Y-10988448D02*
X3802562Y-11017020D01*
X3802562Y-11017020D02*
X3793039Y-11055115D01*
X3793039Y-11055115D02*
X3783515Y-11074162D01*
X3783515Y-11074162D02*
X3764467Y-11093210D01*
X3764467Y-11093210D02*
X3735896Y-11102734D01*
X3735896Y-11102734D02*
X3688277Y-11102734D01*
X3888277Y-11102734D02*
X3888277Y-10969400D01*
X3888277Y-11007496D02*
X3897801Y-10988448D01*
X3897801Y-10988448D02*
X3907324Y-10978924D01*
X3907324Y-10978924D02*
X3926372Y-10969400D01*
X3926372Y-10969400D02*
X3945420Y-10969400D01*
X4012086Y-11102734D02*
X4012086Y-10969400D01*
X4012086Y-10902734D02*
X4002562Y-10912258D01*
X4002562Y-10912258D02*
X4012086Y-10921781D01*
X4012086Y-10921781D02*
X4021610Y-10912258D01*
X4021610Y-10912258D02*
X4012086Y-10902734D01*
X4012086Y-10902734D02*
X4012086Y-10921781D01*
X4135896Y-11102734D02*
X4116848Y-11093210D01*
X4116848Y-11093210D02*
X4107324Y-11074162D01*
X4107324Y-11074162D02*
X4107324Y-10902734D01*
X4240658Y-11102734D02*
X4221610Y-11093210D01*
X4221610Y-11093210D02*
X4212086Y-11074162D01*
X4212086Y-11074162D02*
X4212086Y-10902734D01*
X4469229Y-11102734D02*
X4469229Y-10902734D01*
X4469229Y-10902734D02*
X4535896Y-11045591D01*
X4535896Y-11045591D02*
X4602563Y-10902734D01*
X4602563Y-10902734D02*
X4602563Y-11102734D01*
X4783515Y-11102734D02*
X4783515Y-10997972D01*
X4783515Y-10997972D02*
X4773991Y-10978924D01*
X4773991Y-10978924D02*
X4754944Y-10969400D01*
X4754944Y-10969400D02*
X4716848Y-10969400D01*
X4716848Y-10969400D02*
X4697801Y-10978924D01*
X4783515Y-11093210D02*
X4764467Y-11102734D01*
X4764467Y-11102734D02*
X4716848Y-11102734D01*
X4716848Y-11102734D02*
X4697801Y-11093210D01*
X4697801Y-11093210D02*
X4688277Y-11074162D01*
X4688277Y-11074162D02*
X4688277Y-11055115D01*
X4688277Y-11055115D02*
X4697801Y-11036067D01*
X4697801Y-11036067D02*
X4716848Y-11026543D01*
X4716848Y-11026543D02*
X4764467Y-11026543D01*
X4764467Y-11026543D02*
X4783515Y-11017020D01*
X4878753Y-10969400D02*
X4878753Y-11169400D01*
X4878753Y-10978924D02*
X4897801Y-10969400D01*
X4897801Y-10969400D02*
X4935896Y-10969400D01*
X4935896Y-10969400D02*
X4954944Y-10978924D01*
X4954944Y-10978924D02*
X4964467Y-10988448D01*
X4964467Y-10988448D02*
X4973991Y-11007496D01*
X4973991Y-11007496D02*
X4973991Y-11064639D01*
X4973991Y-11064639D02*
X4964467Y-11083686D01*
X4964467Y-11083686D02*
X4954944Y-11093210D01*
X4954944Y-11093210D02*
X4935896Y-11102734D01*
X4935896Y-11102734D02*
X4897801Y-11102734D01*
X4897801Y-11102734D02*
X4878753Y-11093210D01*
X5059705Y-11083686D02*
X5069229Y-11093210D01*
X5069229Y-11093210D02*
X5059705Y-11102734D01*
X5059705Y-11102734D02*
X5050182Y-11093210D01*
X5050182Y-11093210D02*
X5059705Y-11083686D01*
X5059705Y-11083686D02*
X5059705Y-11102734D01*
X5059705Y-10978924D02*
X5069229Y-10988448D01*
X5069229Y-10988448D02*
X5059705Y-10997972D01*
X5059705Y-10997972D02*
X5050182Y-10988448D01*
X5050182Y-10988448D02*
X5059705Y-10978924D01*
X5059705Y-10978924D02*
X5059705Y-10997972D01*
D12*
X3332500Y-11383750D02*
X3427500Y-11478750D01*
X3427500Y-11383750D02*
X3332500Y-11478750D01*
D11*
X3726372Y-11322734D02*
X3745420Y-11322734D01*
X3745420Y-11322734D02*
X3764467Y-11332258D01*
X3764467Y-11332258D02*
X3773991Y-11341781D01*
X3773991Y-11341781D02*
X3783515Y-11360829D01*
X3783515Y-11360829D02*
X3793039Y-11398924D01*
X3793039Y-11398924D02*
X3793039Y-11446543D01*
X3793039Y-11446543D02*
X3783515Y-11484638D01*
X3783515Y-11484638D02*
X3773991Y-11503686D01*
X3773991Y-11503686D02*
X3764467Y-11513210D01*
X3764467Y-11513210D02*
X3745420Y-11522734D01*
X3745420Y-11522734D02*
X3726372Y-11522734D01*
X3726372Y-11522734D02*
X3707324Y-11513210D01*
X3707324Y-11513210D02*
X3697801Y-11503686D01*
X3697801Y-11503686D02*
X3688277Y-11484638D01*
X3688277Y-11484638D02*
X3678753Y-11446543D01*
X3678753Y-11446543D02*
X3678753Y-11398924D01*
X3678753Y-11398924D02*
X3688277Y-11360829D01*
X3688277Y-11360829D02*
X3697801Y-11341781D01*
X3697801Y-11341781D02*
X3707324Y-11332258D01*
X3707324Y-11332258D02*
X3726372Y-11322734D01*
X3878753Y-11503686D02*
X3888277Y-11513210D01*
X3888277Y-11513210D02*
X3878753Y-11522734D01*
X3878753Y-11522734D02*
X3869229Y-11513210D01*
X3869229Y-11513210D02*
X3878753Y-11503686D01*
X3878753Y-11503686D02*
X3878753Y-11522734D01*
X3983515Y-11522734D02*
X4021610Y-11522734D01*
X4021610Y-11522734D02*
X4040658Y-11513210D01*
X4040658Y-11513210D02*
X4050182Y-11503686D01*
X4050182Y-11503686D02*
X4069229Y-11475115D01*
X4069229Y-11475115D02*
X4078753Y-11437019D01*
X4078753Y-11437019D02*
X4078753Y-11360829D01*
X4078753Y-11360829D02*
X4069229Y-11341781D01*
X4069229Y-11341781D02*
X4059705Y-11332258D01*
X4059705Y-11332258D02*
X4040658Y-11322734D01*
X4040658Y-11322734D02*
X4002562Y-11322734D01*
X4002562Y-11322734D02*
X3983515Y-11332258D01*
X3983515Y-11332258D02*
X3973991Y-11341781D01*
X3973991Y-11341781D02*
X3964467Y-11360829D01*
X3964467Y-11360829D02*
X3964467Y-11408448D01*
X3964467Y-11408448D02*
X3973991Y-11427496D01*
X3973991Y-11427496D02*
X3983515Y-11437019D01*
X3983515Y-11437019D02*
X4002562Y-11446543D01*
X4002562Y-11446543D02*
X4040658Y-11446543D01*
X4040658Y-11446543D02*
X4059705Y-11437019D01*
X4059705Y-11437019D02*
X4069229Y-11427496D01*
X4069229Y-11427496D02*
X4078753Y-11408448D01*
X4259705Y-11322734D02*
X4164467Y-11322734D01*
X4164467Y-11322734D02*
X4154943Y-11417972D01*
X4154943Y-11417972D02*
X4164467Y-11408448D01*
X4164467Y-11408448D02*
X4183515Y-11398924D01*
X4183515Y-11398924D02*
X4231134Y-11398924D01*
X4231134Y-11398924D02*
X4250182Y-11408448D01*
X4250182Y-11408448D02*
X4259705Y-11417972D01*
X4259705Y-11417972D02*
X4269229Y-11437019D01*
X4269229Y-11437019D02*
X4269229Y-11484638D01*
X4269229Y-11484638D02*
X4259705Y-11503686D01*
X4259705Y-11503686D02*
X4250182Y-11513210D01*
X4250182Y-11513210D02*
X4231134Y-11522734D01*
X4231134Y-11522734D02*
X4183515Y-11522734D01*
X4183515Y-11522734D02*
X4164467Y-11513210D01*
X4164467Y-11513210D02*
X4154943Y-11503686D01*
X4393039Y-11322734D02*
X4412086Y-11322734D01*
X4412086Y-11322734D02*
X4431134Y-11332258D01*
X4431134Y-11332258D02*
X4440658Y-11341781D01*
X4440658Y-11341781D02*
X4450182Y-11360829D01*
X4450182Y-11360829D02*
X4459705Y-11398924D01*
X4459705Y-11398924D02*
X4459705Y-11446543D01*
X4459705Y-11446543D02*
X4450182Y-11484638D01*
X4450182Y-11484638D02*
X4440658Y-11503686D01*
X4440658Y-11503686D02*
X4431134Y-11513210D01*
X4431134Y-11513210D02*
X4412086Y-11522734D01*
X4412086Y-11522734D02*
X4393039Y-11522734D01*
X4393039Y-11522734D02*
X4373991Y-11513210D01*
X4373991Y-11513210D02*
X4364467Y-11503686D01*
X4364467Y-11503686D02*
X4354944Y-11484638D01*
X4354944Y-11484638D02*
X4345420Y-11446543D01*
X4345420Y-11446543D02*
X4345420Y-11398924D01*
X4345420Y-11398924D02*
X4354944Y-11360829D01*
X4354944Y-11360829D02*
X4364467Y-11341781D01*
X4364467Y-11341781D02*
X4373991Y-11332258D01*
X4373991Y-11332258D02*
X4393039Y-11322734D01*
X4545420Y-11522734D02*
X4545420Y-11389400D01*
X4545420Y-11408448D02*
X4554944Y-11398924D01*
X4554944Y-11398924D02*
X4573991Y-11389400D01*
X4573991Y-11389400D02*
X4602563Y-11389400D01*
X4602563Y-11389400D02*
X4621610Y-11398924D01*
X4621610Y-11398924D02*
X4631134Y-11417972D01*
X4631134Y-11417972D02*
X4631134Y-11522734D01*
X4631134Y-11417972D02*
X4640658Y-11398924D01*
X4640658Y-11398924D02*
X4659705Y-11389400D01*
X4659705Y-11389400D02*
X4688277Y-11389400D01*
X4688277Y-11389400D02*
X4707325Y-11398924D01*
X4707325Y-11398924D02*
X4716848Y-11417972D01*
X4716848Y-11417972D02*
X4716848Y-11522734D01*
X4812086Y-11522734D02*
X4812086Y-11389400D01*
X4812086Y-11408448D02*
X4821610Y-11398924D01*
X4821610Y-11398924D02*
X4840658Y-11389400D01*
X4840658Y-11389400D02*
X4869229Y-11389400D01*
X4869229Y-11389400D02*
X4888277Y-11398924D01*
X4888277Y-11398924D02*
X4897801Y-11417972D01*
X4897801Y-11417972D02*
X4897801Y-11522734D01*
X4897801Y-11417972D02*
X4907325Y-11398924D01*
X4907325Y-11398924D02*
X4926372Y-11389400D01*
X4926372Y-11389400D02*
X4954944Y-11389400D01*
X4954944Y-11389400D02*
X4973991Y-11398924D01*
X4973991Y-11398924D02*
X4983515Y-11417972D01*
X4983515Y-11417972D02*
X4983515Y-11522734D01*
X5373991Y-11313210D02*
X5202563Y-11570353D01*
X5631134Y-11322734D02*
X5650182Y-11322734D01*
X5650182Y-11322734D02*
X5669229Y-11332258D01*
X5669229Y-11332258D02*
X5678753Y-11341781D01*
X5678753Y-11341781D02*
X5688277Y-11360829D01*
X5688277Y-11360829D02*
X5697801Y-11398924D01*
X5697801Y-11398924D02*
X5697801Y-11446543D01*
X5697801Y-11446543D02*
X5688277Y-11484638D01*
X5688277Y-11484638D02*
X5678753Y-11503686D01*
X5678753Y-11503686D02*
X5669229Y-11513210D01*
X5669229Y-11513210D02*
X5650182Y-11522734D01*
X5650182Y-11522734D02*
X5631134Y-11522734D01*
X5631134Y-11522734D02*
X5612086Y-11513210D01*
X5612086Y-11513210D02*
X5602563Y-11503686D01*
X5602563Y-11503686D02*
X5593039Y-11484638D01*
X5593039Y-11484638D02*
X5583515Y-11446543D01*
X5583515Y-11446543D02*
X5583515Y-11398924D01*
X5583515Y-11398924D02*
X5593039Y-11360829D01*
X5593039Y-11360829D02*
X5602563Y-11341781D01*
X5602563Y-11341781D02*
X5612086Y-11332258D01*
X5612086Y-11332258D02*
X5631134Y-11322734D01*
X5783515Y-11503686D02*
X5793039Y-11513210D01*
X5793039Y-11513210D02*
X5783515Y-11522734D01*
X5783515Y-11522734D02*
X5773991Y-11513210D01*
X5773991Y-11513210D02*
X5783515Y-11503686D01*
X5783515Y-11503686D02*
X5783515Y-11522734D01*
X5916848Y-11322734D02*
X5935896Y-11322734D01*
X5935896Y-11322734D02*
X5954944Y-11332258D01*
X5954944Y-11332258D02*
X5964467Y-11341781D01*
X5964467Y-11341781D02*
X5973991Y-11360829D01*
X5973991Y-11360829D02*
X5983515Y-11398924D01*
X5983515Y-11398924D02*
X5983515Y-11446543D01*
X5983515Y-11446543D02*
X5973991Y-11484638D01*
X5973991Y-11484638D02*
X5964467Y-11503686D01*
X5964467Y-11503686D02*
X5954944Y-11513210D01*
X5954944Y-11513210D02*
X5935896Y-11522734D01*
X5935896Y-11522734D02*
X5916848Y-11522734D01*
X5916848Y-11522734D02*
X5897801Y-11513210D01*
X5897801Y-11513210D02*
X5888277Y-11503686D01*
X5888277Y-11503686D02*
X5878753Y-11484638D01*
X5878753Y-11484638D02*
X5869229Y-11446543D01*
X5869229Y-11446543D02*
X5869229Y-11398924D01*
X5869229Y-11398924D02*
X5878753Y-11360829D01*
X5878753Y-11360829D02*
X5888277Y-11341781D01*
X5888277Y-11341781D02*
X5897801Y-11332258D01*
X5897801Y-11332258D02*
X5916848Y-11322734D01*
X6050182Y-11322734D02*
X6173991Y-11322734D01*
X6173991Y-11322734D02*
X6107325Y-11398924D01*
X6107325Y-11398924D02*
X6135896Y-11398924D01*
X6135896Y-11398924D02*
X6154944Y-11408448D01*
X6154944Y-11408448D02*
X6164467Y-11417972D01*
X6164467Y-11417972D02*
X6173991Y-11437019D01*
X6173991Y-11437019D02*
X6173991Y-11484638D01*
X6173991Y-11484638D02*
X6164467Y-11503686D01*
X6164467Y-11503686D02*
X6154944Y-11513210D01*
X6154944Y-11513210D02*
X6135896Y-11522734D01*
X6135896Y-11522734D02*
X6078753Y-11522734D01*
X6078753Y-11522734D02*
X6059706Y-11513210D01*
X6059706Y-11513210D02*
X6050182Y-11503686D01*
X6240658Y-11322734D02*
X6373991Y-11322734D01*
X6373991Y-11322734D02*
X6288277Y-11522734D01*
X6535896Y-11389400D02*
X6535896Y-11522734D01*
X6488277Y-11313210D02*
X6440658Y-11456067D01*
X6440658Y-11456067D02*
X6564467Y-11456067D01*
X6631134Y-11322734D02*
X6631134Y-11360829D01*
X6707325Y-11322734D02*
X6707325Y-11360829D01*
X7002563Y-11598924D02*
X6993039Y-11589400D01*
X6993039Y-11589400D02*
X6973991Y-11560829D01*
X6973991Y-11560829D02*
X6964468Y-11541781D01*
X6964468Y-11541781D02*
X6954944Y-11513210D01*
X6954944Y-11513210D02*
X6945420Y-11465591D01*
X6945420Y-11465591D02*
X6945420Y-11427496D01*
X6945420Y-11427496D02*
X6954944Y-11379877D01*
X6954944Y-11379877D02*
X6964468Y-11351305D01*
X6964468Y-11351305D02*
X6973991Y-11332258D01*
X6973991Y-11332258D02*
X6993039Y-11303686D01*
X6993039Y-11303686D02*
X7002563Y-11294162D01*
X7069229Y-11341781D02*
X7078753Y-11332258D01*
X7078753Y-11332258D02*
X7097801Y-11322734D01*
X7097801Y-11322734D02*
X7145420Y-11322734D01*
X7145420Y-11322734D02*
X7164468Y-11332258D01*
X7164468Y-11332258D02*
X7173991Y-11341781D01*
X7173991Y-11341781D02*
X7183515Y-11360829D01*
X7183515Y-11360829D02*
X7183515Y-11379877D01*
X7183515Y-11379877D02*
X7173991Y-11408448D01*
X7173991Y-11408448D02*
X7059706Y-11522734D01*
X7059706Y-11522734D02*
X7183515Y-11522734D01*
X7354944Y-11389400D02*
X7354944Y-11522734D01*
X7307325Y-11313210D02*
X7259706Y-11456067D01*
X7259706Y-11456067D02*
X7383515Y-11456067D01*
X7612087Y-11522734D02*
X7612087Y-11322734D01*
X7697801Y-11522734D02*
X7697801Y-11417972D01*
X7697801Y-11417972D02*
X7688277Y-11398924D01*
X7688277Y-11398924D02*
X7669230Y-11389400D01*
X7669230Y-11389400D02*
X7640658Y-11389400D01*
X7640658Y-11389400D02*
X7621610Y-11398924D01*
X7621610Y-11398924D02*
X7612087Y-11408448D01*
X7821610Y-11522734D02*
X7802563Y-11513210D01*
X7802563Y-11513210D02*
X7793039Y-11503686D01*
X7793039Y-11503686D02*
X7783515Y-11484638D01*
X7783515Y-11484638D02*
X7783515Y-11427496D01*
X7783515Y-11427496D02*
X7793039Y-11408448D01*
X7793039Y-11408448D02*
X7802563Y-11398924D01*
X7802563Y-11398924D02*
X7821610Y-11389400D01*
X7821610Y-11389400D02*
X7850182Y-11389400D01*
X7850182Y-11389400D02*
X7869230Y-11398924D01*
X7869230Y-11398924D02*
X7878753Y-11408448D01*
X7878753Y-11408448D02*
X7888277Y-11427496D01*
X7888277Y-11427496D02*
X7888277Y-11484638D01*
X7888277Y-11484638D02*
X7878753Y-11503686D01*
X7878753Y-11503686D02*
X7869230Y-11513210D01*
X7869230Y-11513210D02*
X7850182Y-11522734D01*
X7850182Y-11522734D02*
X7821610Y-11522734D01*
X8002563Y-11522734D02*
X7983515Y-11513210D01*
X7983515Y-11513210D02*
X7973991Y-11494162D01*
X7973991Y-11494162D02*
X7973991Y-11322734D01*
X8154944Y-11513210D02*
X8135896Y-11522734D01*
X8135896Y-11522734D02*
X8097801Y-11522734D01*
X8097801Y-11522734D02*
X8078753Y-11513210D01*
X8078753Y-11513210D02*
X8069230Y-11494162D01*
X8069230Y-11494162D02*
X8069230Y-11417972D01*
X8069230Y-11417972D02*
X8078753Y-11398924D01*
X8078753Y-11398924D02*
X8097801Y-11389400D01*
X8097801Y-11389400D02*
X8135896Y-11389400D01*
X8135896Y-11389400D02*
X8154944Y-11398924D01*
X8154944Y-11398924D02*
X8164468Y-11417972D01*
X8164468Y-11417972D02*
X8164468Y-11437019D01*
X8164468Y-11437019D02*
X8069230Y-11456067D01*
X8240658Y-11513210D02*
X8259706Y-11522734D01*
X8259706Y-11522734D02*
X8297801Y-11522734D01*
X8297801Y-11522734D02*
X8316849Y-11513210D01*
X8316849Y-11513210D02*
X8326372Y-11494162D01*
X8326372Y-11494162D02*
X8326372Y-11484638D01*
X8326372Y-11484638D02*
X8316849Y-11465591D01*
X8316849Y-11465591D02*
X8297801Y-11456067D01*
X8297801Y-11456067D02*
X8269230Y-11456067D01*
X8269230Y-11456067D02*
X8250182Y-11446543D01*
X8250182Y-11446543D02*
X8240658Y-11427496D01*
X8240658Y-11427496D02*
X8240658Y-11417972D01*
X8240658Y-11417972D02*
X8250182Y-11398924D01*
X8250182Y-11398924D02*
X8269230Y-11389400D01*
X8269230Y-11389400D02*
X8297801Y-11389400D01*
X8297801Y-11389400D02*
X8316849Y-11398924D01*
X8393039Y-11598924D02*
X8402563Y-11589400D01*
X8402563Y-11589400D02*
X8421611Y-11560829D01*
X8421611Y-11560829D02*
X8431134Y-11541781D01*
X8431134Y-11541781D02*
X8440658Y-11513210D01*
X8440658Y-11513210D02*
X8450182Y-11465591D01*
X8450182Y-11465591D02*
X8450182Y-11427496D01*
X8450182Y-11427496D02*
X8440658Y-11379877D01*
X8440658Y-11379877D02*
X8431134Y-11351305D01*
X8431134Y-11351305D02*
X8421611Y-11332258D01*
X8421611Y-11332258D02*
X8402563Y-11303686D01*
X8402563Y-11303686D02*
X8393039Y-11294162D01*
D12*
X3427500Y-11695250D02*
G75*
G02*
X3327500Y-11695250I-50000J0D01*
G01*
X3327500Y-11695250D02*
G75*
G02*
X3427500Y-11695250I50000J0D01*
G01*
D11*
X3793039Y-11786734D02*
X3678753Y-11786734D01*
X3735896Y-11786734D02*
X3735896Y-11586734D01*
X3735896Y-11586734D02*
X3716848Y-11615305D01*
X3716848Y-11615305D02*
X3697801Y-11634353D01*
X3697801Y-11634353D02*
X3678753Y-11643877D01*
X3878753Y-11767686D02*
X3888277Y-11777210D01*
X3888277Y-11777210D02*
X3878753Y-11786734D01*
X3878753Y-11786734D02*
X3869229Y-11777210D01*
X3869229Y-11777210D02*
X3878753Y-11767686D01*
X3878753Y-11767686D02*
X3878753Y-11786734D01*
X4012086Y-11586734D02*
X4031134Y-11586734D01*
X4031134Y-11586734D02*
X4050182Y-11596258D01*
X4050182Y-11596258D02*
X4059705Y-11605781D01*
X4059705Y-11605781D02*
X4069229Y-11624829D01*
X4069229Y-11624829D02*
X4078753Y-11662924D01*
X4078753Y-11662924D02*
X4078753Y-11710543D01*
X4078753Y-11710543D02*
X4069229Y-11748638D01*
X4069229Y-11748638D02*
X4059705Y-11767686D01*
X4059705Y-11767686D02*
X4050182Y-11777210D01*
X4050182Y-11777210D02*
X4031134Y-11786734D01*
X4031134Y-11786734D02*
X4012086Y-11786734D01*
X4012086Y-11786734D02*
X3993039Y-11777210D01*
X3993039Y-11777210D02*
X3983515Y-11767686D01*
X3983515Y-11767686D02*
X3973991Y-11748638D01*
X3973991Y-11748638D02*
X3964467Y-11710543D01*
X3964467Y-11710543D02*
X3964467Y-11662924D01*
X3964467Y-11662924D02*
X3973991Y-11624829D01*
X3973991Y-11624829D02*
X3983515Y-11605781D01*
X3983515Y-11605781D02*
X3993039Y-11596258D01*
X3993039Y-11596258D02*
X4012086Y-11586734D01*
X4202563Y-11586734D02*
X4221610Y-11586734D01*
X4221610Y-11586734D02*
X4240658Y-11596258D01*
X4240658Y-11596258D02*
X4250182Y-11605781D01*
X4250182Y-11605781D02*
X4259705Y-11624829D01*
X4259705Y-11624829D02*
X4269229Y-11662924D01*
X4269229Y-11662924D02*
X4269229Y-11710543D01*
X4269229Y-11710543D02*
X4259705Y-11748638D01*
X4259705Y-11748638D02*
X4250182Y-11767686D01*
X4250182Y-11767686D02*
X4240658Y-11777210D01*
X4240658Y-11777210D02*
X4221610Y-11786734D01*
X4221610Y-11786734D02*
X4202563Y-11786734D01*
X4202563Y-11786734D02*
X4183515Y-11777210D01*
X4183515Y-11777210D02*
X4173991Y-11767686D01*
X4173991Y-11767686D02*
X4164467Y-11748638D01*
X4164467Y-11748638D02*
X4154943Y-11710543D01*
X4154943Y-11710543D02*
X4154943Y-11662924D01*
X4154943Y-11662924D02*
X4164467Y-11624829D01*
X4164467Y-11624829D02*
X4173991Y-11605781D01*
X4173991Y-11605781D02*
X4183515Y-11596258D01*
X4183515Y-11596258D02*
X4202563Y-11586734D01*
X4393039Y-11586734D02*
X4412086Y-11586734D01*
X4412086Y-11586734D02*
X4431134Y-11596258D01*
X4431134Y-11596258D02*
X4440658Y-11605781D01*
X4440658Y-11605781D02*
X4450182Y-11624829D01*
X4450182Y-11624829D02*
X4459705Y-11662924D01*
X4459705Y-11662924D02*
X4459705Y-11710543D01*
X4459705Y-11710543D02*
X4450182Y-11748638D01*
X4450182Y-11748638D02*
X4440658Y-11767686D01*
X4440658Y-11767686D02*
X4431134Y-11777210D01*
X4431134Y-11777210D02*
X4412086Y-11786734D01*
X4412086Y-11786734D02*
X4393039Y-11786734D01*
X4393039Y-11786734D02*
X4373991Y-11777210D01*
X4373991Y-11777210D02*
X4364467Y-11767686D01*
X4364467Y-11767686D02*
X4354944Y-11748638D01*
X4354944Y-11748638D02*
X4345420Y-11710543D01*
X4345420Y-11710543D02*
X4345420Y-11662924D01*
X4345420Y-11662924D02*
X4354944Y-11624829D01*
X4354944Y-11624829D02*
X4364467Y-11605781D01*
X4364467Y-11605781D02*
X4373991Y-11596258D01*
X4373991Y-11596258D02*
X4393039Y-11586734D01*
X4545420Y-11786734D02*
X4545420Y-11653400D01*
X4545420Y-11672448D02*
X4554944Y-11662924D01*
X4554944Y-11662924D02*
X4573991Y-11653400D01*
X4573991Y-11653400D02*
X4602563Y-11653400D01*
X4602563Y-11653400D02*
X4621610Y-11662924D01*
X4621610Y-11662924D02*
X4631134Y-11681972D01*
X4631134Y-11681972D02*
X4631134Y-11786734D01*
X4631134Y-11681972D02*
X4640658Y-11662924D01*
X4640658Y-11662924D02*
X4659705Y-11653400D01*
X4659705Y-11653400D02*
X4688277Y-11653400D01*
X4688277Y-11653400D02*
X4707325Y-11662924D01*
X4707325Y-11662924D02*
X4716848Y-11681972D01*
X4716848Y-11681972D02*
X4716848Y-11786734D01*
X4812086Y-11786734D02*
X4812086Y-11653400D01*
X4812086Y-11672448D02*
X4821610Y-11662924D01*
X4821610Y-11662924D02*
X4840658Y-11653400D01*
X4840658Y-11653400D02*
X4869229Y-11653400D01*
X4869229Y-11653400D02*
X4888277Y-11662924D01*
X4888277Y-11662924D02*
X4897801Y-11681972D01*
X4897801Y-11681972D02*
X4897801Y-11786734D01*
X4897801Y-11681972D02*
X4907325Y-11662924D01*
X4907325Y-11662924D02*
X4926372Y-11653400D01*
X4926372Y-11653400D02*
X4954944Y-11653400D01*
X4954944Y-11653400D02*
X4973991Y-11662924D01*
X4973991Y-11662924D02*
X4983515Y-11681972D01*
X4983515Y-11681972D02*
X4983515Y-11786734D01*
X5373991Y-11577210D02*
X5202563Y-11834353D01*
X5631134Y-11586734D02*
X5650182Y-11586734D01*
X5650182Y-11586734D02*
X5669229Y-11596258D01*
X5669229Y-11596258D02*
X5678753Y-11605781D01*
X5678753Y-11605781D02*
X5688277Y-11624829D01*
X5688277Y-11624829D02*
X5697801Y-11662924D01*
X5697801Y-11662924D02*
X5697801Y-11710543D01*
X5697801Y-11710543D02*
X5688277Y-11748638D01*
X5688277Y-11748638D02*
X5678753Y-11767686D01*
X5678753Y-11767686D02*
X5669229Y-11777210D01*
X5669229Y-11777210D02*
X5650182Y-11786734D01*
X5650182Y-11786734D02*
X5631134Y-11786734D01*
X5631134Y-11786734D02*
X5612086Y-11777210D01*
X5612086Y-11777210D02*
X5602563Y-11767686D01*
X5602563Y-11767686D02*
X5593039Y-11748638D01*
X5593039Y-11748638D02*
X5583515Y-11710543D01*
X5583515Y-11710543D02*
X5583515Y-11662924D01*
X5583515Y-11662924D02*
X5593039Y-11624829D01*
X5593039Y-11624829D02*
X5602563Y-11605781D01*
X5602563Y-11605781D02*
X5612086Y-11596258D01*
X5612086Y-11596258D02*
X5631134Y-11586734D01*
X5783515Y-11767686D02*
X5793039Y-11777210D01*
X5793039Y-11777210D02*
X5783515Y-11786734D01*
X5783515Y-11786734D02*
X5773991Y-11777210D01*
X5773991Y-11777210D02*
X5783515Y-11767686D01*
X5783515Y-11767686D02*
X5783515Y-11786734D01*
X5916848Y-11586734D02*
X5935896Y-11586734D01*
X5935896Y-11586734D02*
X5954944Y-11596258D01*
X5954944Y-11596258D02*
X5964467Y-11605781D01*
X5964467Y-11605781D02*
X5973991Y-11624829D01*
X5973991Y-11624829D02*
X5983515Y-11662924D01*
X5983515Y-11662924D02*
X5983515Y-11710543D01*
X5983515Y-11710543D02*
X5973991Y-11748638D01*
X5973991Y-11748638D02*
X5964467Y-11767686D01*
X5964467Y-11767686D02*
X5954944Y-11777210D01*
X5954944Y-11777210D02*
X5935896Y-11786734D01*
X5935896Y-11786734D02*
X5916848Y-11786734D01*
X5916848Y-11786734D02*
X5897801Y-11777210D01*
X5897801Y-11777210D02*
X5888277Y-11767686D01*
X5888277Y-11767686D02*
X5878753Y-11748638D01*
X5878753Y-11748638D02*
X5869229Y-11710543D01*
X5869229Y-11710543D02*
X5869229Y-11662924D01*
X5869229Y-11662924D02*
X5878753Y-11624829D01*
X5878753Y-11624829D02*
X5888277Y-11605781D01*
X5888277Y-11605781D02*
X5897801Y-11596258D01*
X5897801Y-11596258D02*
X5916848Y-11586734D01*
X6050182Y-11586734D02*
X6173991Y-11586734D01*
X6173991Y-11586734D02*
X6107325Y-11662924D01*
X6107325Y-11662924D02*
X6135896Y-11662924D01*
X6135896Y-11662924D02*
X6154944Y-11672448D01*
X6154944Y-11672448D02*
X6164467Y-11681972D01*
X6164467Y-11681972D02*
X6173991Y-11701019D01*
X6173991Y-11701019D02*
X6173991Y-11748638D01*
X6173991Y-11748638D02*
X6164467Y-11767686D01*
X6164467Y-11767686D02*
X6154944Y-11777210D01*
X6154944Y-11777210D02*
X6135896Y-11786734D01*
X6135896Y-11786734D02*
X6078753Y-11786734D01*
X6078753Y-11786734D02*
X6059706Y-11777210D01*
X6059706Y-11777210D02*
X6050182Y-11767686D01*
X6269229Y-11786734D02*
X6307325Y-11786734D01*
X6307325Y-11786734D02*
X6326372Y-11777210D01*
X6326372Y-11777210D02*
X6335896Y-11767686D01*
X6335896Y-11767686D02*
X6354944Y-11739115D01*
X6354944Y-11739115D02*
X6364467Y-11701019D01*
X6364467Y-11701019D02*
X6364467Y-11624829D01*
X6364467Y-11624829D02*
X6354944Y-11605781D01*
X6354944Y-11605781D02*
X6345420Y-11596258D01*
X6345420Y-11596258D02*
X6326372Y-11586734D01*
X6326372Y-11586734D02*
X6288277Y-11586734D01*
X6288277Y-11586734D02*
X6269229Y-11596258D01*
X6269229Y-11596258D02*
X6259706Y-11605781D01*
X6259706Y-11605781D02*
X6250182Y-11624829D01*
X6250182Y-11624829D02*
X6250182Y-11672448D01*
X6250182Y-11672448D02*
X6259706Y-11691496D01*
X6259706Y-11691496D02*
X6269229Y-11701019D01*
X6269229Y-11701019D02*
X6288277Y-11710543D01*
X6288277Y-11710543D02*
X6326372Y-11710543D01*
X6326372Y-11710543D02*
X6345420Y-11701019D01*
X6345420Y-11701019D02*
X6354944Y-11691496D01*
X6354944Y-11691496D02*
X6364467Y-11672448D01*
X6535896Y-11653400D02*
X6535896Y-11786734D01*
X6488277Y-11577210D02*
X6440658Y-11720067D01*
X6440658Y-11720067D02*
X6564467Y-11720067D01*
X6631134Y-11586734D02*
X6631134Y-11624829D01*
X6707325Y-11586734D02*
X6707325Y-11624829D01*
X7002563Y-11862924D02*
X6993039Y-11853400D01*
X6993039Y-11853400D02*
X6973991Y-11824829D01*
X6973991Y-11824829D02*
X6964468Y-11805781D01*
X6964468Y-11805781D02*
X6954944Y-11777210D01*
X6954944Y-11777210D02*
X6945420Y-11729591D01*
X6945420Y-11729591D02*
X6945420Y-11691496D01*
X6945420Y-11691496D02*
X6954944Y-11643877D01*
X6954944Y-11643877D02*
X6964468Y-11615305D01*
X6964468Y-11615305D02*
X6973991Y-11596258D01*
X6973991Y-11596258D02*
X6993039Y-11567686D01*
X6993039Y-11567686D02*
X7002563Y-11558162D01*
X7059706Y-11586734D02*
X7183515Y-11586734D01*
X7183515Y-11586734D02*
X7116848Y-11662924D01*
X7116848Y-11662924D02*
X7145420Y-11662924D01*
X7145420Y-11662924D02*
X7164468Y-11672448D01*
X7164468Y-11672448D02*
X7173991Y-11681972D01*
X7173991Y-11681972D02*
X7183515Y-11701019D01*
X7183515Y-11701019D02*
X7183515Y-11748638D01*
X7183515Y-11748638D02*
X7173991Y-11767686D01*
X7173991Y-11767686D02*
X7164468Y-11777210D01*
X7164468Y-11777210D02*
X7145420Y-11786734D01*
X7145420Y-11786734D02*
X7088277Y-11786734D01*
X7088277Y-11786734D02*
X7069229Y-11777210D01*
X7069229Y-11777210D02*
X7059706Y-11767686D01*
X7354944Y-11653400D02*
X7354944Y-11786734D01*
X7307325Y-11577210D02*
X7259706Y-11720067D01*
X7259706Y-11720067D02*
X7383515Y-11720067D01*
X7612087Y-11786734D02*
X7612087Y-11586734D01*
X7697801Y-11786734D02*
X7697801Y-11681972D01*
X7697801Y-11681972D02*
X7688277Y-11662924D01*
X7688277Y-11662924D02*
X7669230Y-11653400D01*
X7669230Y-11653400D02*
X7640658Y-11653400D01*
X7640658Y-11653400D02*
X7621610Y-11662924D01*
X7621610Y-11662924D02*
X7612087Y-11672448D01*
X7821610Y-11786734D02*
X7802563Y-11777210D01*
X7802563Y-11777210D02*
X7793039Y-11767686D01*
X7793039Y-11767686D02*
X7783515Y-11748638D01*
X7783515Y-11748638D02*
X7783515Y-11691496D01*
X7783515Y-11691496D02*
X7793039Y-11672448D01*
X7793039Y-11672448D02*
X7802563Y-11662924D01*
X7802563Y-11662924D02*
X7821610Y-11653400D01*
X7821610Y-11653400D02*
X7850182Y-11653400D01*
X7850182Y-11653400D02*
X7869230Y-11662924D01*
X7869230Y-11662924D02*
X7878753Y-11672448D01*
X7878753Y-11672448D02*
X7888277Y-11691496D01*
X7888277Y-11691496D02*
X7888277Y-11748638D01*
X7888277Y-11748638D02*
X7878753Y-11767686D01*
X7878753Y-11767686D02*
X7869230Y-11777210D01*
X7869230Y-11777210D02*
X7850182Y-11786734D01*
X7850182Y-11786734D02*
X7821610Y-11786734D01*
X8002563Y-11786734D02*
X7983515Y-11777210D01*
X7983515Y-11777210D02*
X7973991Y-11758162D01*
X7973991Y-11758162D02*
X7973991Y-11586734D01*
X8154944Y-11777210D02*
X8135896Y-11786734D01*
X8135896Y-11786734D02*
X8097801Y-11786734D01*
X8097801Y-11786734D02*
X8078753Y-11777210D01*
X8078753Y-11777210D02*
X8069230Y-11758162D01*
X8069230Y-11758162D02*
X8069230Y-11681972D01*
X8069230Y-11681972D02*
X8078753Y-11662924D01*
X8078753Y-11662924D02*
X8097801Y-11653400D01*
X8097801Y-11653400D02*
X8135896Y-11653400D01*
X8135896Y-11653400D02*
X8154944Y-11662924D01*
X8154944Y-11662924D02*
X8164468Y-11681972D01*
X8164468Y-11681972D02*
X8164468Y-11701019D01*
X8164468Y-11701019D02*
X8069230Y-11720067D01*
X8240658Y-11777210D02*
X8259706Y-11786734D01*
X8259706Y-11786734D02*
X8297801Y-11786734D01*
X8297801Y-11786734D02*
X8316849Y-11777210D01*
X8316849Y-11777210D02*
X8326372Y-11758162D01*
X8326372Y-11758162D02*
X8326372Y-11748638D01*
X8326372Y-11748638D02*
X8316849Y-11729591D01*
X8316849Y-11729591D02*
X8297801Y-11720067D01*
X8297801Y-11720067D02*
X8269230Y-11720067D01*
X8269230Y-11720067D02*
X8250182Y-11710543D01*
X8250182Y-11710543D02*
X8240658Y-11691496D01*
X8240658Y-11691496D02*
X8240658Y-11681972D01*
X8240658Y-11681972D02*
X8250182Y-11662924D01*
X8250182Y-11662924D02*
X8269230Y-11653400D01*
X8269230Y-11653400D02*
X8297801Y-11653400D01*
X8297801Y-11653400D02*
X8316849Y-11662924D01*
X8393039Y-11862924D02*
X8402563Y-11853400D01*
X8402563Y-11853400D02*
X8421611Y-11824829D01*
X8421611Y-11824829D02*
X8431134Y-11805781D01*
X8431134Y-11805781D02*
X8440658Y-11777210D01*
X8440658Y-11777210D02*
X8450182Y-11729591D01*
X8450182Y-11729591D02*
X8450182Y-11691496D01*
X8450182Y-11691496D02*
X8440658Y-11643877D01*
X8440658Y-11643877D02*
X8431134Y-11615305D01*
X8431134Y-11615305D02*
X8421611Y-11596258D01*
X8421611Y-11596258D02*
X8402563Y-11567686D01*
X8402563Y-11567686D02*
X8393039Y-11558162D01*
D13*
X3376500Y-11908250D02*
X3376500Y-12010250D01*
X3325500Y-11959250D02*
X3427500Y-11959250D01*
D11*
X3793039Y-12050734D02*
X3678753Y-12050734D01*
X3735896Y-12050734D02*
X3735896Y-11850734D01*
X3735896Y-11850734D02*
X3716848Y-11879305D01*
X3716848Y-11879305D02*
X3697801Y-11898353D01*
X3697801Y-11898353D02*
X3678753Y-11907877D01*
X3878753Y-12031686D02*
X3888277Y-12041210D01*
X3888277Y-12041210D02*
X3878753Y-12050734D01*
X3878753Y-12050734D02*
X3869229Y-12041210D01*
X3869229Y-12041210D02*
X3878753Y-12031686D01*
X3878753Y-12031686D02*
X3878753Y-12050734D01*
X4012086Y-11850734D02*
X4031134Y-11850734D01*
X4031134Y-11850734D02*
X4050182Y-11860258D01*
X4050182Y-11860258D02*
X4059705Y-11869781D01*
X4059705Y-11869781D02*
X4069229Y-11888829D01*
X4069229Y-11888829D02*
X4078753Y-11926924D01*
X4078753Y-11926924D02*
X4078753Y-11974543D01*
X4078753Y-11974543D02*
X4069229Y-12012638D01*
X4069229Y-12012638D02*
X4059705Y-12031686D01*
X4059705Y-12031686D02*
X4050182Y-12041210D01*
X4050182Y-12041210D02*
X4031134Y-12050734D01*
X4031134Y-12050734D02*
X4012086Y-12050734D01*
X4012086Y-12050734D02*
X3993039Y-12041210D01*
X3993039Y-12041210D02*
X3983515Y-12031686D01*
X3983515Y-12031686D02*
X3973991Y-12012638D01*
X3973991Y-12012638D02*
X3964467Y-11974543D01*
X3964467Y-11974543D02*
X3964467Y-11926924D01*
X3964467Y-11926924D02*
X3973991Y-11888829D01*
X3973991Y-11888829D02*
X3983515Y-11869781D01*
X3983515Y-11869781D02*
X3993039Y-11860258D01*
X3993039Y-11860258D02*
X4012086Y-11850734D01*
X4154943Y-11869781D02*
X4164467Y-11860258D01*
X4164467Y-11860258D02*
X4183515Y-11850734D01*
X4183515Y-11850734D02*
X4231134Y-11850734D01*
X4231134Y-11850734D02*
X4250182Y-11860258D01*
X4250182Y-11860258D02*
X4259705Y-11869781D01*
X4259705Y-11869781D02*
X4269229Y-11888829D01*
X4269229Y-11888829D02*
X4269229Y-11907877D01*
X4269229Y-11907877D02*
X4259705Y-11936448D01*
X4259705Y-11936448D02*
X4145420Y-12050734D01*
X4145420Y-12050734D02*
X4269229Y-12050734D01*
X4393039Y-11850734D02*
X4412086Y-11850734D01*
X4412086Y-11850734D02*
X4431134Y-11860258D01*
X4431134Y-11860258D02*
X4440658Y-11869781D01*
X4440658Y-11869781D02*
X4450182Y-11888829D01*
X4450182Y-11888829D02*
X4459705Y-11926924D01*
X4459705Y-11926924D02*
X4459705Y-11974543D01*
X4459705Y-11974543D02*
X4450182Y-12012638D01*
X4450182Y-12012638D02*
X4440658Y-12031686D01*
X4440658Y-12031686D02*
X4431134Y-12041210D01*
X4431134Y-12041210D02*
X4412086Y-12050734D01*
X4412086Y-12050734D02*
X4393039Y-12050734D01*
X4393039Y-12050734D02*
X4373991Y-12041210D01*
X4373991Y-12041210D02*
X4364467Y-12031686D01*
X4364467Y-12031686D02*
X4354944Y-12012638D01*
X4354944Y-12012638D02*
X4345420Y-11974543D01*
X4345420Y-11974543D02*
X4345420Y-11926924D01*
X4345420Y-11926924D02*
X4354944Y-11888829D01*
X4354944Y-11888829D02*
X4364467Y-11869781D01*
X4364467Y-11869781D02*
X4373991Y-11860258D01*
X4373991Y-11860258D02*
X4393039Y-11850734D01*
X4545420Y-12050734D02*
X4545420Y-11917400D01*
X4545420Y-11936448D02*
X4554944Y-11926924D01*
X4554944Y-11926924D02*
X4573991Y-11917400D01*
X4573991Y-11917400D02*
X4602563Y-11917400D01*
X4602563Y-11917400D02*
X4621610Y-11926924D01*
X4621610Y-11926924D02*
X4631134Y-11945972D01*
X4631134Y-11945972D02*
X4631134Y-12050734D01*
X4631134Y-11945972D02*
X4640658Y-11926924D01*
X4640658Y-11926924D02*
X4659705Y-11917400D01*
X4659705Y-11917400D02*
X4688277Y-11917400D01*
X4688277Y-11917400D02*
X4707325Y-11926924D01*
X4707325Y-11926924D02*
X4716848Y-11945972D01*
X4716848Y-11945972D02*
X4716848Y-12050734D01*
X4812086Y-12050734D02*
X4812086Y-11917400D01*
X4812086Y-11936448D02*
X4821610Y-11926924D01*
X4821610Y-11926924D02*
X4840658Y-11917400D01*
X4840658Y-11917400D02*
X4869229Y-11917400D01*
X4869229Y-11917400D02*
X4888277Y-11926924D01*
X4888277Y-11926924D02*
X4897801Y-11945972D01*
X4897801Y-11945972D02*
X4897801Y-12050734D01*
X4897801Y-11945972D02*
X4907325Y-11926924D01*
X4907325Y-11926924D02*
X4926372Y-11917400D01*
X4926372Y-11917400D02*
X4954944Y-11917400D01*
X4954944Y-11917400D02*
X4973991Y-11926924D01*
X4973991Y-11926924D02*
X4983515Y-11945972D01*
X4983515Y-11945972D02*
X4983515Y-12050734D01*
X5373991Y-11841210D02*
X5202563Y-12098353D01*
X5631134Y-11850734D02*
X5650182Y-11850734D01*
X5650182Y-11850734D02*
X5669229Y-11860258D01*
X5669229Y-11860258D02*
X5678753Y-11869781D01*
X5678753Y-11869781D02*
X5688277Y-11888829D01*
X5688277Y-11888829D02*
X5697801Y-11926924D01*
X5697801Y-11926924D02*
X5697801Y-11974543D01*
X5697801Y-11974543D02*
X5688277Y-12012638D01*
X5688277Y-12012638D02*
X5678753Y-12031686D01*
X5678753Y-12031686D02*
X5669229Y-12041210D01*
X5669229Y-12041210D02*
X5650182Y-12050734D01*
X5650182Y-12050734D02*
X5631134Y-12050734D01*
X5631134Y-12050734D02*
X5612086Y-12041210D01*
X5612086Y-12041210D02*
X5602563Y-12031686D01*
X5602563Y-12031686D02*
X5593039Y-12012638D01*
X5593039Y-12012638D02*
X5583515Y-11974543D01*
X5583515Y-11974543D02*
X5583515Y-11926924D01*
X5583515Y-11926924D02*
X5593039Y-11888829D01*
X5593039Y-11888829D02*
X5602563Y-11869781D01*
X5602563Y-11869781D02*
X5612086Y-11860258D01*
X5612086Y-11860258D02*
X5631134Y-11850734D01*
X5783515Y-12031686D02*
X5793039Y-12041210D01*
X5793039Y-12041210D02*
X5783515Y-12050734D01*
X5783515Y-12050734D02*
X5773991Y-12041210D01*
X5773991Y-12041210D02*
X5783515Y-12031686D01*
X5783515Y-12031686D02*
X5783515Y-12050734D01*
X5916848Y-11850734D02*
X5935896Y-11850734D01*
X5935896Y-11850734D02*
X5954944Y-11860258D01*
X5954944Y-11860258D02*
X5964467Y-11869781D01*
X5964467Y-11869781D02*
X5973991Y-11888829D01*
X5973991Y-11888829D02*
X5983515Y-11926924D01*
X5983515Y-11926924D02*
X5983515Y-11974543D01*
X5983515Y-11974543D02*
X5973991Y-12012638D01*
X5973991Y-12012638D02*
X5964467Y-12031686D01*
X5964467Y-12031686D02*
X5954944Y-12041210D01*
X5954944Y-12041210D02*
X5935896Y-12050734D01*
X5935896Y-12050734D02*
X5916848Y-12050734D01*
X5916848Y-12050734D02*
X5897801Y-12041210D01*
X5897801Y-12041210D02*
X5888277Y-12031686D01*
X5888277Y-12031686D02*
X5878753Y-12012638D01*
X5878753Y-12012638D02*
X5869229Y-11974543D01*
X5869229Y-11974543D02*
X5869229Y-11926924D01*
X5869229Y-11926924D02*
X5878753Y-11888829D01*
X5878753Y-11888829D02*
X5888277Y-11869781D01*
X5888277Y-11869781D02*
X5897801Y-11860258D01*
X5897801Y-11860258D02*
X5916848Y-11850734D01*
X6154944Y-11917400D02*
X6154944Y-12050734D01*
X6107325Y-11841210D02*
X6059706Y-11984067D01*
X6059706Y-11984067D02*
X6183515Y-11984067D01*
X6297801Y-11850734D02*
X6316848Y-11850734D01*
X6316848Y-11850734D02*
X6335896Y-11860258D01*
X6335896Y-11860258D02*
X6345420Y-11869781D01*
X6345420Y-11869781D02*
X6354944Y-11888829D01*
X6354944Y-11888829D02*
X6364467Y-11926924D01*
X6364467Y-11926924D02*
X6364467Y-11974543D01*
X6364467Y-11974543D02*
X6354944Y-12012638D01*
X6354944Y-12012638D02*
X6345420Y-12031686D01*
X6345420Y-12031686D02*
X6335896Y-12041210D01*
X6335896Y-12041210D02*
X6316848Y-12050734D01*
X6316848Y-12050734D02*
X6297801Y-12050734D01*
X6297801Y-12050734D02*
X6278753Y-12041210D01*
X6278753Y-12041210D02*
X6269229Y-12031686D01*
X6269229Y-12031686D02*
X6259706Y-12012638D01*
X6259706Y-12012638D02*
X6250182Y-11974543D01*
X6250182Y-11974543D02*
X6250182Y-11926924D01*
X6250182Y-11926924D02*
X6259706Y-11888829D01*
X6259706Y-11888829D02*
X6269229Y-11869781D01*
X6269229Y-11869781D02*
X6278753Y-11860258D01*
X6278753Y-11860258D02*
X6297801Y-11850734D01*
X6440658Y-11869781D02*
X6450182Y-11860258D01*
X6450182Y-11860258D02*
X6469229Y-11850734D01*
X6469229Y-11850734D02*
X6516848Y-11850734D01*
X6516848Y-11850734D02*
X6535896Y-11860258D01*
X6535896Y-11860258D02*
X6545420Y-11869781D01*
X6545420Y-11869781D02*
X6554944Y-11888829D01*
X6554944Y-11888829D02*
X6554944Y-11907877D01*
X6554944Y-11907877D02*
X6545420Y-11936448D01*
X6545420Y-11936448D02*
X6431134Y-12050734D01*
X6431134Y-12050734D02*
X6554944Y-12050734D01*
X6631134Y-11850734D02*
X6631134Y-11888829D01*
X6707325Y-11850734D02*
X6707325Y-11888829D01*
X7002563Y-12126924D02*
X6993039Y-12117400D01*
X6993039Y-12117400D02*
X6973991Y-12088829D01*
X6973991Y-12088829D02*
X6964468Y-12069781D01*
X6964468Y-12069781D02*
X6954944Y-12041210D01*
X6954944Y-12041210D02*
X6945420Y-11993591D01*
X6945420Y-11993591D02*
X6945420Y-11955496D01*
X6945420Y-11955496D02*
X6954944Y-11907877D01*
X6954944Y-11907877D02*
X6964468Y-11879305D01*
X6964468Y-11879305D02*
X6973991Y-11860258D01*
X6973991Y-11860258D02*
X6993039Y-11831686D01*
X6993039Y-11831686D02*
X7002563Y-11822162D01*
X7164468Y-11917400D02*
X7164468Y-12050734D01*
X7116848Y-11841210D02*
X7069229Y-11984067D01*
X7069229Y-11984067D02*
X7193039Y-11984067D01*
X7354944Y-11850734D02*
X7316848Y-11850734D01*
X7316848Y-11850734D02*
X7297801Y-11860258D01*
X7297801Y-11860258D02*
X7288277Y-11869781D01*
X7288277Y-11869781D02*
X7269229Y-11898353D01*
X7269229Y-11898353D02*
X7259706Y-11936448D01*
X7259706Y-11936448D02*
X7259706Y-12012638D01*
X7259706Y-12012638D02*
X7269229Y-12031686D01*
X7269229Y-12031686D02*
X7278753Y-12041210D01*
X7278753Y-12041210D02*
X7297801Y-12050734D01*
X7297801Y-12050734D02*
X7335896Y-12050734D01*
X7335896Y-12050734D02*
X7354944Y-12041210D01*
X7354944Y-12041210D02*
X7364468Y-12031686D01*
X7364468Y-12031686D02*
X7373991Y-12012638D01*
X7373991Y-12012638D02*
X7373991Y-11965019D01*
X7373991Y-11965019D02*
X7364468Y-11945972D01*
X7364468Y-11945972D02*
X7354944Y-11936448D01*
X7354944Y-11936448D02*
X7335896Y-11926924D01*
X7335896Y-11926924D02*
X7297801Y-11926924D01*
X7297801Y-11926924D02*
X7278753Y-11936448D01*
X7278753Y-11936448D02*
X7269229Y-11945972D01*
X7269229Y-11945972D02*
X7259706Y-11965019D01*
X7612087Y-12050734D02*
X7612087Y-11850734D01*
X7697801Y-12050734D02*
X7697801Y-11945972D01*
X7697801Y-11945972D02*
X7688277Y-11926924D01*
X7688277Y-11926924D02*
X7669230Y-11917400D01*
X7669230Y-11917400D02*
X7640658Y-11917400D01*
X7640658Y-11917400D02*
X7621610Y-11926924D01*
X7621610Y-11926924D02*
X7612087Y-11936448D01*
X7821610Y-12050734D02*
X7802563Y-12041210D01*
X7802563Y-12041210D02*
X7793039Y-12031686D01*
X7793039Y-12031686D02*
X7783515Y-12012638D01*
X7783515Y-12012638D02*
X7783515Y-11955496D01*
X7783515Y-11955496D02*
X7793039Y-11936448D01*
X7793039Y-11936448D02*
X7802563Y-11926924D01*
X7802563Y-11926924D02*
X7821610Y-11917400D01*
X7821610Y-11917400D02*
X7850182Y-11917400D01*
X7850182Y-11917400D02*
X7869230Y-11926924D01*
X7869230Y-11926924D02*
X7878753Y-11936448D01*
X7878753Y-11936448D02*
X7888277Y-11955496D01*
X7888277Y-11955496D02*
X7888277Y-12012638D01*
X7888277Y-12012638D02*
X7878753Y-12031686D01*
X7878753Y-12031686D02*
X7869230Y-12041210D01*
X7869230Y-12041210D02*
X7850182Y-12050734D01*
X7850182Y-12050734D02*
X7821610Y-12050734D01*
X8002563Y-12050734D02*
X7983515Y-12041210D01*
X7983515Y-12041210D02*
X7973991Y-12022162D01*
X7973991Y-12022162D02*
X7973991Y-11850734D01*
X8154944Y-12041210D02*
X8135896Y-12050734D01*
X8135896Y-12050734D02*
X8097801Y-12050734D01*
X8097801Y-12050734D02*
X8078753Y-12041210D01*
X8078753Y-12041210D02*
X8069230Y-12022162D01*
X8069230Y-12022162D02*
X8069230Y-11945972D01*
X8069230Y-11945972D02*
X8078753Y-11926924D01*
X8078753Y-11926924D02*
X8097801Y-11917400D01*
X8097801Y-11917400D02*
X8135896Y-11917400D01*
X8135896Y-11917400D02*
X8154944Y-11926924D01*
X8154944Y-11926924D02*
X8164468Y-11945972D01*
X8164468Y-11945972D02*
X8164468Y-11965019D01*
X8164468Y-11965019D02*
X8069230Y-11984067D01*
X8240658Y-12041210D02*
X8259706Y-12050734D01*
X8259706Y-12050734D02*
X8297801Y-12050734D01*
X8297801Y-12050734D02*
X8316849Y-12041210D01*
X8316849Y-12041210D02*
X8326372Y-12022162D01*
X8326372Y-12022162D02*
X8326372Y-12012638D01*
X8326372Y-12012638D02*
X8316849Y-11993591D01*
X8316849Y-11993591D02*
X8297801Y-11984067D01*
X8297801Y-11984067D02*
X8269230Y-11984067D01*
X8269230Y-11984067D02*
X8250182Y-11974543D01*
X8250182Y-11974543D02*
X8240658Y-11955496D01*
X8240658Y-11955496D02*
X8240658Y-11945972D01*
X8240658Y-11945972D02*
X8250182Y-11926924D01*
X8250182Y-11926924D02*
X8269230Y-11917400D01*
X8269230Y-11917400D02*
X8297801Y-11917400D01*
X8297801Y-11917400D02*
X8316849Y-11926924D01*
X8393039Y-12126924D02*
X8402563Y-12117400D01*
X8402563Y-12117400D02*
X8421611Y-12088829D01*
X8421611Y-12088829D02*
X8431134Y-12069781D01*
X8431134Y-12069781D02*
X8440658Y-12041210D01*
X8440658Y-12041210D02*
X8450182Y-11993591D01*
X8450182Y-11993591D02*
X8450182Y-11955496D01*
X8450182Y-11955496D02*
X8440658Y-11907877D01*
X8440658Y-11907877D02*
X8431134Y-11879305D01*
X8431134Y-11879305D02*
X8421611Y-11860258D01*
X8421611Y-11860258D02*
X8402563Y-11831686D01*
X8402563Y-11831686D02*
X8393039Y-11822162D01*
X3398211Y-12293961D02*
X3398211Y-12152539D01*
X3256789Y-12152539D01*
X3256789Y-12293961D01*
X3398211Y-12293961D01*
X3678753Y-12133781D02*
X3688277Y-12124258D01*
X3688277Y-12124258D02*
X3707324Y-12114734D01*
X3707324Y-12114734D02*
X3754943Y-12114734D01*
X3754943Y-12114734D02*
X3773991Y-12124258D01*
X3773991Y-12124258D02*
X3783515Y-12133781D01*
X3783515Y-12133781D02*
X3793039Y-12152829D01*
X3793039Y-12152829D02*
X3793039Y-12171877D01*
X3793039Y-12171877D02*
X3783515Y-12200448D01*
X3783515Y-12200448D02*
X3669229Y-12314734D01*
X3669229Y-12314734D02*
X3793039Y-12314734D01*
X3878753Y-12295686D02*
X3888277Y-12305210D01*
X3888277Y-12305210D02*
X3878753Y-12314734D01*
X3878753Y-12314734D02*
X3869229Y-12305210D01*
X3869229Y-12305210D02*
X3878753Y-12295686D01*
X3878753Y-12295686D02*
X3878753Y-12314734D01*
X3964467Y-12133781D02*
X3973991Y-12124258D01*
X3973991Y-12124258D02*
X3993039Y-12114734D01*
X3993039Y-12114734D02*
X4040658Y-12114734D01*
X4040658Y-12114734D02*
X4059705Y-12124258D01*
X4059705Y-12124258D02*
X4069229Y-12133781D01*
X4069229Y-12133781D02*
X4078753Y-12152829D01*
X4078753Y-12152829D02*
X4078753Y-12171877D01*
X4078753Y-12171877D02*
X4069229Y-12200448D01*
X4069229Y-12200448D02*
X3954943Y-12314734D01*
X3954943Y-12314734D02*
X4078753Y-12314734D01*
X4202563Y-12114734D02*
X4221610Y-12114734D01*
X4221610Y-12114734D02*
X4240658Y-12124258D01*
X4240658Y-12124258D02*
X4250182Y-12133781D01*
X4250182Y-12133781D02*
X4259705Y-12152829D01*
X4259705Y-12152829D02*
X4269229Y-12190924D01*
X4269229Y-12190924D02*
X4269229Y-12238543D01*
X4269229Y-12238543D02*
X4259705Y-12276638D01*
X4259705Y-12276638D02*
X4250182Y-12295686D01*
X4250182Y-12295686D02*
X4240658Y-12305210D01*
X4240658Y-12305210D02*
X4221610Y-12314734D01*
X4221610Y-12314734D02*
X4202563Y-12314734D01*
X4202563Y-12314734D02*
X4183515Y-12305210D01*
X4183515Y-12305210D02*
X4173991Y-12295686D01*
X4173991Y-12295686D02*
X4164467Y-12276638D01*
X4164467Y-12276638D02*
X4154943Y-12238543D01*
X4154943Y-12238543D02*
X4154943Y-12190924D01*
X4154943Y-12190924D02*
X4164467Y-12152829D01*
X4164467Y-12152829D02*
X4173991Y-12133781D01*
X4173991Y-12133781D02*
X4183515Y-12124258D01*
X4183515Y-12124258D02*
X4202563Y-12114734D01*
X4393039Y-12114734D02*
X4412086Y-12114734D01*
X4412086Y-12114734D02*
X4431134Y-12124258D01*
X4431134Y-12124258D02*
X4440658Y-12133781D01*
X4440658Y-12133781D02*
X4450182Y-12152829D01*
X4450182Y-12152829D02*
X4459705Y-12190924D01*
X4459705Y-12190924D02*
X4459705Y-12238543D01*
X4459705Y-12238543D02*
X4450182Y-12276638D01*
X4450182Y-12276638D02*
X4440658Y-12295686D01*
X4440658Y-12295686D02*
X4431134Y-12305210D01*
X4431134Y-12305210D02*
X4412086Y-12314734D01*
X4412086Y-12314734D02*
X4393039Y-12314734D01*
X4393039Y-12314734D02*
X4373991Y-12305210D01*
X4373991Y-12305210D02*
X4364467Y-12295686D01*
X4364467Y-12295686D02*
X4354944Y-12276638D01*
X4354944Y-12276638D02*
X4345420Y-12238543D01*
X4345420Y-12238543D02*
X4345420Y-12190924D01*
X4345420Y-12190924D02*
X4354944Y-12152829D01*
X4354944Y-12152829D02*
X4364467Y-12133781D01*
X4364467Y-12133781D02*
X4373991Y-12124258D01*
X4373991Y-12124258D02*
X4393039Y-12114734D01*
X4545420Y-12314734D02*
X4545420Y-12181400D01*
X4545420Y-12200448D02*
X4554944Y-12190924D01*
X4554944Y-12190924D02*
X4573991Y-12181400D01*
X4573991Y-12181400D02*
X4602563Y-12181400D01*
X4602563Y-12181400D02*
X4621610Y-12190924D01*
X4621610Y-12190924D02*
X4631134Y-12209972D01*
X4631134Y-12209972D02*
X4631134Y-12314734D01*
X4631134Y-12209972D02*
X4640658Y-12190924D01*
X4640658Y-12190924D02*
X4659705Y-12181400D01*
X4659705Y-12181400D02*
X4688277Y-12181400D01*
X4688277Y-12181400D02*
X4707325Y-12190924D01*
X4707325Y-12190924D02*
X4716848Y-12209972D01*
X4716848Y-12209972D02*
X4716848Y-12314734D01*
X4812086Y-12314734D02*
X4812086Y-12181400D01*
X4812086Y-12200448D02*
X4821610Y-12190924D01*
X4821610Y-12190924D02*
X4840658Y-12181400D01*
X4840658Y-12181400D02*
X4869229Y-12181400D01*
X4869229Y-12181400D02*
X4888277Y-12190924D01*
X4888277Y-12190924D02*
X4897801Y-12209972D01*
X4897801Y-12209972D02*
X4897801Y-12314734D01*
X4897801Y-12209972D02*
X4907325Y-12190924D01*
X4907325Y-12190924D02*
X4926372Y-12181400D01*
X4926372Y-12181400D02*
X4954944Y-12181400D01*
X4954944Y-12181400D02*
X4973991Y-12190924D01*
X4973991Y-12190924D02*
X4983515Y-12209972D01*
X4983515Y-12209972D02*
X4983515Y-12314734D01*
X5373991Y-12105210D02*
X5202563Y-12362353D01*
X5631134Y-12114734D02*
X5650182Y-12114734D01*
X5650182Y-12114734D02*
X5669229Y-12124258D01*
X5669229Y-12124258D02*
X5678753Y-12133781D01*
X5678753Y-12133781D02*
X5688277Y-12152829D01*
X5688277Y-12152829D02*
X5697801Y-12190924D01*
X5697801Y-12190924D02*
X5697801Y-12238543D01*
X5697801Y-12238543D02*
X5688277Y-12276638D01*
X5688277Y-12276638D02*
X5678753Y-12295686D01*
X5678753Y-12295686D02*
X5669229Y-12305210D01*
X5669229Y-12305210D02*
X5650182Y-12314734D01*
X5650182Y-12314734D02*
X5631134Y-12314734D01*
X5631134Y-12314734D02*
X5612086Y-12305210D01*
X5612086Y-12305210D02*
X5602563Y-12295686D01*
X5602563Y-12295686D02*
X5593039Y-12276638D01*
X5593039Y-12276638D02*
X5583515Y-12238543D01*
X5583515Y-12238543D02*
X5583515Y-12190924D01*
X5583515Y-12190924D02*
X5593039Y-12152829D01*
X5593039Y-12152829D02*
X5602563Y-12133781D01*
X5602563Y-12133781D02*
X5612086Y-12124258D01*
X5612086Y-12124258D02*
X5631134Y-12114734D01*
X5783515Y-12295686D02*
X5793039Y-12305210D01*
X5793039Y-12305210D02*
X5783515Y-12314734D01*
X5783515Y-12314734D02*
X5773991Y-12305210D01*
X5773991Y-12305210D02*
X5783515Y-12295686D01*
X5783515Y-12295686D02*
X5783515Y-12314734D01*
X5916848Y-12114734D02*
X5935896Y-12114734D01*
X5935896Y-12114734D02*
X5954944Y-12124258D01*
X5954944Y-12124258D02*
X5964467Y-12133781D01*
X5964467Y-12133781D02*
X5973991Y-12152829D01*
X5973991Y-12152829D02*
X5983515Y-12190924D01*
X5983515Y-12190924D02*
X5983515Y-12238543D01*
X5983515Y-12238543D02*
X5973991Y-12276638D01*
X5973991Y-12276638D02*
X5964467Y-12295686D01*
X5964467Y-12295686D02*
X5954944Y-12305210D01*
X5954944Y-12305210D02*
X5935896Y-12314734D01*
X5935896Y-12314734D02*
X5916848Y-12314734D01*
X5916848Y-12314734D02*
X5897801Y-12305210D01*
X5897801Y-12305210D02*
X5888277Y-12295686D01*
X5888277Y-12295686D02*
X5878753Y-12276638D01*
X5878753Y-12276638D02*
X5869229Y-12238543D01*
X5869229Y-12238543D02*
X5869229Y-12190924D01*
X5869229Y-12190924D02*
X5878753Y-12152829D01*
X5878753Y-12152829D02*
X5888277Y-12133781D01*
X5888277Y-12133781D02*
X5897801Y-12124258D01*
X5897801Y-12124258D02*
X5916848Y-12114734D01*
X6097801Y-12200448D02*
X6078753Y-12190924D01*
X6078753Y-12190924D02*
X6069229Y-12181400D01*
X6069229Y-12181400D02*
X6059706Y-12162353D01*
X6059706Y-12162353D02*
X6059706Y-12152829D01*
X6059706Y-12152829D02*
X6069229Y-12133781D01*
X6069229Y-12133781D02*
X6078753Y-12124258D01*
X6078753Y-12124258D02*
X6097801Y-12114734D01*
X6097801Y-12114734D02*
X6135896Y-12114734D01*
X6135896Y-12114734D02*
X6154944Y-12124258D01*
X6154944Y-12124258D02*
X6164467Y-12133781D01*
X6164467Y-12133781D02*
X6173991Y-12152829D01*
X6173991Y-12152829D02*
X6173991Y-12162353D01*
X6173991Y-12162353D02*
X6164467Y-12181400D01*
X6164467Y-12181400D02*
X6154944Y-12190924D01*
X6154944Y-12190924D02*
X6135896Y-12200448D01*
X6135896Y-12200448D02*
X6097801Y-12200448D01*
X6097801Y-12200448D02*
X6078753Y-12209972D01*
X6078753Y-12209972D02*
X6069229Y-12219496D01*
X6069229Y-12219496D02*
X6059706Y-12238543D01*
X6059706Y-12238543D02*
X6059706Y-12276638D01*
X6059706Y-12276638D02*
X6069229Y-12295686D01*
X6069229Y-12295686D02*
X6078753Y-12305210D01*
X6078753Y-12305210D02*
X6097801Y-12314734D01*
X6097801Y-12314734D02*
X6135896Y-12314734D01*
X6135896Y-12314734D02*
X6154944Y-12305210D01*
X6154944Y-12305210D02*
X6164467Y-12295686D01*
X6164467Y-12295686D02*
X6173991Y-12276638D01*
X6173991Y-12276638D02*
X6173991Y-12238543D01*
X6173991Y-12238543D02*
X6164467Y-12219496D01*
X6164467Y-12219496D02*
X6154944Y-12209972D01*
X6154944Y-12209972D02*
X6135896Y-12200448D01*
X6345420Y-12114734D02*
X6307325Y-12114734D01*
X6307325Y-12114734D02*
X6288277Y-12124258D01*
X6288277Y-12124258D02*
X6278753Y-12133781D01*
X6278753Y-12133781D02*
X6259706Y-12162353D01*
X6259706Y-12162353D02*
X6250182Y-12200448D01*
X6250182Y-12200448D02*
X6250182Y-12276638D01*
X6250182Y-12276638D02*
X6259706Y-12295686D01*
X6259706Y-12295686D02*
X6269229Y-12305210D01*
X6269229Y-12305210D02*
X6288277Y-12314734D01*
X6288277Y-12314734D02*
X6326372Y-12314734D01*
X6326372Y-12314734D02*
X6345420Y-12305210D01*
X6345420Y-12305210D02*
X6354944Y-12295686D01*
X6354944Y-12295686D02*
X6364467Y-12276638D01*
X6364467Y-12276638D02*
X6364467Y-12229019D01*
X6364467Y-12229019D02*
X6354944Y-12209972D01*
X6354944Y-12209972D02*
X6345420Y-12200448D01*
X6345420Y-12200448D02*
X6326372Y-12190924D01*
X6326372Y-12190924D02*
X6288277Y-12190924D01*
X6288277Y-12190924D02*
X6269229Y-12200448D01*
X6269229Y-12200448D02*
X6259706Y-12209972D01*
X6259706Y-12209972D02*
X6250182Y-12229019D01*
X6535896Y-12114734D02*
X6497801Y-12114734D01*
X6497801Y-12114734D02*
X6478753Y-12124258D01*
X6478753Y-12124258D02*
X6469229Y-12133781D01*
X6469229Y-12133781D02*
X6450182Y-12162353D01*
X6450182Y-12162353D02*
X6440658Y-12200448D01*
X6440658Y-12200448D02*
X6440658Y-12276638D01*
X6440658Y-12276638D02*
X6450182Y-12295686D01*
X6450182Y-12295686D02*
X6459706Y-12305210D01*
X6459706Y-12305210D02*
X6478753Y-12314734D01*
X6478753Y-12314734D02*
X6516848Y-12314734D01*
X6516848Y-12314734D02*
X6535896Y-12305210D01*
X6535896Y-12305210D02*
X6545420Y-12295686D01*
X6545420Y-12295686D02*
X6554944Y-12276638D01*
X6554944Y-12276638D02*
X6554944Y-12229019D01*
X6554944Y-12229019D02*
X6545420Y-12209972D01*
X6545420Y-12209972D02*
X6535896Y-12200448D01*
X6535896Y-12200448D02*
X6516848Y-12190924D01*
X6516848Y-12190924D02*
X6478753Y-12190924D01*
X6478753Y-12190924D02*
X6459706Y-12200448D01*
X6459706Y-12200448D02*
X6450182Y-12209972D01*
X6450182Y-12209972D02*
X6440658Y-12229019D01*
X6631134Y-12114734D02*
X6631134Y-12152829D01*
X6707325Y-12114734D02*
X6707325Y-12152829D01*
X7002563Y-12390924D02*
X6993039Y-12381400D01*
X6993039Y-12381400D02*
X6973991Y-12352829D01*
X6973991Y-12352829D02*
X6964468Y-12333781D01*
X6964468Y-12333781D02*
X6954944Y-12305210D01*
X6954944Y-12305210D02*
X6945420Y-12257591D01*
X6945420Y-12257591D02*
X6945420Y-12219496D01*
X6945420Y-12219496D02*
X6954944Y-12171877D01*
X6954944Y-12171877D02*
X6964468Y-12143305D01*
X6964468Y-12143305D02*
X6973991Y-12124258D01*
X6973991Y-12124258D02*
X6993039Y-12095686D01*
X6993039Y-12095686D02*
X7002563Y-12086162D01*
X7164468Y-12181400D02*
X7164468Y-12314734D01*
X7116848Y-12105210D02*
X7069229Y-12248067D01*
X7069229Y-12248067D02*
X7193039Y-12248067D01*
X7421610Y-12314734D02*
X7421610Y-12114734D01*
X7507325Y-12314734D02*
X7507325Y-12209972D01*
X7507325Y-12209972D02*
X7497801Y-12190924D01*
X7497801Y-12190924D02*
X7478753Y-12181400D01*
X7478753Y-12181400D02*
X7450182Y-12181400D01*
X7450182Y-12181400D02*
X7431134Y-12190924D01*
X7431134Y-12190924D02*
X7421610Y-12200448D01*
X7631134Y-12314734D02*
X7612087Y-12305210D01*
X7612087Y-12305210D02*
X7602563Y-12295686D01*
X7602563Y-12295686D02*
X7593039Y-12276638D01*
X7593039Y-12276638D02*
X7593039Y-12219496D01*
X7593039Y-12219496D02*
X7602563Y-12200448D01*
X7602563Y-12200448D02*
X7612087Y-12190924D01*
X7612087Y-12190924D02*
X7631134Y-12181400D01*
X7631134Y-12181400D02*
X7659706Y-12181400D01*
X7659706Y-12181400D02*
X7678753Y-12190924D01*
X7678753Y-12190924D02*
X7688277Y-12200448D01*
X7688277Y-12200448D02*
X7697801Y-12219496D01*
X7697801Y-12219496D02*
X7697801Y-12276638D01*
X7697801Y-12276638D02*
X7688277Y-12295686D01*
X7688277Y-12295686D02*
X7678753Y-12305210D01*
X7678753Y-12305210D02*
X7659706Y-12314734D01*
X7659706Y-12314734D02*
X7631134Y-12314734D01*
X7812087Y-12314734D02*
X7793039Y-12305210D01*
X7793039Y-12305210D02*
X7783515Y-12286162D01*
X7783515Y-12286162D02*
X7783515Y-12114734D01*
X7964468Y-12305210D02*
X7945420Y-12314734D01*
X7945420Y-12314734D02*
X7907325Y-12314734D01*
X7907325Y-12314734D02*
X7888277Y-12305210D01*
X7888277Y-12305210D02*
X7878753Y-12286162D01*
X7878753Y-12286162D02*
X7878753Y-12209972D01*
X7878753Y-12209972D02*
X7888277Y-12190924D01*
X7888277Y-12190924D02*
X7907325Y-12181400D01*
X7907325Y-12181400D02*
X7945420Y-12181400D01*
X7945420Y-12181400D02*
X7964468Y-12190924D01*
X7964468Y-12190924D02*
X7973991Y-12209972D01*
X7973991Y-12209972D02*
X7973991Y-12229019D01*
X7973991Y-12229019D02*
X7878753Y-12248067D01*
X8050182Y-12305210D02*
X8069230Y-12314734D01*
X8069230Y-12314734D02*
X8107325Y-12314734D01*
X8107325Y-12314734D02*
X8126372Y-12305210D01*
X8126372Y-12305210D02*
X8135896Y-12286162D01*
X8135896Y-12286162D02*
X8135896Y-12276638D01*
X8135896Y-12276638D02*
X8126372Y-12257591D01*
X8126372Y-12257591D02*
X8107325Y-12248067D01*
X8107325Y-12248067D02*
X8078753Y-12248067D01*
X8078753Y-12248067D02*
X8059706Y-12238543D01*
X8059706Y-12238543D02*
X8050182Y-12219496D01*
X8050182Y-12219496D02*
X8050182Y-12209972D01*
X8050182Y-12209972D02*
X8059706Y-12190924D01*
X8059706Y-12190924D02*
X8078753Y-12181400D01*
X8078753Y-12181400D02*
X8107325Y-12181400D01*
X8107325Y-12181400D02*
X8126372Y-12190924D01*
X8202563Y-12390924D02*
X8212087Y-12381400D01*
X8212087Y-12381400D02*
X8231134Y-12352829D01*
X8231134Y-12352829D02*
X8240658Y-12333781D01*
X8240658Y-12333781D02*
X8250182Y-12305210D01*
X8250182Y-12305210D02*
X8259706Y-12257591D01*
X8259706Y-12257591D02*
X8259706Y-12219496D01*
X8259706Y-12219496D02*
X8250182Y-12171877D01*
X8250182Y-12171877D02*
X8240658Y-12143305D01*
X8240658Y-12143305D02*
X8231134Y-12124258D01*
X8231134Y-12124258D02*
X8212087Y-12095686D01*
X8212087Y-12095686D02*
X8202563Y-12086162D01*
M02*
