%TF.GenerationSoftware,KiCad,Pcbnew,8.0.4*%
%TF.CreationDate,2024-08-29T12:49:46+07:00*%
%TF.ProjectId,ESP32,45535033-322e-46b6-9963-61645f706362,rev?*%
%TF.SameCoordinates,Original*%
%TF.FileFunction,Soldermask,Top*%
%TF.FilePolarity,Negative*%
%FSLAX46Y46*%
G04 Gerber Fmt 4.6, Leading zero omitted, Abs format (unit mm)*
G04 Created by KiCad (PCBNEW 8.0.4) date 2024-08-29 12:49:46*
%MOMM*%
%LPD*%
G01*
G04 APERTURE LIST*
G04 Aperture macros list*
%AMRoundRect*
0 Rectangle with rounded corners*
0 $1 Rounding radius*
0 $2 $3 $4 $5 $6 $7 $8 $9 X,Y pos of 4 corners*
0 Add a 4 corners polygon primitive as box body*
4,1,4,$2,$3,$4,$5,$6,$7,$8,$9,$2,$3,0*
0 Add four circle primitives for the rounded corners*
1,1,$1+$1,$2,$3*
1,1,$1+$1,$4,$5*
1,1,$1+$1,$6,$7*
1,1,$1+$1,$8,$9*
0 Add four rect primitives between the rounded corners*
20,1,$1+$1,$2,$3,$4,$5,0*
20,1,$1+$1,$4,$5,$6,$7,0*
20,1,$1+$1,$6,$7,$8,$9,0*
20,1,$1+$1,$8,$9,$2,$3,0*%
G04 Aperture macros list end*
%ADD10R,1.700000X1.700000*%
%ADD11O,1.700000X1.700000*%
%ADD12RoundRect,0.250000X0.600000X0.750000X-0.600000X0.750000X-0.600000X-0.750000X0.600000X-0.750000X0*%
%ADD13O,1.700000X2.000000*%
%ADD14RoundRect,0.250000X-0.600000X-0.725000X0.600000X-0.725000X0.600000X0.725000X-0.600000X0.725000X0*%
%ADD15O,1.700000X1.950000*%
%ADD16RoundRect,0.250000X0.750000X-0.600000X0.750000X0.600000X-0.750000X0.600000X-0.750000X-0.600000X0*%
%ADD17O,2.000000X1.700000*%
%ADD18C,4.400000*%
%ADD19RoundRect,0.250000X-0.600000X-0.750000X0.600000X-0.750000X0.600000X0.750000X-0.600000X0.750000X0*%
%ADD20RoundRect,0.250000X-0.725000X0.600000X-0.725000X-0.600000X0.725000X-0.600000X0.725000X0.600000X0*%
%ADD21O,1.950000X1.700000*%
%ADD22RoundRect,0.102000X-0.765000X0.765000X-0.765000X-0.765000X0.765000X-0.765000X0.765000X0.765000X0*%
%ADD23C,1.734000*%
%ADD24RoundRect,0.250000X0.600000X0.725000X-0.600000X0.725000X-0.600000X-0.725000X0.600000X-0.725000X0*%
%ADD25RoundRect,0.250000X0.725000X-0.600000X0.725000X0.600000X-0.725000X0.600000X-0.725000X-0.600000X0*%
%ADD26RoundRect,0.102000X-0.765000X-0.765000X0.765000X-0.765000X0.765000X0.765000X-0.765000X0.765000X0*%
G04 APERTURE END LIST*
D10*
%TO.C,J7*%
X81000000Y-100500000D03*
D11*
X78460000Y-100500000D03*
X75920000Y-100500000D03*
X73380000Y-100500000D03*
%TD*%
D12*
%TO.C,J17*%
X68600000Y-104575000D03*
D13*
X66100000Y-104575000D03*
%TD*%
D14*
%TO.C,J2*%
X71975000Y-67482500D03*
D15*
X74475000Y-67482500D03*
X76975000Y-67482500D03*
%TD*%
D14*
%TO.C,J3*%
X60975000Y-67482500D03*
D15*
X63475000Y-67482500D03*
X65975000Y-67482500D03*
%TD*%
D16*
%TO.C,J13*%
X42900000Y-66857500D03*
D17*
X42900000Y-64357500D03*
%TD*%
D10*
%TO.C,J9*%
X84555000Y-81225000D03*
D11*
X82015000Y-81225000D03*
X79475000Y-81225000D03*
X76935000Y-81225000D03*
X74395000Y-81225000D03*
X71855000Y-81225000D03*
%TD*%
D18*
%TO.C,J21*%
X97525000Y-105150000D03*
%TD*%
D19*
%TO.C,J12*%
X94525000Y-84050000D03*
D13*
X97025000Y-84050000D03*
%TD*%
D18*
%TO.C,J23*%
X37050000Y-105150000D03*
%TD*%
D20*
%TO.C,J18*%
X96200000Y-91350000D03*
D21*
X96200000Y-93850000D03*
X96200000Y-96350000D03*
X96200000Y-98850000D03*
%TD*%
D12*
%TO.C,J20*%
X60100000Y-104575000D03*
D13*
X57600000Y-104575000D03*
%TD*%
D19*
%TO.C,J11*%
X94525000Y-77050000D03*
D13*
X97025000Y-77050000D03*
%TD*%
D14*
%TO.C,J4*%
X49975000Y-67507500D03*
D15*
X52475000Y-67507500D03*
X54975000Y-67507500D03*
%TD*%
D10*
%TO.C,J10*%
X84675000Y-91175000D03*
D11*
X82135000Y-91175000D03*
X79595000Y-91175000D03*
X77055000Y-91175000D03*
X74515000Y-91175000D03*
X71975000Y-91175000D03*
%TD*%
D19*
%TO.C,J8*%
X94525000Y-69975000D03*
D13*
X97025000Y-69975000D03*
%TD*%
D16*
%TO.C,J14*%
X38000000Y-75950000D03*
D17*
X38000000Y-73450000D03*
%TD*%
D12*
%TO.C,J16*%
X89075000Y-104900000D03*
D13*
X86575000Y-104900000D03*
%TD*%
D22*
%TO.C,U1*%
X90140000Y-71505000D03*
D23*
X87600000Y-71505000D03*
X85060000Y-71505000D03*
X82520000Y-71505000D03*
X79980000Y-71505000D03*
X77440000Y-71505000D03*
X74900000Y-71505000D03*
X72360000Y-71505000D03*
X69820000Y-71505000D03*
X67280000Y-71505000D03*
X64740000Y-71505000D03*
X62200000Y-71505000D03*
X59660000Y-71505000D03*
X57120000Y-71505000D03*
X54580000Y-71505000D03*
X52040000Y-71505000D03*
X49500000Y-71505000D03*
X46960000Y-71505000D03*
X44420000Y-71505000D03*
X44420000Y-96905000D03*
X46960000Y-96905000D03*
X49500000Y-96905000D03*
X52040000Y-96905000D03*
X54580000Y-96905000D03*
X57120000Y-96905000D03*
X59660000Y-96905000D03*
X62200000Y-96905000D03*
X64740000Y-96905000D03*
X67280000Y-96905000D03*
X69820000Y-96905000D03*
X72360000Y-96905000D03*
X74900000Y-96905000D03*
X77440000Y-96905000D03*
X79980000Y-96905000D03*
X82520000Y-96905000D03*
X85060000Y-96905000D03*
X87600000Y-96905000D03*
X90140000Y-96905000D03*
%TD*%
D24*
%TO.C,J5*%
X51525000Y-102642500D03*
D15*
X49025000Y-102642500D03*
X46525000Y-102642500D03*
X44025000Y-102642500D03*
%TD*%
D25*
%TO.C,J6*%
X39007500Y-98550000D03*
D21*
X39007500Y-96050000D03*
X39007500Y-93550000D03*
X39007500Y-91050000D03*
%TD*%
D16*
%TO.C,J15*%
X38000000Y-84375000D03*
D17*
X38000000Y-81875000D03*
%TD*%
D26*
%TO.C,ESP32*%
X48203500Y-82490000D03*
D23*
X48203500Y-85030000D03*
X48203500Y-87570000D03*
X48203500Y-90110000D03*
X89423500Y-90110000D03*
X89423500Y-87570000D03*
X89423500Y-85030000D03*
X89423500Y-82490000D03*
%TD*%
D14*
%TO.C,J1*%
X82975000Y-67482500D03*
D15*
X85475000Y-67482500D03*
X87975000Y-67482500D03*
%TD*%
D18*
%TO.C,J19*%
X97475000Y-64375000D03*
%TD*%
%TO.C,J22*%
X37050000Y-64350000D03*
%TD*%
M02*
